<?xml version="1.0" encoding="utf-8" standalone="no"?>
<!DOCTYPE svg PUBLIC "-//W3C//DTD SVG 1.1//EN"
  "http://www.w3.org/Graphics/SVG/1.1/DTD/svg11.dtd">
<svg height="288pt" version="1.1" viewBox="0 0 432 288" width="432pt" xmlns="http://www.w3.org/2000/svg" xmlns:xlink="http://www.w3.org/1999/xlink">
 <metadata>
  <rdf:RDF xmlns:cc="http://creativecommons.org/ns#" xmlns:dc="http://purl.org/dc/elements/1.1/" xmlns:rdf="http://www.w3.org/1999/02/22-rdf-syntax-ns#">
   <cc:Work>
    <dc:type rdf:resource="http://purl.org/dc/dcmitype/StillImage"/>
    <dc:date>2022-11-23T21:31:57.654257</dc:date>
    <dc:format>image/svg+xml</dc:format>
    <dc:creator>
     <cc:Agent>
      <dc:title>Matplotlib v3.4.3, https://matplotlib.org/</dc:title>
     </cc:Agent>
    </dc:creator>
   </cc:Work>
  </rdf:RDF>
 </metadata>
 <defs>
  <style type="text/css">*{stroke-linecap:butt;stroke-linejoin:round;}</style>
 </defs>
 <g id="figure_1">
  <g id="patch_1">
   <path d="M 0 288 
L 432 288 
L 432 0 
L 0 0 
z
" style="fill:none;"/>
  </g>
  <g id="axes_1">
   <g id="patch_2">
    <path d="M 54 252 
L 388.8 252 
L 388.8 34.56 
L 54 34.56 
z
" style="fill:#ffffff;"/>
   </g>
   <g id="patch_3">
    <path clip-path="url(#pb1b18a8cfa)" d="M 69.218182 252 
L 76.641685 252 
L 76.641685 248.746711 
L 69.218182 248.746711 
z
" style="fill:#1f77b4;"/>
   </g>
   <g id="patch_4">
    <path clip-path="url(#pb1b18a8cfa)" d="M 76.641685 252 
L 84.065188 252 
L 84.065188 252 
L 76.641685 252 
z
" style="fill:#1f77b4;"/>
   </g>
   <g id="patch_5">
    <path clip-path="url(#pb1b18a8cfa)" d="M 84.065188 252 
L 91.488692 252 
L 91.488692 246.237525 
L 84.065188 246.237525 
z
" style="fill:#1f77b4;"/>
   </g>
   <g id="patch_6">
    <path clip-path="url(#pb1b18a8cfa)" d="M 91.488692 252 
L 98.912195 252 
L 98.912195 252 
L 91.488692 252 
z
" style="fill:#1f77b4;"/>
   </g>
   <g id="patch_7">
    <path clip-path="url(#pb1b18a8cfa)" d="M 98.912195 252 
L 106.335698 252 
L 106.335698 240.11165 
L 98.912195 240.11165 
z
" style="fill:#1f77b4;"/>
   </g>
   <g id="patch_8">
    <path clip-path="url(#pb1b18a8cfa)" d="M 106.335698 252 
L 113.759202 252 
L 113.759202 252 
L 106.335698 252 
z
" style="fill:#1f77b4;"/>
   </g>
   <g id="patch_9">
    <path clip-path="url(#pb1b18a8cfa)" d="M 113.759202 252 
L 121.182705 252 
L 121.182705 227.8599 
L 113.759202 227.8599 
z
" style="fill:#1f77b4;"/>
   </g>
   <g id="patch_10">
    <path clip-path="url(#pb1b18a8cfa)" d="M 121.182705 252 
L 128.606208 252 
L 128.606208 252 
L 121.182705 252 
z
" style="fill:#1f77b4;"/>
   </g>
   <g id="patch_11">
    <path clip-path="url(#pb1b18a8cfa)" d="M 128.606208 252 
L 136.029712 252 
L 136.029712 208.270945 
L 128.606208 208.270945 
z
" style="fill:#1f77b4;"/>
   </g>
   <g id="patch_12">
    <path clip-path="url(#pb1b18a8cfa)" d="M 136.029712 252 
L 143.453215 252 
L 143.453215 252 
L 136.029712 252 
z
" style="fill:#1f77b4;"/>
   </g>
   <g id="patch_13">
    <path clip-path="url(#pb1b18a8cfa)" d="M 143.453215 252 
L 150.876718 252 
L 150.876718 185.221044 
L 143.453215 185.221044 
z
" style="fill:#1f77b4;"/>
   </g>
   <g id="patch_14">
    <path clip-path="url(#pb1b18a8cfa)" d="M 150.876718 252 
L 158.300222 252 
L 158.300222 252 
L 150.876718 252 
z
" style="fill:#1f77b4;"/>
   </g>
   <g id="patch_15">
    <path clip-path="url(#pb1b18a8cfa)" d="M 158.300222 252 
L 165.723725 252 
L 165.723725 151.199943 
L 158.300222 151.199943 
z
" style="fill:#1f77b4;"/>
   </g>
   <g id="patch_16">
    <path clip-path="url(#pb1b18a8cfa)" d="M 165.723725 252 
L 173.147228 252 
L 173.147228 252 
L 165.723725 252 
z
" style="fill:#1f77b4;"/>
   </g>
   <g id="patch_17">
    <path clip-path="url(#pb1b18a8cfa)" d="M 173.147228 252 
L 180.570732 252 
L 180.570732 111.987423 
L 173.147228 111.987423 
z
" style="fill:#1f77b4;"/>
   </g>
   <g id="patch_18">
    <path clip-path="url(#pb1b18a8cfa)" d="M 180.570732 252 
L 187.994235 252 
L 187.994235 252 
L 180.570732 252 
z
" style="fill:#1f77b4;"/>
   </g>
   <g id="patch_19">
    <path clip-path="url(#pb1b18a8cfa)" d="M 187.994235 252 
L 195.417738 252 
L 195.417738 81.185002 
L 187.994235 81.185002 
z
" style="fill:#1f77b4;"/>
   </g>
   <g id="patch_20">
    <path clip-path="url(#pb1b18a8cfa)" d="M 195.417738 252 
L 202.841242 252 
L 202.841242 252 
L 195.417738 252 
z
" style="fill:#1f77b4;"/>
   </g>
   <g id="patch_21">
    <path clip-path="url(#pb1b18a8cfa)" d="M 202.841242 252 
L 210.264745 252 
L 210.264745 56.473846 
L 202.841242 56.473846 
z
" style="fill:#1f77b4;"/>
   </g>
   <g id="patch_22">
    <path clip-path="url(#pb1b18a8cfa)" d="M 210.264745 252 
L 217.688248 252 
L 217.688248 252 
L 210.264745 252 
z
" style="fill:#1f77b4;"/>
   </g>
   <g id="patch_23">
    <path clip-path="url(#pb1b18a8cfa)" d="M 217.688248 252 
L 225.111752 252 
L 225.111752 44.914286 
L 217.688248 44.914286 
z
" style="fill:#1f77b4;"/>
   </g>
   <g id="patch_24">
    <path clip-path="url(#pb1b18a8cfa)" d="M 225.111752 252 
L 232.535255 252 
L 232.535255 252 
L 225.111752 252 
z
" style="fill:#1f77b4;"/>
   </g>
   <g id="patch_25">
    <path clip-path="url(#pb1b18a8cfa)" d="M 232.535255 252 
L 239.958758 252 
L 239.958758 54.051184 
L 232.535255 54.051184 
z
" style="fill:#1f77b4;"/>
   </g>
   <g id="patch_26">
    <path clip-path="url(#pb1b18a8cfa)" d="M 239.958758 252 
L 247.382262 252 
L 247.382262 252 
L 239.958758 252 
z
" style="fill:#1f77b4;"/>
   </g>
   <g id="patch_27">
    <path clip-path="url(#pb1b18a8cfa)" d="M 247.382262 252 
L 254.805765 252 
L 254.805765 80.925431 
L 247.382262 80.925431 
z
" style="fill:#1f77b4;"/>
   </g>
   <g id="patch_28">
    <path clip-path="url(#pb1b18a8cfa)" d="M 254.805765 252 
L 262.229268 252 
L 262.229268 252 
L 254.805765 252 
z
" style="fill:#1f77b4;"/>
   </g>
   <g id="patch_29">
    <path clip-path="url(#pb1b18a8cfa)" d="M 262.229268 252 
L 269.652772 252 
L 269.652772 112.350822 
L 262.229268 112.350822 
z
" style="fill:#1f77b4;"/>
   </g>
   <g id="patch_30">
    <path clip-path="url(#pb1b18a8cfa)" d="M 269.652772 252 
L 277.076275 252 
L 277.076275 252 
L 269.652772 252 
z
" style="fill:#1f77b4;"/>
   </g>
   <g id="patch_31">
    <path clip-path="url(#pb1b18a8cfa)" d="M 277.076275 252 
L 284.499778 252 
L 284.499778 151.615256 
L 277.076275 151.615256 
z
" style="fill:#1f77b4;"/>
   </g>
   <g id="patch_32">
    <path clip-path="url(#pb1b18a8cfa)" d="M 284.499778 252 
L 291.923282 252 
L 291.923282 252 
L 284.499778 252 
z
" style="fill:#1f77b4;"/>
   </g>
   <g id="patch_33">
    <path clip-path="url(#pb1b18a8cfa)" d="M 291.923282 252 
L 299.346785 252 
L 299.346785 184.649987 
L 291.923282 184.649987 
z
" style="fill:#1f77b4;"/>
   </g>
   <g id="patch_34">
    <path clip-path="url(#pb1b18a8cfa)" d="M 299.346785 252 
L 306.770288 252 
L 306.770288 252 
L 299.346785 252 
z
" style="fill:#1f77b4;"/>
   </g>
   <g id="patch_35">
    <path clip-path="url(#pb1b18a8cfa)" d="M 306.770288 252 
L 314.193792 252 
L 314.193792 211.230054 
L 306.770288 211.230054 
z
" style="fill:#1f77b4;"/>
   </g>
   <g id="patch_36">
    <path clip-path="url(#pb1b18a8cfa)" d="M 314.193792 252 
L 321.617295 252 
L 321.617295 252 
L 314.193792 252 
z
" style="fill:#1f77b4;"/>
   </g>
   <g id="patch_37">
    <path clip-path="url(#pb1b18a8cfa)" d="M 321.617295 252 
L 329.040798 252 
L 329.040798 228.448261 
L 321.617295 228.448261 
z
" style="fill:#1f77b4;"/>
   </g>
   <g id="patch_38">
    <path clip-path="url(#pb1b18a8cfa)" d="M 329.040798 252 
L 336.464302 252 
L 336.464302 252 
L 329.040798 252 
z
" style="fill:#1f77b4;"/>
   </g>
   <g id="patch_39">
    <path clip-path="url(#pb1b18a8cfa)" d="M 336.464302 252 
L 343.887805 252 
L 343.887805 241.288372 
L 336.464302 241.288372 
z
" style="fill:#1f77b4;"/>
   </g>
   <g id="patch_40">
    <path clip-path="url(#pb1b18a8cfa)" d="M 343.887805 252 
L 351.311308 252 
L 351.311308 252 
L 343.887805 252 
z
" style="fill:#1f77b4;"/>
   </g>
   <g id="patch_41">
    <path clip-path="url(#pb1b18a8cfa)" d="M 351.311308 252 
L 358.734812 252 
L 358.734812 246.393267 
L 351.311308 246.393267 
z
" style="fill:#1f77b4;"/>
   </g>
   <g id="patch_42">
    <path clip-path="url(#pb1b18a8cfa)" d="M 358.734812 252 
L 366.158315 252 
L 366.158315 252 
L 358.734812 252 
z
" style="fill:#1f77b4;"/>
   </g>
   <g id="patch_43">
    <path clip-path="url(#pb1b18a8cfa)" d="M 366.158315 252 
L 373.581818 252 
L 373.581818 248.366007 
L 366.158315 248.366007 
z
" style="fill:#1f77b4;"/>
   </g>
   <g id="matplotlib.axis_1">
    <g id="xtick_1">
     <g id="line2d_1">
      <defs>
       <path d="M 0 0 
L 0 3.5 
" id="m866413571c" style="stroke:#000000;stroke-width:0.8;"/>
      </defs>
      <g>
       <use style="stroke:#000000;stroke-width:0.8;" x="69.218182" xlink:href="#m866413571c" y="252"/>
      </g>
     </g>
     <g id="text_1">
      <!-- 0.0 -->
      <g transform="translate(61.266619 266.598437)scale(0.1 -0.1)">
       <defs>
        <path d="M 2034 4250 
Q 1547 4250 1301 3770 
Q 1056 3291 1056 2328 
Q 1056 1369 1301 889 
Q 1547 409 2034 409 
Q 2525 409 2770 889 
Q 3016 1369 3016 2328 
Q 3016 3291 2770 3770 
Q 2525 4250 2034 4250 
z
M 2034 4750 
Q 2819 4750 3233 4129 
Q 3647 3509 3647 2328 
Q 3647 1150 3233 529 
Q 2819 -91 2034 -91 
Q 1250 -91 836 529 
Q 422 1150 422 2328 
Q 422 3509 836 4129 
Q 1250 4750 2034 4750 
z
" id="DejaVuSans-30" transform="scale(0.015625)"/>
        <path d="M 684 794 
L 1344 794 
L 1344 0 
L 684 0 
L 684 794 
z
" id="DejaVuSans-2e" transform="scale(0.015625)"/>
       </defs>
       <use xlink:href="#DejaVuSans-30"/>
       <use x="63.623047" xlink:href="#DejaVuSans-2e"/>
       <use x="95.410156" xlink:href="#DejaVuSans-30"/>
      </g>
     </g>
    </g>
    <g id="xtick_2">
     <g id="line2d_2">
      <g>
       <use style="stroke:#000000;stroke-width:0.8;" x="107.263636" xlink:href="#m866413571c" y="252"/>
      </g>
     </g>
     <g id="text_2">
      <!-- 2.5 -->
      <g transform="translate(99.312074 266.598437)scale(0.1 -0.1)">
       <defs>
        <path d="M 1228 531 
L 3431 531 
L 3431 0 
L 469 0 
L 469 531 
Q 828 903 1448 1529 
Q 2069 2156 2228 2338 
Q 2531 2678 2651 2914 
Q 2772 3150 2772 3378 
Q 2772 3750 2511 3984 
Q 2250 4219 1831 4219 
Q 1534 4219 1204 4116 
Q 875 4013 500 3803 
L 500 4441 
Q 881 4594 1212 4672 
Q 1544 4750 1819 4750 
Q 2544 4750 2975 4387 
Q 3406 4025 3406 3419 
Q 3406 3131 3298 2873 
Q 3191 2616 2906 2266 
Q 2828 2175 2409 1742 
Q 1991 1309 1228 531 
z
" id="DejaVuSans-32" transform="scale(0.015625)"/>
        <path d="M 691 4666 
L 3169 4666 
L 3169 4134 
L 1269 4134 
L 1269 2991 
Q 1406 3038 1543 3061 
Q 1681 3084 1819 3084 
Q 2600 3084 3056 2656 
Q 3513 2228 3513 1497 
Q 3513 744 3044 326 
Q 2575 -91 1722 -91 
Q 1428 -91 1123 -41 
Q 819 9 494 109 
L 494 744 
Q 775 591 1075 516 
Q 1375 441 1709 441 
Q 2250 441 2565 725 
Q 2881 1009 2881 1497 
Q 2881 1984 2565 2268 
Q 2250 2553 1709 2553 
Q 1456 2553 1204 2497 
Q 953 2441 691 2322 
L 691 4666 
z
" id="DejaVuSans-35" transform="scale(0.015625)"/>
       </defs>
       <use xlink:href="#DejaVuSans-32"/>
       <use x="63.623047" xlink:href="#DejaVuSans-2e"/>
       <use x="95.410156" xlink:href="#DejaVuSans-35"/>
      </g>
     </g>
    </g>
    <g id="xtick_3">
     <g id="line2d_3">
      <g>
       <use style="stroke:#000000;stroke-width:0.8;" x="145.309091" xlink:href="#m866413571c" y="252"/>
      </g>
     </g>
     <g id="text_3">
      <!-- 5.0 -->
      <g transform="translate(137.357528 266.598437)scale(0.1 -0.1)">
       <use xlink:href="#DejaVuSans-35"/>
       <use x="63.623047" xlink:href="#DejaVuSans-2e"/>
       <use x="95.410156" xlink:href="#DejaVuSans-30"/>
      </g>
     </g>
    </g>
    <g id="xtick_4">
     <g id="line2d_4">
      <g>
       <use style="stroke:#000000;stroke-width:0.8;" x="183.354545" xlink:href="#m866413571c" y="252"/>
      </g>
     </g>
     <g id="text_4">
      <!-- 7.5 -->
      <g transform="translate(175.402983 266.598437)scale(0.1 -0.1)">
       <defs>
        <path d="M 525 4666 
L 3525 4666 
L 3525 4397 
L 1831 0 
L 1172 0 
L 2766 4134 
L 525 4134 
L 525 4666 
z
" id="DejaVuSans-37" transform="scale(0.015625)"/>
       </defs>
       <use xlink:href="#DejaVuSans-37"/>
       <use x="63.623047" xlink:href="#DejaVuSans-2e"/>
       <use x="95.410156" xlink:href="#DejaVuSans-35"/>
      </g>
     </g>
    </g>
    <g id="xtick_5">
     <g id="line2d_5">
      <g>
       <use style="stroke:#000000;stroke-width:0.8;" x="221.4" xlink:href="#m866413571c" y="252"/>
      </g>
     </g>
     <g id="text_5">
      <!-- 10.0 -->
      <g transform="translate(210.267187 266.598437)scale(0.1 -0.1)">
       <defs>
        <path d="M 794 531 
L 1825 531 
L 1825 4091 
L 703 3866 
L 703 4441 
L 1819 4666 
L 2450 4666 
L 2450 531 
L 3481 531 
L 3481 0 
L 794 0 
L 794 531 
z
" id="DejaVuSans-31" transform="scale(0.015625)"/>
       </defs>
       <use xlink:href="#DejaVuSans-31"/>
       <use x="63.623047" xlink:href="#DejaVuSans-30"/>
       <use x="127.246094" xlink:href="#DejaVuSans-2e"/>
       <use x="159.033203" xlink:href="#DejaVuSans-30"/>
      </g>
     </g>
    </g>
    <g id="xtick_6">
     <g id="line2d_6">
      <g>
       <use style="stroke:#000000;stroke-width:0.8;" x="259.445455" xlink:href="#m866413571c" y="252"/>
      </g>
     </g>
     <g id="text_6">
      <!-- 12.5 -->
      <g transform="translate(248.312642 266.598437)scale(0.1 -0.1)">
       <use xlink:href="#DejaVuSans-31"/>
       <use x="63.623047" xlink:href="#DejaVuSans-32"/>
       <use x="127.246094" xlink:href="#DejaVuSans-2e"/>
       <use x="159.033203" xlink:href="#DejaVuSans-35"/>
      </g>
     </g>
    </g>
    <g id="xtick_7">
     <g id="line2d_7">
      <g>
       <use style="stroke:#000000;stroke-width:0.8;" x="297.490909" xlink:href="#m866413571c" y="252"/>
      </g>
     </g>
     <g id="text_7">
      <!-- 15.0 -->
      <g transform="translate(286.358097 266.598437)scale(0.1 -0.1)">
       <use xlink:href="#DejaVuSans-31"/>
       <use x="63.623047" xlink:href="#DejaVuSans-35"/>
       <use x="127.246094" xlink:href="#DejaVuSans-2e"/>
       <use x="159.033203" xlink:href="#DejaVuSans-30"/>
      </g>
     </g>
    </g>
    <g id="xtick_8">
     <g id="line2d_8">
      <g>
       <use style="stroke:#000000;stroke-width:0.8;" x="335.536364" xlink:href="#m866413571c" y="252"/>
      </g>
     </g>
     <g id="text_8">
      <!-- 17.5 -->
      <g transform="translate(324.403551 266.598437)scale(0.1 -0.1)">
       <use xlink:href="#DejaVuSans-31"/>
       <use x="63.623047" xlink:href="#DejaVuSans-37"/>
       <use x="127.246094" xlink:href="#DejaVuSans-2e"/>
       <use x="159.033203" xlink:href="#DejaVuSans-35"/>
      </g>
     </g>
    </g>
    <g id="xtick_9">
     <g id="line2d_9">
      <g>
       <use style="stroke:#000000;stroke-width:0.8;" x="373.581818" xlink:href="#m866413571c" y="252"/>
      </g>
     </g>
     <g id="text_9">
      <!-- 20.0 -->
      <g transform="translate(362.449006 266.598437)scale(0.1 -0.1)">
       <use xlink:href="#DejaVuSans-32"/>
       <use x="63.623047" xlink:href="#DejaVuSans-30"/>
       <use x="127.246094" xlink:href="#DejaVuSans-2e"/>
       <use x="159.033203" xlink:href="#DejaVuSans-30"/>
      </g>
     </g>
    </g>
   </g>
   <g id="matplotlib.axis_2">
    <g id="ytick_1">
     <g id="line2d_10">
      <defs>
       <path d="M 0 0 
L -3.5 0 
" id="m7aaa92f8bd" style="stroke:#000000;stroke-width:0.8;"/>
      </defs>
      <g>
       <use style="stroke:#000000;stroke-width:0.8;" x="54" xlink:href="#m7aaa92f8bd" y="252"/>
      </g>
     </g>
     <g id="text_10">
      <!-- 0 -->
      <g transform="translate(40.6375 255.799219)scale(0.1 -0.1)">
       <use xlink:href="#DejaVuSans-30"/>
      </g>
     </g>
    </g>
    <g id="ytick_2">
     <g id="line2d_11">
      <g>
       <use style="stroke:#000000;stroke-width:0.8;" x="54" xlink:href="#m7aaa92f8bd" y="217.390538"/>
      </g>
     </g>
     <g id="text_11">
      <!-- 2000 -->
      <g transform="translate(21.55 221.189757)scale(0.1 -0.1)">
       <use xlink:href="#DejaVuSans-32"/>
       <use x="63.623047" xlink:href="#DejaVuSans-30"/>
       <use x="127.246094" xlink:href="#DejaVuSans-30"/>
       <use x="190.869141" xlink:href="#DejaVuSans-30"/>
      </g>
     </g>
    </g>
    <g id="ytick_3">
     <g id="line2d_12">
      <g>
       <use style="stroke:#000000;stroke-width:0.8;" x="54" xlink:href="#m7aaa92f8bd" y="182.781077"/>
      </g>
     </g>
     <g id="text_12">
      <!-- 4000 -->
      <g transform="translate(21.55 186.580295)scale(0.1 -0.1)">
       <defs>
        <path d="M 2419 4116 
L 825 1625 
L 2419 1625 
L 2419 4116 
z
M 2253 4666 
L 3047 4666 
L 3047 1625 
L 3713 1625 
L 3713 1100 
L 3047 1100 
L 3047 0 
L 2419 0 
L 2419 1100 
L 313 1100 
L 313 1709 
L 2253 4666 
z
" id="DejaVuSans-34" transform="scale(0.015625)"/>
       </defs>
       <use xlink:href="#DejaVuSans-34"/>
       <use x="63.623047" xlink:href="#DejaVuSans-30"/>
       <use x="127.246094" xlink:href="#DejaVuSans-30"/>
       <use x="190.869141" xlink:href="#DejaVuSans-30"/>
      </g>
     </g>
    </g>
    <g id="ytick_4">
     <g id="line2d_13">
      <g>
       <use style="stroke:#000000;stroke-width:0.8;" x="54" xlink:href="#m7aaa92f8bd" y="148.171615"/>
      </g>
     </g>
     <g id="text_13">
      <!-- 6000 -->
      <g transform="translate(21.55 151.970834)scale(0.1 -0.1)">
       <defs>
        <path d="M 2113 2584 
Q 1688 2584 1439 2293 
Q 1191 2003 1191 1497 
Q 1191 994 1439 701 
Q 1688 409 2113 409 
Q 2538 409 2786 701 
Q 3034 994 3034 1497 
Q 3034 2003 2786 2293 
Q 2538 2584 2113 2584 
z
M 3366 4563 
L 3366 3988 
Q 3128 4100 2886 4159 
Q 2644 4219 2406 4219 
Q 1781 4219 1451 3797 
Q 1122 3375 1075 2522 
Q 1259 2794 1537 2939 
Q 1816 3084 2150 3084 
Q 2853 3084 3261 2657 
Q 3669 2231 3669 1497 
Q 3669 778 3244 343 
Q 2819 -91 2113 -91 
Q 1303 -91 875 529 
Q 447 1150 447 2328 
Q 447 3434 972 4092 
Q 1497 4750 2381 4750 
Q 2619 4750 2861 4703 
Q 3103 4656 3366 4563 
z
" id="DejaVuSans-36" transform="scale(0.015625)"/>
       </defs>
       <use xlink:href="#DejaVuSans-36"/>
       <use x="63.623047" xlink:href="#DejaVuSans-30"/>
       <use x="127.246094" xlink:href="#DejaVuSans-30"/>
       <use x="190.869141" xlink:href="#DejaVuSans-30"/>
      </g>
     </g>
    </g>
    <g id="ytick_5">
     <g id="line2d_14">
      <g>
       <use style="stroke:#000000;stroke-width:0.8;" x="54" xlink:href="#m7aaa92f8bd" y="113.562153"/>
      </g>
     </g>
     <g id="text_14">
      <!-- 8000 -->
      <g transform="translate(21.55 117.361372)scale(0.1 -0.1)">
       <defs>
        <path d="M 2034 2216 
Q 1584 2216 1326 1975 
Q 1069 1734 1069 1313 
Q 1069 891 1326 650 
Q 1584 409 2034 409 
Q 2484 409 2743 651 
Q 3003 894 3003 1313 
Q 3003 1734 2745 1975 
Q 2488 2216 2034 2216 
z
M 1403 2484 
Q 997 2584 770 2862 
Q 544 3141 544 3541 
Q 544 4100 942 4425 
Q 1341 4750 2034 4750 
Q 2731 4750 3128 4425 
Q 3525 4100 3525 3541 
Q 3525 3141 3298 2862 
Q 3072 2584 2669 2484 
Q 3125 2378 3379 2068 
Q 3634 1759 3634 1313 
Q 3634 634 3220 271 
Q 2806 -91 2034 -91 
Q 1263 -91 848 271 
Q 434 634 434 1313 
Q 434 1759 690 2068 
Q 947 2378 1403 2484 
z
M 1172 3481 
Q 1172 3119 1398 2916 
Q 1625 2713 2034 2713 
Q 2441 2713 2670 2916 
Q 2900 3119 2900 3481 
Q 2900 3844 2670 4047 
Q 2441 4250 2034 4250 
Q 1625 4250 1398 4047 
Q 1172 3844 1172 3481 
z
" id="DejaVuSans-38" transform="scale(0.015625)"/>
       </defs>
       <use xlink:href="#DejaVuSans-38"/>
       <use x="63.623047" xlink:href="#DejaVuSans-30"/>
       <use x="127.246094" xlink:href="#DejaVuSans-30"/>
       <use x="190.869141" xlink:href="#DejaVuSans-30"/>
      </g>
     </g>
    </g>
    <g id="ytick_6">
     <g id="line2d_15">
      <g>
       <use style="stroke:#000000;stroke-width:0.8;" x="54" xlink:href="#m7aaa92f8bd" y="78.952691"/>
      </g>
     </g>
     <g id="text_15">
      <!-- 10000 -->
      <g transform="translate(15.1875 82.75191)scale(0.1 -0.1)">
       <use xlink:href="#DejaVuSans-31"/>
       <use x="63.623047" xlink:href="#DejaVuSans-30"/>
       <use x="127.246094" xlink:href="#DejaVuSans-30"/>
       <use x="190.869141" xlink:href="#DejaVuSans-30"/>
       <use x="254.492188" xlink:href="#DejaVuSans-30"/>
      </g>
     </g>
    </g>
    <g id="ytick_7">
     <g id="line2d_16">
      <g>
       <use style="stroke:#000000;stroke-width:0.8;" x="54" xlink:href="#m7aaa92f8bd" y="44.34323"/>
      </g>
     </g>
     <g id="text_16">
      <!-- 12000 -->
      <g transform="translate(15.1875 48.142448)scale(0.1 -0.1)">
       <use xlink:href="#DejaVuSans-31"/>
       <use x="63.623047" xlink:href="#DejaVuSans-32"/>
       <use x="127.246094" xlink:href="#DejaVuSans-30"/>
       <use x="190.869141" xlink:href="#DejaVuSans-30"/>
       <use x="254.492188" xlink:href="#DejaVuSans-30"/>
      </g>
     </g>
    </g>
   </g>
   <g id="patch_44">
    <path d="M 54 252 
L 54 34.56 
" style="fill:none;stroke:#000000;stroke-linecap:square;stroke-linejoin:miter;stroke-width:0.8;"/>
   </g>
   <g id="patch_45">
    <path d="M 388.8 252 
L 388.8 34.56 
" style="fill:none;stroke:#000000;stroke-linecap:square;stroke-linejoin:miter;stroke-width:0.8;"/>
   </g>
   <g id="patch_46">
    <path d="M 54 252 
L 388.8 252 
" style="fill:none;stroke:#000000;stroke-linecap:square;stroke-linejoin:miter;stroke-width:0.8;"/>
   </g>
   <g id="patch_47">
    <path d="M 54 34.56 
L 388.8 34.56 
" style="fill:none;stroke:#000000;stroke-linecap:square;stroke-linejoin:miter;stroke-width:0.8;"/>
   </g>
  </g>
 </g>
 <defs>
  <clipPath id="pb1b18a8cfa">
   <rect height="217.44" width="334.8" x="54" y="34.56"/>
  </clipPath>
 </defs>
</svg>
