<?xml version="1.0" encoding="UTF-8"?>
<svg xmlns="http://www.w3.org/2000/svg" xmlns:xlink="http://www.w3.org/1999/xlink"
     width="180" height="140" viewBox="0 -140 180 140">
<defs>
</defs>
<path d="M10.0,-10.0 L30.0,-10.0" stroke="black" stroke-width="1" />
<path d="M10.0,-10.0 L10.0,-30.0" stroke="black" stroke-width="1" />
<path d="M30.0,-10.0 L50.0,-10.0" stroke="black" stroke-width="1" />
<path d="M30.0,-10.0 L30.0,-30.0" stroke="black" stroke-width="1" />
<path d="M50.0,-10.0 L70.0,-10.0" stroke="black" stroke-width="1" />
<path d="M50.0,-10.0 L50.0,-30.0" stroke="black" stroke-width="1" />
<path d="M70.0,-10.0 L90.0,-10.0" stroke="black" stroke-width="1" />
<path d="M70.0,-10.0 L70.0,-30.0" stroke="black" stroke-width="1" />
<path d="M90.0,-10.0 L110.0,-10.0" stroke="black" stroke-width="1" />
<path d="M90.0,-10.0 L90.0,-30.0" stroke="black" stroke-width="1" />
<path d="M110.0,-10.0 L130.0,-10.0" stroke="black" stroke-width="1" />
<path d="M110.0,-10.0 L110.0,-30.0" stroke="black" stroke-width="1" />
<path d="M130.0,-10.0 L150.0,-10.0" stroke="black" stroke-width="1" />
<path d="M130.0,-10.0 L130.0,-30.0" stroke="black" stroke-width="1" />
<path d="M150.0,-10.0 L170.0,-10.0" stroke="black" stroke-width="1" />
<path d="M150.0,-10.0 L150.0,-30.0" stroke="black" stroke-width="1" />
<path d="M170.0,-10.0 L170.0,-30.0" stroke="black" stroke-width="1" />
<path d="M10.0,-30.0 L30.0,-30.0" stroke="black" stroke-width="1" />
<path d="M10.0,-30.0 L10.0,-50.0" stroke="black" stroke-width="1" />
<path d="M30.0,-30.0 L50.0,-30.0" stroke="black" stroke-width="1" />
<path d="M30.0,-30.0 L30.0,-50.0" stroke="black" stroke-width="1" />
<path d="M50.0,-30.0 L70.0,-30.0" stroke="black" stroke-width="1" />
<path d="M50.0,-30.0 L50.0,-50.0" stroke="black" stroke-width="1" />
<path d="M70.0,-30.0 L90.0,-30.0" stroke="black" stroke-width="1" />
<path d="M70.0,-30.0 L70.0,-50.0" stroke="black" stroke-width="1" />
<path d="M90.0,-30.0 L110.0,-30.0" stroke="black" stroke-width="1" />
<path d="M90.0,-30.0 L90.0,-50.0" stroke="black" stroke-width="1" />
<path d="M110.0,-30.0 L130.0,-30.0" stroke="black" stroke-width="1" />
<path d="M110.0,-30.0 L110.0,-50.0" stroke="black" stroke-width="1" />
<path d="M130.0,-30.0 L150.0,-30.0" stroke="black" stroke-width="1" />
<path d="M130.0,-30.0 L130.0,-50.0" stroke="black" stroke-width="1" />
<path d="M150.0,-30.0 L170.0,-30.0" stroke="black" stroke-width="1" />
<path d="M150.0,-30.0 L150.0,-50.0" stroke="black" stroke-width="1" />
<path d="M170.0,-30.0 L170.0,-50.0" stroke="black" stroke-width="1" />
<path d="M10.0,-50.0 L30.0,-50.0" stroke="black" stroke-width="1" />
<path d="M10.0,-50.0 L10.0,-70.0" stroke="black" stroke-width="1" />
<path d="M30.0,-50.0 L50.0,-50.0" stroke="black" stroke-width="1" />
<path d="M30.0,-50.0 L30.0,-70.0" stroke="black" stroke-width="1" />
<path d="M50.0,-50.0 L70.0,-50.0" stroke="black" stroke-width="1" />
<path d="M50.0,-50.0 L50.0,-70.0" stroke="black" stroke-width="1" />
<path d="M70.0,-50.0 L90.0,-50.0" stroke="black" stroke-width="1" />
<path d="M70.0,-50.0 L70.0,-70.0" stroke="black" stroke-width="1" />
<path d="M90.0,-50.0 L110.0,-50.0" stroke="black" stroke-width="1" />
<path d="M90.0,-50.0 L90.0,-70.0" stroke="black" stroke-width="1" />
<path d="M110.0,-50.0 L130.0,-50.0" stroke="black" stroke-width="1" />
<path d="M110.0,-50.0 L110.0,-70.0" stroke="black" stroke-width="1" />
<path d="M130.0,-50.0 L150.0,-50.0" stroke="black" stroke-width="1" />
<path d="M130.0,-50.0 L130.0,-70.0" stroke="black" stroke-width="1" />
<path d="M150.0,-50.0 L170.0,-50.0" stroke="black" stroke-width="1" />
<path d="M150.0,-50.0 L150.0,-70.0" stroke="black" stroke-width="1" />
<path d="M170.0,-50.0 L170.0,-70.0" stroke="black" stroke-width="1" />
<path d="M10.0,-70.0 L30.0,-70.0" stroke="black" stroke-width="1" />
<path d="M10.0,-70.0 L10.0,-90.0" stroke="black" stroke-width="1" />
<path d="M30.0,-70.0 L50.0,-70.0" stroke="black" stroke-width="1" />
<path d="M30.0,-70.0 L30.0,-90.0" stroke="black" stroke-width="1" />
<path d="M50.0,-70.0 L70.0,-70.0" stroke="black" stroke-width="1" />
<path d="M50.0,-70.0 L50.0,-90.0" stroke="black" stroke-width="1" />
<path d="M70.0,-70.0 L90.0,-70.0" stroke="black" stroke-width="1" />
<path d="M70.0,-70.0 L70.0,-90.0" stroke="black" stroke-width="1" />
<path d="M90.0,-70.0 L110.0,-70.0" stroke="black" stroke-width="1" />
<path d="M90.0,-70.0 L90.0,-90.0" stroke="black" stroke-width="1" />
<path d="M110.0,-70.0 L130.0,-70.0" stroke="black" stroke-width="1" />
<path d="M110.0,-70.0 L110.0,-90.0" stroke="black" stroke-width="1" />
<path d="M130.0,-70.0 L150.0,-70.0" stroke="black" stroke-width="1" />
<path d="M130.0,-70.0 L130.0,-90.0" stroke="black" stroke-width="1" />
<path d="M150.0,-70.0 L170.0,-70.0" stroke="black" stroke-width="1" />
<path d="M150.0,-70.0 L150.0,-90.0" stroke="black" stroke-width="1" />
<path d="M170.0,-70.0 L170.0,-90.0" stroke="black" stroke-width="1" />
<path d="M10.0,-90.0 L30.0,-90.0" stroke="black" stroke-width="1" />
<path d="M10.0,-90.0 L10.0,-110.0" stroke="black" stroke-width="1" />
<path d="M30.0,-90.0 L50.0,-90.0" stroke="black" stroke-width="1" />
<path d="M30.0,-90.0 L30.0,-110.0" stroke="black" stroke-width="1" />
<path d="M50.0,-90.0 L70.0,-90.0" stroke="black" stroke-width="1" />
<path d="M50.0,-90.0 L50.0,-110.0" stroke="black" stroke-width="1" />
<path d="M70.0,-90.0 L90.0,-90.0" stroke="black" stroke-width="1" />
<path d="M70.0,-90.0 L70.0,-110.0" stroke="black" stroke-width="1" />
<path d="M90.0,-90.0 L110.0,-90.0" stroke="black" stroke-width="1" />
<path d="M90.0,-90.0 L90.0,-110.0" stroke="black" stroke-width="1" />
<path d="M110.0,-90.0 L130.0,-90.0" stroke="black" stroke-width="1" />
<path d="M110.0,-90.0 L110.0,-110.0" stroke="black" stroke-width="1" />
<path d="M130.0,-90.0 L150.0,-90.0" stroke="black" stroke-width="1" />
<path d="M130.0,-90.0 L130.0,-110.0" stroke="black" stroke-width="1" />
<path d="M150.0,-90.0 L170.0,-90.0" stroke="black" stroke-width="1" />
<path d="M150.0,-90.0 L150.0,-110.0" stroke="black" stroke-width="1" />
<path d="M170.0,-90.0 L170.0,-110.0" stroke="black" stroke-width="1" />
<path d="M10.0,-110.0 L30.0,-110.0" stroke="black" stroke-width="1" />
<path d="M10.0,-110.0 L10.0,-130.0" stroke="black" stroke-width="1" />
<path d="M30.0,-110.0 L50.0,-110.0" stroke="black" stroke-width="1" />
<path d="M30.0,-110.0 L30.0,-130.0" stroke="black" stroke-width="1" />
<path d="M50.0,-110.0 L70.0,-110.0" stroke="black" stroke-width="1" />
<path d="M50.0,-110.0 L50.0,-130.0" stroke="black" stroke-width="1" />
<path d="M70.0,-110.0 L90.0,-110.0" stroke="black" stroke-width="1" />
<path d="M70.0,-110.0 L70.0,-130.0" stroke="black" stroke-width="1" />
<path d="M90.0,-110.0 L110.0,-110.0" stroke="black" stroke-width="1" />
<path d="M90.0,-110.0 L90.0,-130.0" stroke="black" stroke-width="1" />
<path d="M110.0,-110.0 L130.0,-110.0" stroke="black" stroke-width="1" />
<path d="M110.0,-110.0 L110.0,-130.0" stroke="black" stroke-width="1" />
<path d="M130.0,-110.0 L150.0,-110.0" stroke="black" stroke-width="1" />
<path d="M130.0,-110.0 L130.0,-130.0" stroke="black" stroke-width="1" />
<path d="M150.0,-110.0 L170.0,-110.0" stroke="black" stroke-width="1" />
<path d="M150.0,-110.0 L150.0,-130.0" stroke="black" stroke-width="1" />
<path d="M170.0,-110.0 L170.0,-130.0" stroke="black" stroke-width="1" />
<path d="M10.0,-130.0 L30.0,-130.0" stroke="black" stroke-width="1" />
<path d="M30.0,-130.0 L50.0,-130.0" stroke="black" stroke-width="1" />
<path d="M50.0,-130.0 L70.0,-130.0" stroke="black" stroke-width="1" />
<path d="M70.0,-130.0 L90.0,-130.0" stroke="black" stroke-width="1" />
<path d="M90.0,-130.0 L110.0,-130.0" stroke="black" stroke-width="1" />
<path d="M110.0,-130.0 L130.0,-130.0" stroke="black" stroke-width="1" />
<path d="M130.0,-130.0 L150.0,-130.0" stroke="black" stroke-width="1" />
<path d="M150.0,-130.0 L170.0,-130.0" stroke="black" stroke-width="1" />
</svg>