<?xml version="1.0" encoding="UTF-8"?>
<svg xmlns="http://www.w3.org/2000/svg" xmlns:xlink="http://www.w3.org/1999/xlink"
     width="620" height="420" viewBox="0 -420 620 420">
<defs>
</defs>
<path d="M10.0,-10.0 L30.0,-10.0" stroke="black" stroke-width="1" />
<path d="M10.0,-10.0 L10.0,-30.0" stroke="black" stroke-width="1" />
<path d="M30.0,-10.0 L50.0,-10.0" stroke="black" stroke-width="1" />
<path d="M30.0,-10.0 L30.0,-30.0" stroke="black" stroke-width="1" />
<path d="M50.0,-10.0 L70.0,-10.0" stroke="black" stroke-width="1" />
<path d="M50.0,-10.0 L50.0,-30.0" stroke="black" stroke-width="1" />
<path d="M70.0,-10.0 L90.0,-10.0" stroke="black" stroke-width="1" />
<path d="M70.0,-10.0 L70.0,-30.0" stroke="black" stroke-width="1" />
<path d="M90.0,-10.0 L110.0,-10.0" stroke="black" stroke-width="1" />
<path d="M90.0,-10.0 L90.0,-30.0" stroke="black" stroke-width="1" />
<path d="M110.0,-10.0 L130.0,-10.0" stroke="black" stroke-width="1" />
<path d="M110.0,-10.0 L110.0,-30.0" stroke="black" stroke-width="1" />
<path d="M130.0,-10.0 L150.0,-10.0" stroke="black" stroke-width="1" />
<path d="M130.0,-10.0 L130.0,-30.0" stroke="black" stroke-width="1" />
<path d="M150.0,-10.0 L170.0,-10.0" stroke="black" stroke-width="1" />
<path d="M150.0,-10.0 L150.0,-30.0" stroke="black" stroke-width="1" />
<path d="M170.0,-10.0 L190.0,-10.0" stroke="black" stroke-width="1" />
<path d="M170.0,-10.0 L170.0,-30.0" stroke="black" stroke-width="1" />
<path d="M190.0,-10.0 L210.0,-10.0" stroke="black" stroke-width="1" />
<path d="M190.0,-10.0 L190.0,-30.0" stroke="black" stroke-width="1" />
<path d="M210.0,-10.0 L230.0,-10.0" stroke="black" stroke-width="1" />
<path d="M230.0,-10.0 L250.0,-10.0" stroke="black" stroke-width="1" />
<path d="M250.0,-10.0 L270.0,-10.0" stroke="black" stroke-width="1" />
<path d="M250.0,-10.0 L250.0,-30.0" stroke="black" stroke-width="1" />
<path d="M270.0,-10.0 L290.0,-10.0" stroke="black" stroke-width="1" />
<path d="M290.0,-10.0 L310.0,-10.0" stroke="black" stroke-width="1" />
<path d="M290.0,-10.0 L290.0,-30.0" stroke="black" stroke-width="1" />
<path d="M310.0,-10.0 L330.0,-10.0" stroke="black" stroke-width="1" />
<path d="M330.0,-10.0 L350.0,-10.0" stroke="black" stroke-width="1" />
<path d="M350.0,-10.0 L370.0,-10.0" stroke="black" stroke-width="1" />
<path d="M350.0,-10.0 L350.0,-30.0" stroke="black" stroke-width="1" />
<path d="M370.0,-10.0 L390.0,-10.0" stroke="black" stroke-width="1" />
<path d="M390.0,-10.0 L410.0,-10.0" stroke="black" stroke-width="1" />
<path d="M390.0,-10.0 L390.0,-30.0" stroke="black" stroke-width="1" />
<path d="M410.0,-10.0 L430.0,-10.0" stroke="black" stroke-width="1" />
<path d="M430.0,-10.0 L450.0,-10.0" stroke="black" stroke-width="1" />
<path d="M450.0,-10.0 L470.0,-10.0" stroke="black" stroke-width="1" />
<path d="M450.0,-10.0 L450.0,-30.0" stroke="black" stroke-width="1" />
<path d="M470.0,-10.0 L490.0,-10.0" stroke="black" stroke-width="1" />
<path d="M490.0,-10.0 L510.0,-10.0" stroke="black" stroke-width="1" />
<path d="M490.0,-10.0 L490.0,-30.0" stroke="black" stroke-width="1" />
<path d="M510.0,-10.0 L530.0,-10.0" stroke="black" stroke-width="1" />
<path d="M510.0,-10.0 L510.0,-30.0" stroke="black" stroke-width="1" />
<path d="M530.0,-10.0 L550.0,-10.0" stroke="black" stroke-width="1" />
<path d="M550.0,-10.0 L570.0,-10.0" stroke="black" stroke-width="1" />
<path d="M550.0,-10.0 L550.0,-30.0" stroke="black" stroke-width="1" />
<path d="M570.0,-10.0 L590.0,-10.0" stroke="black" stroke-width="1" />
<path d="M590.0,-10.0 L610.0,-10.0" stroke="black" stroke-width="1" />
<path d="M610.0,-10.0 L610.0,-30.0" stroke="black" stroke-width="1" />
<path d="M10.0,-30.0 L10.0,-50.0" stroke="black" stroke-width="1" />
<path d="M30.0,-30.0 L30.0,-50.0" stroke="black" stroke-width="1" />
<path d="M50.0,-30.0 L50.0,-50.0" stroke="black" stroke-width="1" />
<path d="M70.0,-30.0 L70.0,-50.0" stroke="black" stroke-width="1" />
<path d="M90.0,-30.0 L90.0,-50.0" stroke="black" stroke-width="1" />
<path d="M130.0,-30.0 L130.0,-50.0" stroke="black" stroke-width="1" />
<path d="M170.0,-30.0 L170.0,-50.0" stroke="black" stroke-width="1" />
<path d="M190.0,-30.0 L190.0,-50.0" stroke="black" stroke-width="1" />
<path d="M210.0,-30.0 L230.0,-30.0" stroke="black" stroke-width="1" />
<path d="M230.0,-30.0 L250.0,-30.0" stroke="black" stroke-width="1" />
<path d="M250.0,-30.0 L250.0,-50.0" stroke="black" stroke-width="1" />
<path d="M270.0,-30.0 L270.0,-50.0" stroke="black" stroke-width="1" />
<path d="M310.0,-30.0 L330.0,-30.0" stroke="black" stroke-width="1" />
<path d="M330.0,-30.0 L350.0,-30.0" stroke="black" stroke-width="1" />
<path d="M350.0,-30.0 L350.0,-50.0" stroke="black" stroke-width="1" />
<path d="M370.0,-30.0 L370.0,-50.0" stroke="black" stroke-width="1" />
<path d="M410.0,-30.0 L410.0,-50.0" stroke="black" stroke-width="1" />
<path d="M430.0,-30.0 L450.0,-30.0" stroke="black" stroke-width="1" />
<path d="M450.0,-30.0 L450.0,-50.0" stroke="black" stroke-width="1" />
<path d="M470.0,-30.0 L490.0,-30.0" stroke="black" stroke-width="1" />
<path d="M490.0,-30.0 L490.0,-50.0" stroke="black" stroke-width="1" />
<path d="M510.0,-30.0 L530.0,-30.0" stroke="black" stroke-width="1" />
<path d="M510.0,-30.0 L510.0,-50.0" stroke="black" stroke-width="1" />
<path d="M550.0,-30.0 L550.0,-50.0" stroke="black" stroke-width="1" />
<path d="M570.0,-30.0 L590.0,-30.0" stroke="black" stroke-width="1" />
<path d="M590.0,-30.0 L610.0,-30.0" stroke="black" stroke-width="1" />
<path d="M610.0,-30.0 L610.0,-50.0" stroke="black" stroke-width="1" />
<path d="M10.0,-50.0 L10.0,-70.0" stroke="black" stroke-width="1" />
<path d="M70.0,-50.0 L70.0,-70.0" stroke="black" stroke-width="1" />
<path d="M90.0,-50.0 L110.0,-50.0" stroke="black" stroke-width="1" />
<path d="M90.0,-50.0 L90.0,-70.0" stroke="black" stroke-width="1" />
<path d="M130.0,-50.0 L150.0,-50.0" stroke="black" stroke-width="1" />
<path d="M130.0,-50.0 L130.0,-70.0" stroke="black" stroke-width="1" />
<path d="M210.0,-50.0 L230.0,-50.0" stroke="black" stroke-width="1" />
<path d="M210.0,-50.0 L210.0,-70.0" stroke="black" stroke-width="1" />
<path d="M230.0,-50.0 L250.0,-50.0" stroke="black" stroke-width="1" />
<path d="M230.0,-50.0 L230.0,-70.0" stroke="black" stroke-width="1" />
<path d="M250.0,-50.0 L270.0,-50.0" stroke="black" stroke-width="1" />
<path d="M270.0,-50.0 L290.0,-50.0" stroke="black" stroke-width="1" />
<path d="M310.0,-50.0 L330.0,-50.0" stroke="black" stroke-width="1" />
<path d="M330.0,-50.0 L350.0,-50.0" stroke="black" stroke-width="1" />
<path d="M350.0,-50.0 L370.0,-50.0" stroke="black" stroke-width="1" />
<path d="M350.0,-50.0 L350.0,-70.0" stroke="black" stroke-width="1" />
<path d="M390.0,-50.0 L410.0,-50.0" stroke="black" stroke-width="1" />
<path d="M410.0,-50.0 L410.0,-70.0" stroke="black" stroke-width="1" />
<path d="M430.0,-50.0 L450.0,-50.0" stroke="black" stroke-width="1" />
<path d="M450.0,-50.0 L470.0,-50.0" stroke="black" stroke-width="1" />
<path d="M510.0,-50.0 L530.0,-50.0" stroke="black" stroke-width="1" />
<path d="M550.0,-50.0 L570.0,-50.0" stroke="black" stroke-width="1" />
<path d="M550.0,-50.0 L550.0,-70.0" stroke="black" stroke-width="1" />
<path d="M570.0,-50.0 L570.0,-70.0" stroke="black" stroke-width="1" />
<path d="M590.0,-50.0 L610.0,-50.0" stroke="black" stroke-width="1" />
<path d="M610.0,-50.0 L610.0,-70.0" stroke="black" stroke-width="1" />
<path d="M10.0,-70.0 L30.0,-70.0" stroke="black" stroke-width="1" />
<path d="M10.0,-70.0 L10.0,-90.0" stroke="black" stroke-width="1" />
<path d="M30.0,-70.0 L50.0,-70.0" stroke="black" stroke-width="1" />
<path d="M70.0,-70.0 L70.0,-90.0" stroke="black" stroke-width="1" />
<path d="M90.0,-70.0 L90.0,-90.0" stroke="black" stroke-width="1" />
<path d="M110.0,-70.0 L130.0,-70.0" stroke="black" stroke-width="1" />
<path d="M150.0,-70.0 L150.0,-90.0" stroke="black" stroke-width="1" />
<path d="M170.0,-70.0 L170.0,-90.0" stroke="black" stroke-width="1" />
<path d="M190.0,-70.0 L190.0,-90.0" stroke="black" stroke-width="1" />
<path d="M210.0,-70.0 L210.0,-90.0" stroke="black" stroke-width="1" />
<path d="M250.0,-70.0 L250.0,-90.0" stroke="black" stroke-width="1" />
<path d="M270.0,-70.0 L290.0,-70.0" stroke="black" stroke-width="1" />
<path d="M290.0,-70.0 L310.0,-70.0" stroke="black" stroke-width="1" />
<path d="M310.0,-70.0 L330.0,-70.0" stroke="black" stroke-width="1" />
<path d="M310.0,-70.0 L310.0,-90.0" stroke="black" stroke-width="1" />
<path d="M350.0,-70.0 L370.0,-70.0" stroke="black" stroke-width="1" />
<path d="M350.0,-70.0 L350.0,-90.0" stroke="black" stroke-width="1" />
<path d="M390.0,-70.0 L410.0,-70.0" stroke="black" stroke-width="1" />
<path d="M410.0,-70.0 L410.0,-90.0" stroke="black" stroke-width="1" />
<path d="M430.0,-70.0 L450.0,-70.0" stroke="black" stroke-width="1" />
<path d="M450.0,-70.0 L470.0,-70.0" stroke="black" stroke-width="1" />
<path d="M450.0,-70.0 L450.0,-90.0" stroke="black" stroke-width="1" />
<path d="M470.0,-70.0 L490.0,-70.0" stroke="black" stroke-width="1" />
<path d="M490.0,-70.0 L490.0,-90.0" stroke="black" stroke-width="1" />
<path d="M510.0,-70.0 L530.0,-70.0" stroke="black" stroke-width="1" />
<path d="M510.0,-70.0 L510.0,-90.0" stroke="black" stroke-width="1" />
<path d="M530.0,-70.0 L530.0,-90.0" stroke="black" stroke-width="1" />
<path d="M550.0,-70.0 L550.0,-90.0" stroke="black" stroke-width="1" />
<path d="M570.0,-70.0 L590.0,-70.0" stroke="black" stroke-width="1" />
<path d="M610.0,-70.0 L610.0,-90.0" stroke="black" stroke-width="1" />
<path d="M10.0,-90.0 L30.0,-90.0" stroke="black" stroke-width="1" />
<path d="M10.0,-90.0 L10.0,-110.0" stroke="black" stroke-width="1" />
<path d="M50.0,-90.0 L70.0,-90.0" stroke="black" stroke-width="1" />
<path d="M70.0,-90.0 L70.0,-110.0" stroke="black" stroke-width="1" />
<path d="M90.0,-90.0 L90.0,-110.0" stroke="black" stroke-width="1" />
<path d="M110.0,-90.0 L110.0,-110.0" stroke="black" stroke-width="1" />
<path d="M130.0,-90.0 L150.0,-90.0" stroke="black" stroke-width="1" />
<path d="M130.0,-90.0 L130.0,-110.0" stroke="black" stroke-width="1" />
<path d="M150.0,-90.0 L170.0,-90.0" stroke="black" stroke-width="1" />
<path d="M190.0,-90.0 L190.0,-110.0" stroke="black" stroke-width="1" />
<path d="M210.0,-90.0 L210.0,-110.0" stroke="black" stroke-width="1" />
<path d="M230.0,-90.0 L230.0,-110.0" stroke="black" stroke-width="1" />
<path d="M250.0,-90.0 L270.0,-90.0" stroke="black" stroke-width="1" />
<path d="M250.0,-90.0 L250.0,-110.0" stroke="black" stroke-width="1" />
<path d="M290.0,-90.0 L310.0,-90.0" stroke="black" stroke-width="1" />
<path d="M290.0,-90.0 L290.0,-110.0" stroke="black" stroke-width="1" />
<path d="M310.0,-90.0 L330.0,-90.0" stroke="black" stroke-width="1" />
<path d="M310.0,-90.0 L310.0,-110.0" stroke="black" stroke-width="1" />
<path d="M330.0,-90.0 L350.0,-90.0" stroke="black" stroke-width="1" />
<path d="M350.0,-90.0 L370.0,-90.0" stroke="black" stroke-width="1" />
<path d="M350.0,-90.0 L350.0,-110.0" stroke="black" stroke-width="1" />
<path d="M390.0,-90.0 L410.0,-90.0" stroke="black" stroke-width="1" />
<path d="M410.0,-90.0 L430.0,-90.0" stroke="black" stroke-width="1" />
<path d="M410.0,-90.0 L410.0,-110.0" stroke="black" stroke-width="1" />
<path d="M450.0,-90.0 L450.0,-110.0" stroke="black" stroke-width="1" />
<path d="M470.0,-90.0 L470.0,-110.0" stroke="black" stroke-width="1" />
<path d="M490.0,-90.0 L490.0,-110.0" stroke="black" stroke-width="1" />
<path d="M510.0,-90.0 L510.0,-110.0" stroke="black" stroke-width="1" />
<path d="M570.0,-90.0 L590.0,-90.0" stroke="black" stroke-width="1" />
<path d="M590.0,-90.0 L610.0,-90.0" stroke="black" stroke-width="1" />
<path d="M610.0,-90.0 L610.0,-110.0" stroke="black" stroke-width="1" />
<path d="M10.0,-110.0 L30.0,-110.0" stroke="black" stroke-width="1" />
<path d="M10.0,-110.0 L10.0,-130.0" stroke="black" stroke-width="1" />
<path d="M50.0,-110.0 L70.0,-110.0" stroke="black" stroke-width="1" />
<path d="M70.0,-110.0 L70.0,-130.0" stroke="black" stroke-width="1" />
<path d="M90.0,-110.0 L90.0,-130.0" stroke="black" stroke-width="1" />
<path d="M110.0,-110.0 L130.0,-110.0" stroke="black" stroke-width="1" />
<path d="M110.0,-110.0 L110.0,-130.0" stroke="black" stroke-width="1" />
<path d="M130.0,-110.0 L130.0,-130.0" stroke="black" stroke-width="1" />
<path d="M150.0,-110.0 L170.0,-110.0" stroke="black" stroke-width="1" />
<path d="M170.0,-110.0 L190.0,-110.0" stroke="black" stroke-width="1" />
<path d="M190.0,-110.0 L190.0,-130.0" stroke="black" stroke-width="1" />
<path d="M210.0,-110.0 L210.0,-130.0" stroke="black" stroke-width="1" />
<path d="M230.0,-110.0 L230.0,-130.0" stroke="black" stroke-width="1" />
<path d="M250.0,-110.0 L250.0,-130.0" stroke="black" stroke-width="1" />
<path d="M270.0,-110.0 L270.0,-130.0" stroke="black" stroke-width="1" />
<path d="M290.0,-110.0 L290.0,-130.0" stroke="black" stroke-width="1" />
<path d="M330.0,-110.0 L350.0,-110.0" stroke="black" stroke-width="1" />
<path d="M350.0,-110.0 L370.0,-110.0" stroke="black" stroke-width="1" />
<path d="M350.0,-110.0 L350.0,-130.0" stroke="black" stroke-width="1" />
<path d="M370.0,-110.0 L390.0,-110.0" stroke="black" stroke-width="1" />
<path d="M410.0,-110.0 L410.0,-130.0" stroke="black" stroke-width="1" />
<path d="M430.0,-110.0 L430.0,-130.0" stroke="black" stroke-width="1" />
<path d="M470.0,-110.0 L470.0,-130.0" stroke="black" stroke-width="1" />
<path d="M490.0,-110.0 L490.0,-130.0" stroke="black" stroke-width="1" />
<path d="M510.0,-110.0 L510.0,-130.0" stroke="black" stroke-width="1" />
<path d="M530.0,-110.0 L550.0,-110.0" stroke="black" stroke-width="1" />
<path d="M550.0,-110.0 L570.0,-110.0" stroke="black" stroke-width="1" />
<path d="M550.0,-110.0 L550.0,-130.0" stroke="black" stroke-width="1" />
<path d="M590.0,-110.0 L590.0,-130.0" stroke="black" stroke-width="1" />
<path d="M610.0,-110.0 L610.0,-130.0" stroke="black" stroke-width="1" />
<path d="M10.0,-130.0 L10.0,-150.0" stroke="black" stroke-width="1" />
<path d="M30.0,-130.0 L30.0,-150.0" stroke="black" stroke-width="1" />
<path d="M50.0,-130.0 L50.0,-150.0" stroke="black" stroke-width="1" />
<path d="M70.0,-130.0 L70.0,-150.0" stroke="black" stroke-width="1" />
<path d="M90.0,-130.0 L90.0,-150.0" stroke="black" stroke-width="1" />
<path d="M110.0,-130.0 L110.0,-150.0" stroke="black" stroke-width="1" />
<path d="M130.0,-130.0 L150.0,-130.0" stroke="black" stroke-width="1" />
<path d="M130.0,-130.0 L130.0,-150.0" stroke="black" stroke-width="1" />
<path d="M170.0,-130.0 L190.0,-130.0" stroke="black" stroke-width="1" />
<path d="M190.0,-130.0 L190.0,-150.0" stroke="black" stroke-width="1" />
<path d="M210.0,-130.0 L230.0,-130.0" stroke="black" stroke-width="1" />
<path d="M250.0,-130.0 L250.0,-150.0" stroke="black" stroke-width="1" />
<path d="M270.0,-130.0 L270.0,-150.0" stroke="black" stroke-width="1" />
<path d="M290.0,-130.0 L290.0,-150.0" stroke="black" stroke-width="1" />
<path d="M310.0,-130.0 L330.0,-130.0" stroke="black" stroke-width="1" />
<path d="M310.0,-130.0 L310.0,-150.0" stroke="black" stroke-width="1" />
<path d="M330.0,-130.0 L330.0,-150.0" stroke="black" stroke-width="1" />
<path d="M350.0,-130.0 L350.0,-150.0" stroke="black" stroke-width="1" />
<path d="M370.0,-130.0 L390.0,-130.0" stroke="black" stroke-width="1" />
<path d="M390.0,-130.0 L410.0,-130.0" stroke="black" stroke-width="1" />
<path d="M410.0,-130.0 L430.0,-130.0" stroke="black" stroke-width="1" />
<path d="M410.0,-130.0 L410.0,-150.0" stroke="black" stroke-width="1" />
<path d="M430.0,-130.0 L450.0,-130.0" stroke="black" stroke-width="1" />
<path d="M430.0,-130.0 L430.0,-150.0" stroke="black" stroke-width="1" />
<path d="M450.0,-130.0 L470.0,-130.0" stroke="black" stroke-width="1" />
<path d="M450.0,-130.0 L450.0,-150.0" stroke="black" stroke-width="1" />
<path d="M470.0,-130.0 L490.0,-130.0" stroke="black" stroke-width="1" />
<path d="M490.0,-130.0 L510.0,-130.0" stroke="black" stroke-width="1" />
<path d="M510.0,-130.0 L530.0,-130.0" stroke="black" stroke-width="1" />
<path d="M530.0,-130.0 L550.0,-130.0" stroke="black" stroke-width="1" />
<path d="M530.0,-130.0 L530.0,-150.0" stroke="black" stroke-width="1" />
<path d="M550.0,-130.0 L570.0,-130.0" stroke="black" stroke-width="1" />
<path d="M550.0,-130.0 L550.0,-150.0" stroke="black" stroke-width="1" />
<path d="M570.0,-130.0 L590.0,-130.0" stroke="black" stroke-width="1" />
<path d="M610.0,-130.0 L610.0,-150.0" stroke="black" stroke-width="1" />
<path d="M10.0,-150.0 L30.0,-150.0" stroke="black" stroke-width="1" />
<path d="M10.0,-150.0 L10.0,-170.0" stroke="black" stroke-width="1" />
<path d="M30.0,-150.0 L50.0,-150.0" stroke="black" stroke-width="1" />
<path d="M50.0,-150.0 L50.0,-170.0" stroke="black" stroke-width="1" />
<path d="M70.0,-150.0 L70.0,-170.0" stroke="black" stroke-width="1" />
<path d="M90.0,-150.0 L90.0,-170.0" stroke="black" stroke-width="1" />
<path d="M130.0,-150.0 L130.0,-170.0" stroke="black" stroke-width="1" />
<path d="M150.0,-150.0 L170.0,-150.0" stroke="black" stroke-width="1" />
<path d="M170.0,-150.0 L170.0,-170.0" stroke="black" stroke-width="1" />
<path d="M190.0,-150.0 L190.0,-170.0" stroke="black" stroke-width="1" />
<path d="M210.0,-150.0 L210.0,-170.0" stroke="black" stroke-width="1" />
<path d="M230.0,-150.0 L250.0,-150.0" stroke="black" stroke-width="1" />
<path d="M250.0,-150.0 L250.0,-170.0" stroke="black" stroke-width="1" />
<path d="M270.0,-150.0 L270.0,-170.0" stroke="black" stroke-width="1" />
<path d="M310.0,-150.0 L310.0,-170.0" stroke="black" stroke-width="1" />
<path d="M330.0,-150.0 L330.0,-170.0" stroke="black" stroke-width="1" />
<path d="M350.0,-150.0 L370.0,-150.0" stroke="black" stroke-width="1" />
<path d="M350.0,-150.0 L350.0,-170.0" stroke="black" stroke-width="1" />
<path d="M390.0,-150.0 L410.0,-150.0" stroke="black" stroke-width="1" />
<path d="M410.0,-150.0 L410.0,-170.0" stroke="black" stroke-width="1" />
<path d="M450.0,-150.0 L470.0,-150.0" stroke="black" stroke-width="1" />
<path d="M490.0,-150.0 L490.0,-170.0" stroke="black" stroke-width="1" />
<path d="M510.0,-150.0 L510.0,-170.0" stroke="black" stroke-width="1" />
<path d="M570.0,-150.0 L590.0,-150.0" stroke="black" stroke-width="1" />
<path d="M590.0,-150.0 L590.0,-170.0" stroke="black" stroke-width="1" />
<path d="M610.0,-150.0 L610.0,-170.0" stroke="black" stroke-width="1" />
<path d="M10.0,-170.0 L10.0,-190.0" stroke="black" stroke-width="1" />
<path d="M30.0,-170.0 L50.0,-170.0" stroke="black" stroke-width="1" />
<path d="M50.0,-170.0 L50.0,-190.0" stroke="black" stroke-width="1" />
<path d="M70.0,-170.0 L70.0,-190.0" stroke="black" stroke-width="1" />
<path d="M90.0,-170.0 L110.0,-170.0" stroke="black" stroke-width="1" />
<path d="M90.0,-170.0 L90.0,-190.0" stroke="black" stroke-width="1" />
<path d="M130.0,-170.0 L150.0,-170.0" stroke="black" stroke-width="1" />
<path d="M130.0,-170.0 L130.0,-190.0" stroke="black" stroke-width="1" />
<path d="M150.0,-170.0 L170.0,-170.0" stroke="black" stroke-width="1" />
<path d="M170.0,-170.0 L190.0,-170.0" stroke="black" stroke-width="1" />
<path d="M190.0,-170.0 L210.0,-170.0" stroke="black" stroke-width="1" />
<path d="M210.0,-170.0 L230.0,-170.0" stroke="black" stroke-width="1" />
<path d="M230.0,-170.0 L250.0,-170.0" stroke="black" stroke-width="1" />
<path d="M230.0,-170.0 L230.0,-190.0" stroke="black" stroke-width="1" />
<path d="M250.0,-170.0 L250.0,-190.0" stroke="black" stroke-width="1" />
<path d="M270.0,-170.0 L270.0,-190.0" stroke="black" stroke-width="1" />
<path d="M290.0,-170.0 L290.0,-190.0" stroke="black" stroke-width="1" />
<path d="M310.0,-170.0 L310.0,-190.0" stroke="black" stroke-width="1" />
<path d="M370.0,-170.0 L390.0,-170.0" stroke="black" stroke-width="1" />
<path d="M390.0,-170.0 L410.0,-170.0" stroke="black" stroke-width="1" />
<path d="M410.0,-170.0 L430.0,-170.0" stroke="black" stroke-width="1" />
<path d="M410.0,-170.0 L410.0,-190.0" stroke="black" stroke-width="1" />
<path d="M430.0,-170.0 L450.0,-170.0" stroke="black" stroke-width="1" />
<path d="M450.0,-170.0 L470.0,-170.0" stroke="black" stroke-width="1" />
<path d="M470.0,-170.0 L490.0,-170.0" stroke="black" stroke-width="1" />
<path d="M490.0,-170.0 L510.0,-170.0" stroke="black" stroke-width="1" />
<path d="M510.0,-170.0 L530.0,-170.0" stroke="black" stroke-width="1" />
<path d="M530.0,-170.0 L550.0,-170.0" stroke="black" stroke-width="1" />
<path d="M550.0,-170.0 L570.0,-170.0" stroke="black" stroke-width="1" />
<path d="M570.0,-170.0 L590.0,-170.0" stroke="black" stroke-width="1" />
<path d="M610.0,-170.0 L610.0,-190.0" stroke="black" stroke-width="1" />
<path d="M10.0,-190.0 L30.0,-190.0" stroke="black" stroke-width="1" />
<path d="M10.0,-190.0 L10.0,-210.0" stroke="black" stroke-width="1" />
<path d="M70.0,-190.0 L70.0,-210.0" stroke="black" stroke-width="1" />
<path d="M110.0,-190.0 L110.0,-210.0" stroke="black" stroke-width="1" />
<path d="M150.0,-190.0 L170.0,-190.0" stroke="black" stroke-width="1" />
<path d="M170.0,-190.0 L170.0,-210.0" stroke="black" stroke-width="1" />
<path d="M190.0,-190.0 L210.0,-190.0" stroke="black" stroke-width="1" />
<path d="M210.0,-190.0 L210.0,-210.0" stroke="black" stroke-width="1" />
<path d="M250.0,-190.0 L270.0,-190.0" stroke="black" stroke-width="1" />
<path d="M250.0,-190.0 L250.0,-210.0" stroke="black" stroke-width="1" />
<path d="M270.0,-190.0 L290.0,-190.0" stroke="black" stroke-width="1" />
<path d="M290.0,-190.0 L310.0,-190.0" stroke="black" stroke-width="1" />
<path d="M290.0,-190.0 L290.0,-210.0" stroke="black" stroke-width="1" />
<path d="M310.0,-190.0 L330.0,-190.0" stroke="black" stroke-width="1" />
<path d="M330.0,-190.0 L350.0,-190.0" stroke="black" stroke-width="1" />
<path d="M350.0,-190.0 L370.0,-190.0" stroke="black" stroke-width="1" />
<path d="M350.0,-190.0 L350.0,-210.0" stroke="black" stroke-width="1" />
<path d="M370.0,-190.0 L390.0,-190.0" stroke="black" stroke-width="1" />
<path d="M370.0,-190.0 L370.0,-210.0" stroke="black" stroke-width="1" />
<path d="M390.0,-190.0 L410.0,-190.0" stroke="black" stroke-width="1" />
<path d="M410.0,-190.0 L430.0,-190.0" stroke="black" stroke-width="1" />
<path d="M410.0,-190.0 L410.0,-210.0" stroke="black" stroke-width="1" />
<path d="M430.0,-190.0 L450.0,-190.0" stroke="black" stroke-width="1" />
<path d="M450.0,-190.0 L470.0,-190.0" stroke="black" stroke-width="1" />
<path d="M450.0,-190.0 L450.0,-210.0" stroke="black" stroke-width="1" />
<path d="M470.0,-190.0 L490.0,-190.0" stroke="black" stroke-width="1" />
<path d="M490.0,-190.0 L510.0,-190.0" stroke="black" stroke-width="1" />
<path d="M490.0,-190.0 L490.0,-210.0" stroke="black" stroke-width="1" />
<path d="M510.0,-190.0 L530.0,-190.0" stroke="black" stroke-width="1" />
<path d="M530.0,-190.0 L530.0,-210.0" stroke="black" stroke-width="1" />
<path d="M550.0,-190.0 L570.0,-190.0" stroke="black" stroke-width="1" />
<path d="M550.0,-190.0 L550.0,-210.0" stroke="black" stroke-width="1" />
<path d="M570.0,-190.0 L590.0,-190.0" stroke="black" stroke-width="1" />
<path d="M570.0,-190.0 L570.0,-210.0" stroke="black" stroke-width="1" />
<path d="M590.0,-190.0 L610.0,-190.0" stroke="black" stroke-width="1" />
<path d="M610.0,-190.0 L610.0,-210.0" stroke="black" stroke-width="1" />
<path d="M10.0,-210.0 L30.0,-210.0" stroke="black" stroke-width="1" />
<path d="M10.0,-210.0 L10.0,-230.0" stroke="black" stroke-width="1" />
<path d="M50.0,-210.0 L70.0,-210.0" stroke="black" stroke-width="1" />
<path d="M90.0,-210.0 L110.0,-210.0" stroke="black" stroke-width="1" />
<path d="M90.0,-210.0 L90.0,-230.0" stroke="black" stroke-width="1" />
<path d="M110.0,-210.0 L130.0,-210.0" stroke="black" stroke-width="1" />
<path d="M130.0,-210.0 L150.0,-210.0" stroke="black" stroke-width="1" />
<path d="M150.0,-210.0 L170.0,-210.0" stroke="black" stroke-width="1" />
<path d="M170.0,-210.0 L190.0,-210.0" stroke="black" stroke-width="1" />
<path d="M170.0,-210.0 L170.0,-230.0" stroke="black" stroke-width="1" />
<path d="M190.0,-210.0 L210.0,-210.0" stroke="black" stroke-width="1" />
<path d="M210.0,-210.0 L210.0,-230.0" stroke="black" stroke-width="1" />
<path d="M230.0,-210.0 L250.0,-210.0" stroke="black" stroke-width="1" />
<path d="M250.0,-210.0 L250.0,-230.0" stroke="black" stroke-width="1" />
<path d="M270.0,-210.0 L270.0,-230.0" stroke="black" stroke-width="1" />
<path d="M290.0,-210.0 L310.0,-210.0" stroke="black" stroke-width="1" />
<path d="M310.0,-210.0 L330.0,-210.0" stroke="black" stroke-width="1" />
<path d="M390.0,-210.0 L390.0,-230.0" stroke="black" stroke-width="1" />
<path d="M430.0,-210.0 L430.0,-230.0" stroke="black" stroke-width="1" />
<path d="M450.0,-210.0 L450.0,-230.0" stroke="black" stroke-width="1" />
<path d="M470.0,-210.0 L470.0,-230.0" stroke="black" stroke-width="1" />
<path d="M490.0,-210.0 L510.0,-210.0" stroke="black" stroke-width="1" />
<path d="M530.0,-210.0 L530.0,-230.0" stroke="black" stroke-width="1" />
<path d="M590.0,-210.0 L590.0,-230.0" stroke="black" stroke-width="1" />
<path d="M610.0,-210.0 L610.0,-230.0" stroke="black" stroke-width="1" />
<path d="M10.0,-230.0 L30.0,-230.0" stroke="black" stroke-width="1" />
<path d="M10.0,-230.0 L10.0,-250.0" stroke="black" stroke-width="1" />
<path d="M30.0,-230.0 L50.0,-230.0" stroke="black" stroke-width="1" />
<path d="M70.0,-230.0 L70.0,-250.0" stroke="black" stroke-width="1" />
<path d="M90.0,-230.0 L110.0,-230.0" stroke="black" stroke-width="1" />
<path d="M90.0,-230.0 L90.0,-250.0" stroke="black" stroke-width="1" />
<path d="M110.0,-230.0 L130.0,-230.0" stroke="black" stroke-width="1" />
<path d="M110.0,-230.0 L110.0,-250.0" stroke="black" stroke-width="1" />
<path d="M130.0,-230.0 L150.0,-230.0" stroke="black" stroke-width="1" />
<path d="M130.0,-230.0 L130.0,-250.0" stroke="black" stroke-width="1" />
<path d="M170.0,-230.0 L170.0,-250.0" stroke="black" stroke-width="1" />
<path d="M190.0,-230.0 L210.0,-230.0" stroke="black" stroke-width="1" />
<path d="M210.0,-230.0 L230.0,-230.0" stroke="black" stroke-width="1" />
<path d="M250.0,-230.0 L270.0,-230.0" stroke="black" stroke-width="1" />
<path d="M250.0,-230.0 L250.0,-250.0" stroke="black" stroke-width="1" />
<path d="M270.0,-230.0 L290.0,-230.0" stroke="black" stroke-width="1" />
<path d="M290.0,-230.0 L310.0,-230.0" stroke="black" stroke-width="1" />
<path d="M310.0,-230.0 L330.0,-230.0" stroke="black" stroke-width="1" />
<path d="M310.0,-230.0 L310.0,-250.0" stroke="black" stroke-width="1" />
<path d="M330.0,-230.0 L350.0,-230.0" stroke="black" stroke-width="1" />
<path d="M370.0,-230.0 L390.0,-230.0" stroke="black" stroke-width="1" />
<path d="M370.0,-230.0 L370.0,-250.0" stroke="black" stroke-width="1" />
<path d="M390.0,-230.0 L410.0,-230.0" stroke="black" stroke-width="1" />
<path d="M410.0,-230.0 L430.0,-230.0" stroke="black" stroke-width="1" />
<path d="M430.0,-230.0 L450.0,-230.0" stroke="black" stroke-width="1" />
<path d="M450.0,-230.0 L450.0,-250.0" stroke="black" stroke-width="1" />
<path d="M470.0,-230.0 L490.0,-230.0" stroke="black" stroke-width="1" />
<path d="M490.0,-230.0 L490.0,-250.0" stroke="black" stroke-width="1" />
<path d="M510.0,-230.0 L530.0,-230.0" stroke="black" stroke-width="1" />
<path d="M530.0,-230.0 L550.0,-230.0" stroke="black" stroke-width="1" />
<path d="M530.0,-230.0 L530.0,-250.0" stroke="black" stroke-width="1" />
<path d="M550.0,-230.0 L570.0,-230.0" stroke="black" stroke-width="1" />
<path d="M550.0,-230.0 L550.0,-250.0" stroke="black" stroke-width="1" />
<path d="M590.0,-230.0 L610.0,-230.0" stroke="black" stroke-width="1" />
<path d="M610.0,-230.0 L610.0,-250.0" stroke="black" stroke-width="1" />
<path d="M10.0,-250.0 L10.0,-270.0" stroke="black" stroke-width="1" />
<path d="M30.0,-250.0 L30.0,-270.0" stroke="black" stroke-width="1" />
<path d="M50.0,-250.0 L50.0,-270.0" stroke="black" stroke-width="1" />
<path d="M70.0,-250.0 L70.0,-270.0" stroke="black" stroke-width="1" />
<path d="M90.0,-250.0 L90.0,-270.0" stroke="black" stroke-width="1" />
<path d="M150.0,-250.0 L170.0,-250.0" stroke="black" stroke-width="1" />
<path d="M170.0,-250.0 L190.0,-250.0" stroke="black" stroke-width="1" />
<path d="M210.0,-250.0 L230.0,-250.0" stroke="black" stroke-width="1" />
<path d="M210.0,-250.0 L210.0,-270.0" stroke="black" stroke-width="1" />
<path d="M250.0,-250.0 L270.0,-250.0" stroke="black" stroke-width="1" />
<path d="M250.0,-250.0 L250.0,-270.0" stroke="black" stroke-width="1" />
<path d="M290.0,-250.0 L290.0,-270.0" stroke="black" stroke-width="1" />
<path d="M330.0,-250.0 L330.0,-270.0" stroke="black" stroke-width="1" />
<path d="M350.0,-250.0 L350.0,-270.0" stroke="black" stroke-width="1" />
<path d="M370.0,-250.0 L390.0,-250.0" stroke="black" stroke-width="1" />
<path d="M410.0,-250.0 L430.0,-250.0" stroke="black" stroke-width="1" />
<path d="M430.0,-250.0 L450.0,-250.0" stroke="black" stroke-width="1" />
<path d="M470.0,-250.0 L470.0,-270.0" stroke="black" stroke-width="1" />
<path d="M490.0,-250.0 L510.0,-250.0" stroke="black" stroke-width="1" />
<path d="M490.0,-250.0 L490.0,-270.0" stroke="black" stroke-width="1" />
<path d="M570.0,-250.0 L570.0,-270.0" stroke="black" stroke-width="1" />
<path d="M590.0,-250.0 L610.0,-250.0" stroke="black" stroke-width="1" />
<path d="M610.0,-250.0 L610.0,-270.0" stroke="black" stroke-width="1" />
<path d="M10.0,-270.0 L30.0,-270.0" stroke="black" stroke-width="1" />
<path d="M10.0,-270.0 L10.0,-290.0" stroke="black" stroke-width="1" />
<path d="M30.0,-270.0 L50.0,-270.0" stroke="black" stroke-width="1" />
<path d="M50.0,-270.0 L70.0,-270.0" stroke="black" stroke-width="1" />
<path d="M50.0,-270.0 L50.0,-290.0" stroke="black" stroke-width="1" />
<path d="M70.0,-270.0 L90.0,-270.0" stroke="black" stroke-width="1" />
<path d="M110.0,-270.0 L130.0,-270.0" stroke="black" stroke-width="1" />
<path d="M130.0,-270.0 L150.0,-270.0" stroke="black" stroke-width="1" />
<path d="M150.0,-270.0 L170.0,-270.0" stroke="black" stroke-width="1" />
<path d="M170.0,-270.0 L190.0,-270.0" stroke="black" stroke-width="1" />
<path d="M170.0,-270.0 L170.0,-290.0" stroke="black" stroke-width="1" />
<path d="M190.0,-270.0 L210.0,-270.0" stroke="black" stroke-width="1" />
<path d="M210.0,-270.0 L230.0,-270.0" stroke="black" stroke-width="1" />
<path d="M210.0,-270.0 L210.0,-290.0" stroke="black" stroke-width="1" />
<path d="M230.0,-270.0 L250.0,-270.0" stroke="black" stroke-width="1" />
<path d="M250.0,-270.0 L270.0,-270.0" stroke="black" stroke-width="1" />
<path d="M270.0,-270.0 L290.0,-270.0" stroke="black" stroke-width="1" />
<path d="M290.0,-270.0 L310.0,-270.0" stroke="black" stroke-width="1" />
<path d="M290.0,-270.0 L290.0,-290.0" stroke="black" stroke-width="1" />
<path d="M310.0,-270.0 L330.0,-270.0" stroke="black" stroke-width="1" />
<path d="M330.0,-270.0 L350.0,-270.0" stroke="black" stroke-width="1" />
<path d="M350.0,-270.0 L370.0,-270.0" stroke="black" stroke-width="1" />
<path d="M370.0,-270.0 L390.0,-270.0" stroke="black" stroke-width="1" />
<path d="M390.0,-270.0 L410.0,-270.0" stroke="black" stroke-width="1" />
<path d="M390.0,-270.0 L390.0,-290.0" stroke="black" stroke-width="1" />
<path d="M410.0,-270.0 L430.0,-270.0" stroke="black" stroke-width="1" />
<path d="M430.0,-270.0 L450.0,-270.0" stroke="black" stroke-width="1" />
<path d="M450.0,-270.0 L470.0,-270.0" stroke="black" stroke-width="1" />
<path d="M450.0,-270.0 L450.0,-290.0" stroke="black" stroke-width="1" />
<path d="M470.0,-270.0 L490.0,-270.0" stroke="black" stroke-width="1" />
<path d="M490.0,-270.0 L510.0,-270.0" stroke="black" stroke-width="1" />
<path d="M510.0,-270.0 L530.0,-270.0" stroke="black" stroke-width="1" />
<path d="M530.0,-270.0 L550.0,-270.0" stroke="black" stroke-width="1" />
<path d="M550.0,-270.0 L570.0,-270.0" stroke="black" stroke-width="1" />
<path d="M550.0,-270.0 L550.0,-290.0" stroke="black" stroke-width="1" />
<path d="M570.0,-270.0 L590.0,-270.0" stroke="black" stroke-width="1" />
<path d="M570.0,-270.0 L570.0,-290.0" stroke="black" stroke-width="1" />
<path d="M590.0,-270.0 L610.0,-270.0" stroke="black" stroke-width="1" />
<path d="M590.0,-270.0 L590.0,-290.0" stroke="black" stroke-width="1" />
<path d="M610.0,-270.0 L610.0,-290.0" stroke="black" stroke-width="1" />
<path d="M10.0,-290.0 L10.0,-310.0" stroke="black" stroke-width="1" />
<path d="M30.0,-290.0 L30.0,-310.0" stroke="black" stroke-width="1" />
<path d="M50.0,-290.0 L50.0,-310.0" stroke="black" stroke-width="1" />
<path d="M70.0,-290.0 L70.0,-310.0" stroke="black" stroke-width="1" />
<path d="M90.0,-290.0 L90.0,-310.0" stroke="black" stroke-width="1" />
<path d="M110.0,-290.0 L110.0,-310.0" stroke="black" stroke-width="1" />
<path d="M130.0,-290.0 L130.0,-310.0" stroke="black" stroke-width="1" />
<path d="M150.0,-290.0 L170.0,-290.0" stroke="black" stroke-width="1" />
<path d="M170.0,-290.0 L190.0,-290.0" stroke="black" stroke-width="1" />
<path d="M210.0,-290.0 L210.0,-310.0" stroke="black" stroke-width="1" />
<path d="M230.0,-290.0 L230.0,-310.0" stroke="black" stroke-width="1" />
<path d="M250.0,-290.0 L270.0,-290.0" stroke="black" stroke-width="1" />
<path d="M270.0,-290.0 L270.0,-310.0" stroke="black" stroke-width="1" />
<path d="M290.0,-290.0 L310.0,-290.0" stroke="black" stroke-width="1" />
<path d="M290.0,-290.0 L290.0,-310.0" stroke="black" stroke-width="1" />
<path d="M310.0,-290.0 L330.0,-290.0" stroke="black" stroke-width="1" />
<path d="M350.0,-290.0 L370.0,-290.0" stroke="black" stroke-width="1" />
<path d="M350.0,-290.0 L350.0,-310.0" stroke="black" stroke-width="1" />
<path d="M370.0,-290.0 L390.0,-290.0" stroke="black" stroke-width="1" />
<path d="M390.0,-290.0 L410.0,-290.0" stroke="black" stroke-width="1" />
<path d="M430.0,-290.0 L450.0,-290.0" stroke="black" stroke-width="1" />
<path d="M450.0,-290.0 L470.0,-290.0" stroke="black" stroke-width="1" />
<path d="M450.0,-290.0 L450.0,-310.0" stroke="black" stroke-width="1" />
<path d="M470.0,-290.0 L490.0,-290.0" stroke="black" stroke-width="1" />
<path d="M490.0,-290.0 L510.0,-290.0" stroke="black" stroke-width="1" />
<path d="M530.0,-290.0 L530.0,-310.0" stroke="black" stroke-width="1" />
<path d="M570.0,-290.0 L570.0,-310.0" stroke="black" stroke-width="1" />
<path d="M590.0,-290.0 L590.0,-310.0" stroke="black" stroke-width="1" />
<path d="M610.0,-290.0 L610.0,-310.0" stroke="black" stroke-width="1" />
<path d="M10.0,-310.0 L30.0,-310.0" stroke="black" stroke-width="1" />
<path d="M10.0,-310.0 L10.0,-330.0" stroke="black" stroke-width="1" />
<path d="M50.0,-310.0 L50.0,-330.0" stroke="black" stroke-width="1" />
<path d="M70.0,-310.0 L90.0,-310.0" stroke="black" stroke-width="1" />
<path d="M90.0,-310.0 L110.0,-310.0" stroke="black" stroke-width="1" />
<path d="M90.0,-310.0 L90.0,-330.0" stroke="black" stroke-width="1" />
<path d="M110.0,-310.0 L110.0,-330.0" stroke="black" stroke-width="1" />
<path d="M130.0,-310.0 L150.0,-310.0" stroke="black" stroke-width="1" />
<path d="M130.0,-310.0 L130.0,-330.0" stroke="black" stroke-width="1" />
<path d="M170.0,-310.0 L190.0,-310.0" stroke="black" stroke-width="1" />
<path d="M170.0,-310.0 L170.0,-330.0" stroke="black" stroke-width="1" />
<path d="M190.0,-310.0 L190.0,-330.0" stroke="black" stroke-width="1" />
<path d="M210.0,-310.0 L210.0,-330.0" stroke="black" stroke-width="1" />
<path d="M230.0,-310.0 L250.0,-310.0" stroke="black" stroke-width="1" />
<path d="M250.0,-310.0 L270.0,-310.0" stroke="black" stroke-width="1" />
<path d="M270.0,-310.0 L270.0,-330.0" stroke="black" stroke-width="1" />
<path d="M290.0,-310.0 L290.0,-330.0" stroke="black" stroke-width="1" />
<path d="M310.0,-310.0 L330.0,-310.0" stroke="black" stroke-width="1" />
<path d="M330.0,-310.0 L330.0,-330.0" stroke="black" stroke-width="1" />
<path d="M370.0,-310.0 L390.0,-310.0" stroke="black" stroke-width="1" />
<path d="M390.0,-310.0 L390.0,-330.0" stroke="black" stroke-width="1" />
<path d="M410.0,-310.0 L430.0,-310.0" stroke="black" stroke-width="1" />
<path d="M430.0,-310.0 L450.0,-310.0" stroke="black" stroke-width="1" />
<path d="M450.0,-310.0 L470.0,-310.0" stroke="black" stroke-width="1" />
<path d="M450.0,-310.0 L450.0,-330.0" stroke="black" stroke-width="1" />
<path d="M490.0,-310.0 L510.0,-310.0" stroke="black" stroke-width="1" />
<path d="M510.0,-310.0 L530.0,-310.0" stroke="black" stroke-width="1" />
<path d="M530.0,-310.0 L550.0,-310.0" stroke="black" stroke-width="1" />
<path d="M530.0,-310.0 L530.0,-330.0" stroke="black" stroke-width="1" />
<path d="M590.0,-310.0 L590.0,-330.0" stroke="black" stroke-width="1" />
<path d="M610.0,-310.0 L610.0,-330.0" stroke="black" stroke-width="1" />
<path d="M10.0,-330.0 L30.0,-330.0" stroke="black" stroke-width="1" />
<path d="M10.0,-330.0 L10.0,-350.0" stroke="black" stroke-width="1" />
<path d="M70.0,-330.0 L70.0,-350.0" stroke="black" stroke-width="1" />
<path d="M90.0,-330.0 L90.0,-350.0" stroke="black" stroke-width="1" />
<path d="M130.0,-330.0 L130.0,-350.0" stroke="black" stroke-width="1" />
<path d="M150.0,-330.0 L150.0,-350.0" stroke="black" stroke-width="1" />
<path d="M170.0,-330.0 L170.0,-350.0" stroke="black" stroke-width="1" />
<path d="M230.0,-330.0 L250.0,-330.0" stroke="black" stroke-width="1" />
<path d="M250.0,-330.0 L270.0,-330.0" stroke="black" stroke-width="1" />
<path d="M270.0,-330.0 L270.0,-350.0" stroke="black" stroke-width="1" />
<path d="M290.0,-330.0 L310.0,-330.0" stroke="black" stroke-width="1" />
<path d="M290.0,-330.0 L290.0,-350.0" stroke="black" stroke-width="1" />
<path d="M310.0,-330.0 L330.0,-330.0" stroke="black" stroke-width="1" />
<path d="M310.0,-330.0 L310.0,-350.0" stroke="black" stroke-width="1" />
<path d="M330.0,-330.0 L350.0,-330.0" stroke="black" stroke-width="1" />
<path d="M350.0,-330.0 L370.0,-330.0" stroke="black" stroke-width="1" />
<path d="M370.0,-330.0 L390.0,-330.0" stroke="black" stroke-width="1" />
<path d="M370.0,-330.0 L370.0,-350.0" stroke="black" stroke-width="1" />
<path d="M390.0,-330.0 L410.0,-330.0" stroke="black" stroke-width="1" />
<path d="M390.0,-330.0 L390.0,-350.0" stroke="black" stroke-width="1" />
<path d="M410.0,-330.0 L430.0,-330.0" stroke="black" stroke-width="1" />
<path d="M410.0,-330.0 L410.0,-350.0" stroke="black" stroke-width="1" />
<path d="M450.0,-330.0 L450.0,-350.0" stroke="black" stroke-width="1" />
<path d="M470.0,-330.0 L490.0,-330.0" stroke="black" stroke-width="1" />
<path d="M490.0,-330.0 L490.0,-350.0" stroke="black" stroke-width="1" />
<path d="M510.0,-330.0 L530.0,-330.0" stroke="black" stroke-width="1" />
<path d="M530.0,-330.0 L530.0,-350.0" stroke="black" stroke-width="1" />
<path d="M550.0,-330.0 L570.0,-330.0" stroke="black" stroke-width="1" />
<path d="M570.0,-330.0 L570.0,-350.0" stroke="black" stroke-width="1" />
<path d="M610.0,-330.0 L610.0,-350.0" stroke="black" stroke-width="1" />
<path d="M10.0,-350.0 L30.0,-350.0" stroke="black" stroke-width="1" />
<path d="M10.0,-350.0 L10.0,-370.0" stroke="black" stroke-width="1" />
<path d="M50.0,-350.0 L50.0,-370.0" stroke="black" stroke-width="1" />
<path d="M70.0,-350.0 L90.0,-350.0" stroke="black" stroke-width="1" />
<path d="M90.0,-350.0 L110.0,-350.0" stroke="black" stroke-width="1" />
<path d="M90.0,-350.0 L90.0,-370.0" stroke="black" stroke-width="1" />
<path d="M110.0,-350.0 L130.0,-350.0" stroke="black" stroke-width="1" />
<path d="M130.0,-350.0 L130.0,-370.0" stroke="black" stroke-width="1" />
<path d="M150.0,-350.0 L170.0,-350.0" stroke="black" stroke-width="1" />
<path d="M150.0,-350.0 L150.0,-370.0" stroke="black" stroke-width="1" />
<path d="M170.0,-350.0 L190.0,-350.0" stroke="black" stroke-width="1" />
<path d="M190.0,-350.0 L210.0,-350.0" stroke="black" stroke-width="1" />
<path d="M210.0,-350.0 L230.0,-350.0" stroke="black" stroke-width="1" />
<path d="M230.0,-350.0 L250.0,-350.0" stroke="black" stroke-width="1" />
<path d="M250.0,-350.0 L270.0,-350.0" stroke="black" stroke-width="1" />
<path d="M270.0,-350.0 L270.0,-370.0" stroke="black" stroke-width="1" />
<path d="M290.0,-350.0 L290.0,-370.0" stroke="black" stroke-width="1" />
<path d="M330.0,-350.0 L330.0,-370.0" stroke="black" stroke-width="1" />
<path d="M350.0,-350.0 L350.0,-370.0" stroke="black" stroke-width="1" />
<path d="M370.0,-350.0 L370.0,-370.0" stroke="black" stroke-width="1" />
<path d="M390.0,-350.0 L390.0,-370.0" stroke="black" stroke-width="1" />
<path d="M410.0,-350.0 L430.0,-350.0" stroke="black" stroke-width="1" />
<path d="M450.0,-350.0 L470.0,-350.0" stroke="black" stroke-width="1" />
<path d="M450.0,-350.0 L450.0,-370.0" stroke="black" stroke-width="1" />
<path d="M470.0,-350.0 L490.0,-350.0" stroke="black" stroke-width="1" />
<path d="M470.0,-350.0 L470.0,-370.0" stroke="black" stroke-width="1" />
<path d="M490.0,-350.0 L490.0,-370.0" stroke="black" stroke-width="1" />
<path d="M510.0,-350.0 L530.0,-350.0" stroke="black" stroke-width="1" />
<path d="M530.0,-350.0 L550.0,-350.0" stroke="black" stroke-width="1" />
<path d="M550.0,-350.0 L570.0,-350.0" stroke="black" stroke-width="1" />
<path d="M570.0,-350.0 L590.0,-350.0" stroke="black" stroke-width="1" />
<path d="M590.0,-350.0 L610.0,-350.0" stroke="black" stroke-width="1" />
<path d="M590.0,-350.0 L590.0,-370.0" stroke="black" stroke-width="1" />
<path d="M610.0,-350.0 L610.0,-370.0" stroke="black" stroke-width="1" />
<path d="M10.0,-370.0 L30.0,-370.0" stroke="black" stroke-width="1" />
<path d="M10.0,-370.0 L10.0,-390.0" stroke="black" stroke-width="1" />
<path d="M30.0,-370.0 L30.0,-390.0" stroke="black" stroke-width="1" />
<path d="M50.0,-370.0 L70.0,-370.0" stroke="black" stroke-width="1" />
<path d="M50.0,-370.0 L50.0,-390.0" stroke="black" stroke-width="1" />
<path d="M90.0,-370.0 L90.0,-390.0" stroke="black" stroke-width="1" />
<path d="M110.0,-370.0 L110.0,-390.0" stroke="black" stroke-width="1" />
<path d="M150.0,-370.0 L150.0,-390.0" stroke="black" stroke-width="1" />
<path d="M170.0,-370.0 L170.0,-390.0" stroke="black" stroke-width="1" />
<path d="M190.0,-370.0 L210.0,-370.0" stroke="black" stroke-width="1" />
<path d="M210.0,-370.0 L210.0,-390.0" stroke="black" stroke-width="1" />
<path d="M230.0,-370.0 L250.0,-370.0" stroke="black" stroke-width="1" />
<path d="M250.0,-370.0 L270.0,-370.0" stroke="black" stroke-width="1" />
<path d="M270.0,-370.0 L270.0,-390.0" stroke="black" stroke-width="1" />
<path d="M290.0,-370.0 L290.0,-390.0" stroke="black" stroke-width="1" />
<path d="M310.0,-370.0 L330.0,-370.0" stroke="black" stroke-width="1" />
<path d="M310.0,-370.0 L310.0,-390.0" stroke="black" stroke-width="1" />
<path d="M330.0,-370.0 L330.0,-390.0" stroke="black" stroke-width="1" />
<path d="M350.0,-370.0 L350.0,-390.0" stroke="black" stroke-width="1" />
<path d="M370.0,-370.0 L370.0,-390.0" stroke="black" stroke-width="1" />
<path d="M390.0,-370.0 L410.0,-370.0" stroke="black" stroke-width="1" />
<path d="M390.0,-370.0 L390.0,-390.0" stroke="black" stroke-width="1" />
<path d="M410.0,-370.0 L430.0,-370.0" stroke="black" stroke-width="1" />
<path d="M450.0,-370.0 L450.0,-390.0" stroke="black" stroke-width="1" />
<path d="M510.0,-370.0 L510.0,-390.0" stroke="black" stroke-width="1" />
<path d="M530.0,-370.0 L530.0,-390.0" stroke="black" stroke-width="1" />
<path d="M550.0,-370.0 L570.0,-370.0" stroke="black" stroke-width="1" />
<path d="M570.0,-370.0 L590.0,-370.0" stroke="black" stroke-width="1" />
<path d="M590.0,-370.0 L590.0,-390.0" stroke="black" stroke-width="1" />
<path d="M610.0,-370.0 L610.0,-390.0" stroke="black" stroke-width="1" />
<path d="M10.0,-390.0 L10.0,-410.0" stroke="black" stroke-width="1" />
<path d="M50.0,-390.0 L50.0,-410.0" stroke="black" stroke-width="1" />
<path d="M70.0,-390.0 L70.0,-410.0" stroke="black" stroke-width="1" />
<path d="M90.0,-390.0 L110.0,-390.0" stroke="black" stroke-width="1" />
<path d="M90.0,-390.0 L90.0,-410.0" stroke="black" stroke-width="1" />
<path d="M110.0,-390.0 L130.0,-390.0" stroke="black" stroke-width="1" />
<path d="M170.0,-390.0 L170.0,-410.0" stroke="black" stroke-width="1" />
<path d="M190.0,-390.0 L210.0,-390.0" stroke="black" stroke-width="1" />
<path d="M210.0,-390.0 L210.0,-410.0" stroke="black" stroke-width="1" />
<path d="M230.0,-390.0 L250.0,-390.0" stroke="black" stroke-width="1" />
<path d="M250.0,-390.0 L250.0,-410.0" stroke="black" stroke-width="1" />
<path d="M270.0,-390.0 L270.0,-410.0" stroke="black" stroke-width="1" />
<path d="M330.0,-390.0 L330.0,-410.0" stroke="black" stroke-width="1" />
<path d="M350.0,-390.0 L350.0,-410.0" stroke="black" stroke-width="1" />
<path d="M410.0,-390.0 L430.0,-390.0" stroke="black" stroke-width="1" />
<path d="M430.0,-390.0 L450.0,-390.0" stroke="black" stroke-width="1" />
<path d="M450.0,-390.0 L470.0,-390.0" stroke="black" stroke-width="1" />
<path d="M490.0,-390.0 L510.0,-390.0" stroke="black" stroke-width="1" />
<path d="M510.0,-390.0 L530.0,-390.0" stroke="black" stroke-width="1" />
<path d="M530.0,-390.0 L550.0,-390.0" stroke="black" stroke-width="1" />
<path d="M530.0,-390.0 L530.0,-410.0" stroke="black" stroke-width="1" />
<path d="M570.0,-390.0 L590.0,-390.0" stroke="black" stroke-width="1" />
<path d="M610.0,-390.0 L610.0,-410.0" stroke="black" stroke-width="1" />
<path d="M10.0,-410.0 L30.0,-410.0" stroke="black" stroke-width="1" />
<path d="M30.0,-410.0 L50.0,-410.0" stroke="black" stroke-width="1" />
<path d="M50.0,-410.0 L70.0,-410.0" stroke="black" stroke-width="1" />
<path d="M70.0,-410.0 L90.0,-410.0" stroke="black" stroke-width="1" />
<path d="M90.0,-410.0 L110.0,-410.0" stroke="black" stroke-width="1" />
<path d="M110.0,-410.0 L130.0,-410.0" stroke="black" stroke-width="1" />
<path d="M130.0,-410.0 L150.0,-410.0" stroke="black" stroke-width="1" />
<path d="M150.0,-410.0 L170.0,-410.0" stroke="black" stroke-width="1" />
<path d="M170.0,-410.0 L190.0,-410.0" stroke="black" stroke-width="1" />
<path d="M190.0,-410.0 L210.0,-410.0" stroke="black" stroke-width="1" />
<path d="M210.0,-410.0 L230.0,-410.0" stroke="black" stroke-width="1" />
<path d="M230.0,-410.0 L250.0,-410.0" stroke="black" stroke-width="1" />
<path d="M250.0,-410.0 L270.0,-410.0" stroke="black" stroke-width="1" />
<path d="M270.0,-410.0 L290.0,-410.0" stroke="black" stroke-width="1" />
<path d="M290.0,-410.0 L310.0,-410.0" stroke="black" stroke-width="1" />
<path d="M310.0,-410.0 L330.0,-410.0" stroke="black" stroke-width="1" />
<path d="M330.0,-410.0 L350.0,-410.0" stroke="black" stroke-width="1" />
<path d="M350.0,-410.0 L370.0,-410.0" stroke="black" stroke-width="1" />
<path d="M370.0,-410.0 L390.0,-410.0" stroke="black" stroke-width="1" />
<path d="M390.0,-410.0 L410.0,-410.0" stroke="black" stroke-width="1" />
<path d="M410.0,-410.0 L430.0,-410.0" stroke="black" stroke-width="1" />
<path d="M430.0,-410.0 L450.0,-410.0" stroke="black" stroke-width="1" />
<path d="M450.0,-410.0 L470.0,-410.0" stroke="black" stroke-width="1" />
<path d="M470.0,-410.0 L490.0,-410.0" stroke="black" stroke-width="1" />
<path d="M490.0,-410.0 L510.0,-410.0" stroke="black" stroke-width="1" />
<path d="M510.0,-410.0 L530.0,-410.0" stroke="black" stroke-width="1" />
<path d="M530.0,-410.0 L550.0,-410.0" stroke="black" stroke-width="1" />
<path d="M550.0,-410.0 L570.0,-410.0" stroke="black" stroke-width="1" />
<path d="M570.0,-410.0 L590.0,-410.0" stroke="black" stroke-width="1" />
<path d="M590.0,-410.0 L610.0,-410.0" stroke="black" stroke-width="1" />
</svg>