<svg xmlns="http://www.w3.org/2000/svg" width="640" height="640">
<polygon points="5 5 15 5 15 15 5 15 " fill="#ffd0d0"/>
<polygon points="5 25 15 25 15 35 5 35 " fill="#ffd0d0"/>
<polygon points="25 5 35 5 35 15 25 15 " fill="#ffd0d0"/>
<polygon points="25 25 35 25 35 35 25 35 " fill="#ffd0d0"/>
<polygon points="10 10 30 10 30 30 10 30 " fill="#ffb0b0"/>
<polygon points="5 45 15 45 15 55 5 55 " fill="#ffd0d0"/>
<polygon points="5 65 15 65 15 75 5 75 " fill="#ffd0d0"/>
<polygon points="25 45 35 45 35 55 25 55 " fill="#ffd0d0"/>
<polygon points="25 65 35 65 35 75 25 75 " fill="#ffd0d0"/>
<polygon points="10 50 30 50 30 70 10 70 " fill="#ffb0b0"/>
<polygon points="45 5 55 5 55 15 45 15 " fill="#ffd0d0"/>
<polygon points="45 25 55 25 55 35 45 35 " fill="#ffd0d0"/>
<polygon points="65 5 75 5 75 15 65 15 " fill="#ffd0d0"/>
<polygon points="65 25 75 25 75 35 65 35 " fill="#ffd0d0"/>
<polygon points="50 10 70 10 70 30 50 30 " fill="#ffb0b0"/>
<polygon points="45 45 55 45 55 55 45 55 " fill="#ffd0d0"/>
<polygon points="45 65 55 65 55 75 45 75 " fill="#ffd0d0"/>
<polygon points="65 45 75 45 75 55 65 55 " fill="#ffd0d0"/>
<polygon points="65 65 75 65 75 75 65 75 " fill="#ffd0d0"/>
<polygon points="50 50 70 50 70 70 50 70 " fill="#ffb0b0"/>
<polygon points="20 20 60 20 60 60 20 60 " fill="#ff9090"/>
<polygon points="5 85 15 85 15 95 5 95 " fill="#ffd0d0"/>
<polygon points="5 105 15 105 15 115 5 115 " fill="#ffd0d0"/>
<polygon points="25 85 35 85 35 95 25 95 " fill="#ffd0d0"/>
<polygon points="25 105 35 105 35 115 25 115 " fill="#ffd0d0"/>
<polygon points="10 90 30 90 30 110 10 110 " fill="#ffb0b0"/>
<polygon points="5 125 15 125 15 135 5 135 " fill="#ffd0d0"/>
<polygon points="5 145 15 145 15 155 5 155 " fill="#ffd0d0"/>
<polygon points="25 125 35 125 35 135 25 135 " fill="#ffd0d0"/>
<polygon points="25 145 35 145 35 155 25 155 " fill="#ffd0d0"/>
<polygon points="10 130 30 130 30 150 10 150 " fill="#ffb0b0"/>
<polygon points="45 85 55 85 55 95 45 95 " fill="#ffd0d0"/>
<polygon points="45 105 55 105 55 115 45 115 " fill="#ffd0d0"/>
<polygon points="65 85 75 85 75 95 65 95 " fill="#ffd0d0"/>
<polygon points="65 105 75 105 75 115 65 115 " fill="#ffd0d0"/>
<polygon points="50 90 70 90 70 110 50 110 " fill="#ffb0b0"/>
<polygon points="45 125 55 125 55 135 45 135 " fill="#ffd0d0"/>
<polygon points="45 145 55 145 55 155 45 155 " fill="#ffd0d0"/>
<polygon points="65 125 75 125 75 135 65 135 " fill="#ffd0d0"/>
<polygon points="65 145 75 145 75 155 65 155 " fill="#ffd0d0"/>
<polygon points="50 130 70 130 70 150 50 150 " fill="#ffb0b0"/>
<polygon points="20 100 60 100 60 140 20 140 " fill="#ff9090"/>
<polygon points="85 5 95 5 95 15 85 15 " fill="#ffd0d0"/>
<polygon points="85 25 95 25 95 35 85 35 " fill="#ffd0d0"/>
<polygon points="105 5 115 5 115 15 105 15 " fill="#ffd0d0"/>
<polygon points="105 25 115 25 115 35 105 35 " fill="#ffd0d0"/>
<polygon points="90 10 110 10 110 30 90 30 " fill="#ffb0b0"/>
<polygon points="85 45 95 45 95 55 85 55 " fill="#ffd0d0"/>
<polygon points="85 65 95 65 95 75 85 75 " fill="#ffd0d0"/>
<polygon points="105 45 115 45 115 55 105 55 " fill="#ffd0d0"/>
<polygon points="105 65 115 65 115 75 105 75 " fill="#ffd0d0"/>
<polygon points="90 50 110 50 110 70 90 70 " fill="#ffb0b0"/>
<polygon points="125 5 135 5 135 15 125 15 " fill="#ffd0d0"/>
<polygon points="125 25 135 25 135 35 125 35 " fill="#ffd0d0"/>
<polygon points="145 5 155 5 155 15 145 15 " fill="#ffd0d0"/>
<polygon points="145 25 155 25 155 35 145 35 " fill="#ffd0d0"/>
<polygon points="130 10 150 10 150 30 130 30 " fill="#ffb0b0"/>
<polygon points="125 45 135 45 135 55 125 55 " fill="#ffd0d0"/>
<polygon points="125 65 135 65 135 75 125 75 " fill="#ffd0d0"/>
<polygon points="145 45 155 45 155 55 145 55 " fill="#ffd0d0"/>
<polygon points="145 65 155 65 155 75 145 75 " fill="#ffd0d0"/>
<polygon points="130 50 150 50 150 70 130 70 " fill="#ffb0b0"/>
<polygon points="100 20 140 20 140 60 100 60 " fill="#ff9090"/>
<polygon points="85 85 95 85 95 95 85 95 " fill="#ffd0d0"/>
<polygon points="85 105 95 105 95 115 85 115 " fill="#ffd0d0"/>
<polygon points="105 85 115 85 115 95 105 95 " fill="#ffd0d0"/>
<polygon points="105 105 115 105 115 115 105 115 " fill="#ffd0d0"/>
<polygon points="90 90 110 90 110 110 90 110 " fill="#ffb0b0"/>
<polygon points="85 125 95 125 95 135 85 135 " fill="#ffd0d0"/>
<polygon points="85 145 95 145 95 155 85 155 " fill="#ffd0d0"/>
<polygon points="105 125 115 125 115 135 105 135 " fill="#ffd0d0"/>
<polygon points="105 145 115 145 115 155 105 155 " fill="#ffd0d0"/>
<polygon points="90 130 110 130 110 150 90 150 " fill="#ffb0b0"/>
<polygon points="125 85 135 85 135 95 125 95 " fill="#ffd0d0"/>
<polygon points="125 105 135 105 135 115 125 115 " fill="#ffd0d0"/>
<polygon points="145 85 155 85 155 95 145 95 " fill="#ffd0d0"/>
<polygon points="145 105 155 105 155 115 145 115 " fill="#ffd0d0"/>
<polygon points="130 90 150 90 150 110 130 110 " fill="#ffb0b0"/>
<polygon points="125 125 135 125 135 135 125 135 " fill="#ffd0d0"/>
<polygon points="125 145 135 145 135 155 125 155 " fill="#ffd0d0"/>
<polygon points="145 125 155 125 155 135 145 135 " fill="#ffd0d0"/>
<polygon points="145 145 155 145 155 155 145 155 " fill="#ffd0d0"/>
<polygon points="130 130 150 130 150 150 130 150 " fill="#ffb0b0"/>
<polygon points="100 100 140 100 140 140 100 140 " fill="#ff9090"/>
<polygon points="40 40 120 40 120 120 40 120 " fill="#ff7070"/>
<polygon points="5 165 15 165 15 175 5 175 " fill="#ffd0d0"/>
<polygon points="5 185 15 185 15 195 5 195 " fill="#ffd0d0"/>
<polygon points="25 165 35 165 35 175 25 175 " fill="#ffd0d0"/>
<polygon points="25 185 35 185 35 195 25 195 " fill="#ffd0d0"/>
<polygon points="10 170 30 170 30 190 10 190 " fill="#ffb0b0"/>
<polygon points="5 205 15 205 15 215 5 215 " fill="#ffd0d0"/>
<polygon points="5 225 15 225 15 235 5 235 " fill="#ffd0d0"/>
<polygon points="25 205 35 205 35 215 25 215 " fill="#ffd0d0"/>
<polygon points="25 225 35 225 35 235 25 235 " fill="#ffd0d0"/>
<polygon points="10 210 30 210 30 230 10 230 " fill="#ffb0b0"/>
<polygon points="45 165 55 165 55 175 45 175 " fill="#ffd0d0"/>
<polygon points="45 185 55 185 55 195 45 195 " fill="#ffd0d0"/>
<polygon points="65 165 75 165 75 175 65 175 " fill="#ffd0d0"/>
<polygon points="65 185 75 185 75 195 65 195 " fill="#ffd0d0"/>
<polygon points="50 170 70 170 70 190 50 190 " fill="#ffb0b0"/>
<polygon points="45 205 55 205 55 215 45 215 " fill="#ffd0d0"/>
<polygon points="45 225 55 225 55 235 45 235 " fill="#ffd0d0"/>
<polygon points="65 205 75 205 75 215 65 215 " fill="#ffd0d0"/>
<polygon points="65 225 75 225 75 235 65 235 " fill="#ffd0d0"/>
<polygon points="50 210 70 210 70 230 50 230 " fill="#ffb0b0"/>
<polygon points="20 180 60 180 60 220 20 220 " fill="#ff9090"/>
<polygon points="5 245 15 245 15 255 5 255 " fill="#ffd0d0"/>
<polygon points="5 265 15 265 15 275 5 275 " fill="#ffd0d0"/>
<polygon points="25 245 35 245 35 255 25 255 " fill="#ffd0d0"/>
<polygon points="25 265 35 265 35 275 25 275 " fill="#ffd0d0"/>
<polygon points="10 250 30 250 30 270 10 270 " fill="#ffb0b0"/>
<polygon points="5 285 15 285 15 295 5 295 " fill="#ffd0d0"/>
<polygon points="5 305 15 305 15 315 5 315 " fill="#ffd0d0"/>
<polygon points="25 285 35 285 35 295 25 295 " fill="#ffd0d0"/>
<polygon points="25 305 35 305 35 315 25 315 " fill="#ffd0d0"/>
<polygon points="10 290 30 290 30 310 10 310 " fill="#ffb0b0"/>
<polygon points="45 245 55 245 55 255 45 255 " fill="#ffd0d0"/>
<polygon points="45 265 55 265 55 275 45 275 " fill="#ffd0d0"/>
<polygon points="65 245 75 245 75 255 65 255 " fill="#ffd0d0"/>
<polygon points="65 265 75 265 75 275 65 275 " fill="#ffd0d0"/>
<polygon points="50 250 70 250 70 270 50 270 " fill="#ffb0b0"/>
<polygon points="45 285 55 285 55 295 45 295 " fill="#ffd0d0"/>
<polygon points="45 305 55 305 55 315 45 315 " fill="#ffd0d0"/>
<polygon points="65 285 75 285 75 295 65 295 " fill="#ffd0d0"/>
<polygon points="65 305 75 305 75 315 65 315 " fill="#ffd0d0"/>
<polygon points="50 290 70 290 70 310 50 310 " fill="#ffb0b0"/>
<polygon points="20 260 60 260 60 300 20 300 " fill="#ff9090"/>
<polygon points="85 165 95 165 95 175 85 175 " fill="#ffd0d0"/>
<polygon points="85 185 95 185 95 195 85 195 " fill="#ffd0d0"/>
<polygon points="105 165 115 165 115 175 105 175 " fill="#ffd0d0"/>
<polygon points="105 185 115 185 115 195 105 195 " fill="#ffd0d0"/>
<polygon points="90 170 110 170 110 190 90 190 " fill="#ffb0b0"/>
<polygon points="85 205 95 205 95 215 85 215 " fill="#ffd0d0"/>
<polygon points="85 225 95 225 95 235 85 235 " fill="#ffd0d0"/>
<polygon points="105 205 115 205 115 215 105 215 " fill="#ffd0d0"/>
<polygon points="105 225 115 225 115 235 105 235 " fill="#ffd0d0"/>
<polygon points="90 210 110 210 110 230 90 230 " fill="#ffb0b0"/>
<polygon points="125 165 135 165 135 175 125 175 " fill="#ffd0d0"/>
<polygon points="125 185 135 185 135 195 125 195 " fill="#ffd0d0"/>
<polygon points="145 165 155 165 155 175 145 175 " fill="#ffd0d0"/>
<polygon points="145 185 155 185 155 195 145 195 " fill="#ffd0d0"/>
<polygon points="130 170 150 170 150 190 130 190 " fill="#ffb0b0"/>
<polygon points="125 205 135 205 135 215 125 215 " fill="#ffd0d0"/>
<polygon points="125 225 135 225 135 235 125 235 " fill="#ffd0d0"/>
<polygon points="145 205 155 205 155 215 145 215 " fill="#ffd0d0"/>
<polygon points="145 225 155 225 155 235 145 235 " fill="#ffd0d0"/>
<polygon points="130 210 150 210 150 230 130 230 " fill="#ffb0b0"/>
<polygon points="100 180 140 180 140 220 100 220 " fill="#ff9090"/>
<polygon points="85 245 95 245 95 255 85 255 " fill="#ffd0d0"/>
<polygon points="85 265 95 265 95 275 85 275 " fill="#ffd0d0"/>
<polygon points="105 245 115 245 115 255 105 255 " fill="#ffd0d0"/>
<polygon points="105 265 115 265 115 275 105 275 " fill="#ffd0d0"/>
<polygon points="90 250 110 250 110 270 90 270 " fill="#ffb0b0"/>
<polygon points="85 285 95 285 95 295 85 295 " fill="#ffd0d0"/>
<polygon points="85 305 95 305 95 315 85 315 " fill="#ffd0d0"/>
<polygon points="105 285 115 285 115 295 105 295 " fill="#ffd0d0"/>
<polygon points="105 305 115 305 115 315 105 315 " fill="#ffd0d0"/>
<polygon points="90 290 110 290 110 310 90 310 " fill="#ffb0b0"/>
<polygon points="125 245 135 245 135 255 125 255 " fill="#ffd0d0"/>
<polygon points="125 265 135 265 135 275 125 275 " fill="#ffd0d0"/>
<polygon points="145 245 155 245 155 255 145 255 " fill="#ffd0d0"/>
<polygon points="145 265 155 265 155 275 145 275 " fill="#ffd0d0"/>
<polygon points="130 250 150 250 150 270 130 270 " fill="#ffb0b0"/>
<polygon points="125 285 135 285 135 295 125 295 " fill="#ffd0d0"/>
<polygon points="125 305 135 305 135 315 125 315 " fill="#ffd0d0"/>
<polygon points="145 285 155 285 155 295 145 295 " fill="#ffd0d0"/>
<polygon points="145 305 155 305 155 315 145 315 " fill="#ffd0d0"/>
<polygon points="130 290 150 290 150 310 130 310 " fill="#ffb0b0"/>
<polygon points="100 260 140 260 140 300 100 300 " fill="#ff9090"/>
<polygon points="40 200 120 200 120 280 40 280 " fill="#ff7070"/>
<polygon points="165 5 175 5 175 15 165 15 " fill="#ffd0d0"/>
<polygon points="165 25 175 25 175 35 165 35 " fill="#ffd0d0"/>
<polygon points="185 5 195 5 195 15 185 15 " fill="#ffd0d0"/>
<polygon points="185 25 195 25 195 35 185 35 " fill="#ffd0d0"/>
<polygon points="170 10 190 10 190 30 170 30 " fill="#ffb0b0"/>
<polygon points="165 45 175 45 175 55 165 55 " fill="#ffd0d0"/>
<polygon points="165 65 175 65 175 75 165 75 " fill="#ffd0d0"/>
<polygon points="185 45 195 45 195 55 185 55 " fill="#ffd0d0"/>
<polygon points="185 65 195 65 195 75 185 75 " fill="#ffd0d0"/>
<polygon points="170 50 190 50 190 70 170 70 " fill="#ffb0b0"/>
<polygon points="205 5 215 5 215 15 205 15 " fill="#ffd0d0"/>
<polygon points="205 25 215 25 215 35 205 35 " fill="#ffd0d0"/>
<polygon points="225 5 235 5 235 15 225 15 " fill="#ffd0d0"/>
<polygon points="225 25 235 25 235 35 225 35 " fill="#ffd0d0"/>
<polygon points="210 10 230 10 230 30 210 30 " fill="#ffb0b0"/>
<polygon points="205 45 215 45 215 55 205 55 " fill="#ffd0d0"/>
<polygon points="205 65 215 65 215 75 205 75 " fill="#ffd0d0"/>
<polygon points="225 45 235 45 235 55 225 55 " fill="#ffd0d0"/>
<polygon points="225 65 235 65 235 75 225 75 " fill="#ffd0d0"/>
<polygon points="210 50 230 50 230 70 210 70 " fill="#ffb0b0"/>
<polygon points="180 20 220 20 220 60 180 60 " fill="#ff9090"/>
<polygon points="165 85 175 85 175 95 165 95 " fill="#ffd0d0"/>
<polygon points="165 105 175 105 175 115 165 115 " fill="#ffd0d0"/>
<polygon points="185 85 195 85 195 95 185 95 " fill="#ffd0d0"/>
<polygon points="185 105 195 105 195 115 185 115 " fill="#ffd0d0"/>
<polygon points="170 90 190 90 190 110 170 110 " fill="#ffb0b0"/>
<polygon points="165 125 175 125 175 135 165 135 " fill="#ffd0d0"/>
<polygon points="165 145 175 145 175 155 165 155 " fill="#ffd0d0"/>
<polygon points="185 125 195 125 195 135 185 135 " fill="#ffd0d0"/>
<polygon points="185 145 195 145 195 155 185 155 " fill="#ffd0d0"/>
<polygon points="170 130 190 130 190 150 170 150 " fill="#ffb0b0"/>
<polygon points="205 85 215 85 215 95 205 95 " fill="#ffd0d0"/>
<polygon points="205 105 215 105 215 115 205 115 " fill="#ffd0d0"/>
<polygon points="225 85 235 85 235 95 225 95 " fill="#ffd0d0"/>
<polygon points="225 105 235 105 235 115 225 115 " fill="#ffd0d0"/>
<polygon points="210 90 230 90 230 110 210 110 " fill="#ffb0b0"/>
<polygon points="205 125 215 125 215 135 205 135 " fill="#ffd0d0"/>
<polygon points="205 145 215 145 215 155 205 155 " fill="#ffd0d0"/>
<polygon points="225 125 235 125 235 135 225 135 " fill="#ffd0d0"/>
<polygon points="225 145 235 145 235 155 225 155 " fill="#ffd0d0"/>
<polygon points="210 130 230 130 230 150 210 150 " fill="#ffb0b0"/>
<polygon points="180 100 220 100 220 140 180 140 " fill="#ff9090"/>
<polygon points="245 5 255 5 255 15 245 15 " fill="#ffd0d0"/>
<polygon points="245 25 255 25 255 35 245 35 " fill="#ffd0d0"/>
<polygon points="265 5 275 5 275 15 265 15 " fill="#ffd0d0"/>
<polygon points="265 25 275 25 275 35 265 35 " fill="#ffd0d0"/>
<polygon points="250 10 270 10 270 30 250 30 " fill="#ffb0b0"/>
<polygon points="245 45 255 45 255 55 245 55 " fill="#ffd0d0"/>
<polygon points="245 65 255 65 255 75 245 75 " fill="#ffd0d0"/>
<polygon points="265 45 275 45 275 55 265 55 " fill="#ffd0d0"/>
<polygon points="265 65 275 65 275 75 265 75 " fill="#ffd0d0"/>
<polygon points="250 50 270 50 270 70 250 70 " fill="#ffb0b0"/>
<polygon points="285 5 295 5 295 15 285 15 " fill="#ffd0d0"/>
<polygon points="285 25 295 25 295 35 285 35 " fill="#ffd0d0"/>
<polygon points="305 5 315 5 315 15 305 15 " fill="#ffd0d0"/>
<polygon points="305 25 315 25 315 35 305 35 " fill="#ffd0d0"/>
<polygon points="290 10 310 10 310 30 290 30 " fill="#ffb0b0"/>
<polygon points="285 45 295 45 295 55 285 55 " fill="#ffd0d0"/>
<polygon points="285 65 295 65 295 75 285 75 " fill="#ffd0d0"/>
<polygon points="305 45 315 45 315 55 305 55 " fill="#ffd0d0"/>
<polygon points="305 65 315 65 315 75 305 75 " fill="#ffd0d0"/>
<polygon points="290 50 310 50 310 70 290 70 " fill="#ffb0b0"/>
<polygon points="260 20 300 20 300 60 260 60 " fill="#ff9090"/>
<polygon points="245 85 255 85 255 95 245 95 " fill="#ffd0d0"/>
<polygon points="245 105 255 105 255 115 245 115 " fill="#ffd0d0"/>
<polygon points="265 85 275 85 275 95 265 95 " fill="#ffd0d0"/>
<polygon points="265 105 275 105 275 115 265 115 " fill="#ffd0d0"/>
<polygon points="250 90 270 90 270 110 250 110 " fill="#ffb0b0"/>
<polygon points="245 125 255 125 255 135 245 135 " fill="#ffd0d0"/>
<polygon points="245 145 255 145 255 155 245 155 " fill="#ffd0d0"/>
<polygon points="265 125 275 125 275 135 265 135 " fill="#ffd0d0"/>
<polygon points="265 145 275 145 275 155 265 155 " fill="#ffd0d0"/>
<polygon points="250 130 270 130 270 150 250 150 " fill="#ffb0b0"/>
<polygon points="285 85 295 85 295 95 285 95 " fill="#ffd0d0"/>
<polygon points="285 105 295 105 295 115 285 115 " fill="#ffd0d0"/>
<polygon points="305 85 315 85 315 95 305 95 " fill="#ffd0d0"/>
<polygon points="305 105 315 105 315 115 305 115 " fill="#ffd0d0"/>
<polygon points="290 90 310 90 310 110 290 110 " fill="#ffb0b0"/>
<polygon points="285 125 295 125 295 135 285 135 " fill="#ffd0d0"/>
<polygon points="285 145 295 145 295 155 285 155 " fill="#ffd0d0"/>
<polygon points="305 125 315 125 315 135 305 135 " fill="#ffd0d0"/>
<polygon points="305 145 315 145 315 155 305 155 " fill="#ffd0d0"/>
<polygon points="290 130 310 130 310 150 290 150 " fill="#ffb0b0"/>
<polygon points="260 100 300 100 300 140 260 140 " fill="#ff9090"/>
<polygon points="200 40 280 40 280 120 200 120 " fill="#ff7070"/>
<polygon points="165 165 175 165 175 175 165 175 " fill="#ffd0d0"/>
<polygon points="165 185 175 185 175 195 165 195 " fill="#ffd0d0"/>
<polygon points="185 165 195 165 195 175 185 175 " fill="#ffd0d0"/>
<polygon points="185 185 195 185 195 195 185 195 " fill="#ffd0d0"/>
<polygon points="170 170 190 170 190 190 170 190 " fill="#ffb0b0"/>
<polygon points="165 205 175 205 175 215 165 215 " fill="#ffd0d0"/>
<polygon points="165 225 175 225 175 235 165 235 " fill="#ffd0d0"/>
<polygon points="185 205 195 205 195 215 185 215 " fill="#ffd0d0"/>
<polygon points="185 225 195 225 195 235 185 235 " fill="#ffd0d0"/>
<polygon points="170 210 190 210 190 230 170 230 " fill="#ffb0b0"/>
<polygon points="205 165 215 165 215 175 205 175 " fill="#ffd0d0"/>
<polygon points="205 185 215 185 215 195 205 195 " fill="#ffd0d0"/>
<polygon points="225 165 235 165 235 175 225 175 " fill="#ffd0d0"/>
<polygon points="225 185 235 185 235 195 225 195 " fill="#ffd0d0"/>
<polygon points="210 170 230 170 230 190 210 190 " fill="#ffb0b0"/>
<polygon points="205 205 215 205 215 215 205 215 " fill="#ffd0d0"/>
<polygon points="205 225 215 225 215 235 205 235 " fill="#ffd0d0"/>
<polygon points="225 205 235 205 235 215 225 215 " fill="#ffd0d0"/>
<polygon points="225 225 235 225 235 235 225 235 " fill="#ffd0d0"/>
<polygon points="210 210 230 210 230 230 210 230 " fill="#ffb0b0"/>
<polygon points="180 180 220 180 220 220 180 220 " fill="#ff9090"/>
<polygon points="165 245 175 245 175 255 165 255 " fill="#ffd0d0"/>
<polygon points="165 265 175 265 175 275 165 275 " fill="#ffd0d0"/>
<polygon points="185 245 195 245 195 255 185 255 " fill="#ffd0d0"/>
<polygon points="185 265 195 265 195 275 185 275 " fill="#ffd0d0"/>
<polygon points="170 250 190 250 190 270 170 270 " fill="#ffb0b0"/>
<polygon points="165 285 175 285 175 295 165 295 " fill="#ffd0d0"/>
<polygon points="165 305 175 305 175 315 165 315 " fill="#ffd0d0"/>
<polygon points="185 285 195 285 195 295 185 295 " fill="#ffd0d0"/>
<polygon points="185 305 195 305 195 315 185 315 " fill="#ffd0d0"/>
<polygon points="170 290 190 290 190 310 170 310 " fill="#ffb0b0"/>
<polygon points="205 245 215 245 215 255 205 255 " fill="#ffd0d0"/>
<polygon points="205 265 215 265 215 275 205 275 " fill="#ffd0d0"/>
<polygon points="225 245 235 245 235 255 225 255 " fill="#ffd0d0"/>
<polygon points="225 265 235 265 235 275 225 275 " fill="#ffd0d0"/>
<polygon points="210 250 230 250 230 270 210 270 " fill="#ffb0b0"/>
<polygon points="205 285 215 285 215 295 205 295 " fill="#ffd0d0"/>
<polygon points="205 305 215 305 215 315 205 315 " fill="#ffd0d0"/>
<polygon points="225 285 235 285 235 295 225 295 " fill="#ffd0d0"/>
<polygon points="225 305 235 305 235 315 225 315 " fill="#ffd0d0"/>
<polygon points="210 290 230 290 230 310 210 310 " fill="#ffb0b0"/>
<polygon points="180 260 220 260 220 300 180 300 " fill="#ff9090"/>
<polygon points="245 165 255 165 255 175 245 175 " fill="#ffd0d0"/>
<polygon points="245 185 255 185 255 195 245 195 " fill="#ffd0d0"/>
<polygon points="265 165 275 165 275 175 265 175 " fill="#ffd0d0"/>
<polygon points="265 185 275 185 275 195 265 195 " fill="#ffd0d0"/>
<polygon points="250 170 270 170 270 190 250 190 " fill="#ffb0b0"/>
<polygon points="245 205 255 205 255 215 245 215 " fill="#ffd0d0"/>
<polygon points="245 225 255 225 255 235 245 235 " fill="#ffd0d0"/>
<polygon points="265 205 275 205 275 215 265 215 " fill="#ffd0d0"/>
<polygon points="265 225 275 225 275 235 265 235 " fill="#ffd0d0"/>
<polygon points="250 210 270 210 270 230 250 230 " fill="#ffb0b0"/>
<polygon points="285 165 295 165 295 175 285 175 " fill="#ffd0d0"/>
<polygon points="285 185 295 185 295 195 285 195 " fill="#ffd0d0"/>
<polygon points="305 165 315 165 315 175 305 175 " fill="#ffd0d0"/>
<polygon points="305 185 315 185 315 195 305 195 " fill="#ffd0d0"/>
<polygon points="290 170 310 170 310 190 290 190 " fill="#ffb0b0"/>
<polygon points="285 205 295 205 295 215 285 215 " fill="#ffd0d0"/>
<polygon points="285 225 295 225 295 235 285 235 " fill="#ffd0d0"/>
<polygon points="305 205 315 205 315 215 305 215 " fill="#ffd0d0"/>
<polygon points="305 225 315 225 315 235 305 235 " fill="#ffd0d0"/>
<polygon points="290 210 310 210 310 230 290 230 " fill="#ffb0b0"/>
<polygon points="260 180 300 180 300 220 260 220 " fill="#ff9090"/>
<polygon points="245 245 255 245 255 255 245 255 " fill="#ffd0d0"/>
<polygon points="245 265 255 265 255 275 245 275 " fill="#ffd0d0"/>
<polygon points="265 245 275 245 275 255 265 255 " fill="#ffd0d0"/>
<polygon points="265 265 275 265 275 275 265 275 " fill="#ffd0d0"/>
<polygon points="250 250 270 250 270 270 250 270 " fill="#ffb0b0"/>
<polygon points="245 285 255 285 255 295 245 295 " fill="#ffd0d0"/>
<polygon points="245 305 255 305 255 315 245 315 " fill="#ffd0d0"/>
<polygon points="265 285 275 285 275 295 265 295 " fill="#ffd0d0"/>
<polygon points="265 305 275 305 275 315 265 315 " fill="#ffd0d0"/>
<polygon points="250 290 270 290 270 310 250 310 " fill="#ffb0b0"/>
<polygon points="285 245 295 245 295 255 285 255 " fill="#ffd0d0"/>
<polygon points="285 265 295 265 295 275 285 275 " fill="#ffd0d0"/>
<polygon points="305 245 315 245 315 255 305 255 " fill="#ffd0d0"/>
<polygon points="305 265 315 265 315 275 305 275 " fill="#ffd0d0"/>
<polygon points="290 250 310 250 310 270 290 270 " fill="#ffb0b0"/>
<polygon points="285 285 295 285 295 295 285 295 " fill="#ffd0d0"/>
<polygon points="285 305 295 305 295 315 285 315 " fill="#ffd0d0"/>
<polygon points="305 285 315 285 315 295 305 295 " fill="#ffd0d0"/>
<polygon points="305 305 315 305 315 315 305 315 " fill="#ffd0d0"/>
<polygon points="290 290 310 290 310 310 290 310 " fill="#ffb0b0"/>
<polygon points="260 260 300 260 300 300 260 300 " fill="#ff9090"/>
<polygon points="200 200 280 200 280 280 200 280 " fill="#ff7070"/>
<polygon points="80 80 240 80 240 240 80 240 " fill="#ff5050"/>
<polygon points="5 325 15 325 15 335 5 335 " fill="#ffd0d0"/>
<polygon points="5 345 15 345 15 355 5 355 " fill="#ffd0d0"/>
<polygon points="25 325 35 325 35 335 25 335 " fill="#ffd0d0"/>
<polygon points="25 345 35 345 35 355 25 355 " fill="#ffd0d0"/>
<polygon points="10 330 30 330 30 350 10 350 " fill="#ffb0b0"/>
<polygon points="5 365 15 365 15 375 5 375 " fill="#ffd0d0"/>
<polygon points="5 385 15 385 15 395 5 395 " fill="#ffd0d0"/>
<polygon points="25 365 35 365 35 375 25 375 " fill="#ffd0d0"/>
<polygon points="25 385 35 385 35 395 25 395 " fill="#ffd0d0"/>
<polygon points="10 370 30 370 30 390 10 390 " fill="#ffb0b0"/>
<polygon points="45 325 55 325 55 335 45 335 " fill="#ffd0d0"/>
<polygon points="45 345 55 345 55 355 45 355 " fill="#ffd0d0"/>
<polygon points="65 325 75 325 75 335 65 335 " fill="#ffd0d0"/>
<polygon points="65 345 75 345 75 355 65 355 " fill="#ffd0d0"/>
<polygon points="50 330 70 330 70 350 50 350 " fill="#ffb0b0"/>
<polygon points="45 365 55 365 55 375 45 375 " fill="#ffd0d0"/>
<polygon points="45 385 55 385 55 395 45 395 " fill="#ffd0d0"/>
<polygon points="65 365 75 365 75 375 65 375 " fill="#ffd0d0"/>
<polygon points="65 385 75 385 75 395 65 395 " fill="#ffd0d0"/>
<polygon points="50 370 70 370 70 390 50 390 " fill="#ffb0b0"/>
<polygon points="20 340 60 340 60 380 20 380 " fill="#ff9090"/>
<polygon points="5 405 15 405 15 415 5 415 " fill="#ffd0d0"/>
<polygon points="5 425 15 425 15 435 5 435 " fill="#ffd0d0"/>
<polygon points="25 405 35 405 35 415 25 415 " fill="#ffd0d0"/>
<polygon points="25 425 35 425 35 435 25 435 " fill="#ffd0d0"/>
<polygon points="10 410 30 410 30 430 10 430 " fill="#ffb0b0"/>
<polygon points="5 445 15 445 15 455 5 455 " fill="#ffd0d0"/>
<polygon points="5 465 15 465 15 475 5 475 " fill="#ffd0d0"/>
<polygon points="25 445 35 445 35 455 25 455 " fill="#ffd0d0"/>
<polygon points="25 465 35 465 35 475 25 475 " fill="#ffd0d0"/>
<polygon points="10 450 30 450 30 470 10 470 " fill="#ffb0b0"/>
<polygon points="45 405 55 405 55 415 45 415 " fill="#ffd0d0"/>
<polygon points="45 425 55 425 55 435 45 435 " fill="#ffd0d0"/>
<polygon points="65 405 75 405 75 415 65 415 " fill="#ffd0d0"/>
<polygon points="65 425 75 425 75 435 65 435 " fill="#ffd0d0"/>
<polygon points="50 410 70 410 70 430 50 430 " fill="#ffb0b0"/>
<polygon points="45 445 55 445 55 455 45 455 " fill="#ffd0d0"/>
<polygon points="45 465 55 465 55 475 45 475 " fill="#ffd0d0"/>
<polygon points="65 445 75 445 75 455 65 455 " fill="#ffd0d0"/>
<polygon points="65 465 75 465 75 475 65 475 " fill="#ffd0d0"/>
<polygon points="50 450 70 450 70 470 50 470 " fill="#ffb0b0"/>
<polygon points="20 420 60 420 60 460 20 460 " fill="#ff9090"/>
<polygon points="85 325 95 325 95 335 85 335 " fill="#ffd0d0"/>
<polygon points="85 345 95 345 95 355 85 355 " fill="#ffd0d0"/>
<polygon points="105 325 115 325 115 335 105 335 " fill="#ffd0d0"/>
<polygon points="105 345 115 345 115 355 105 355 " fill="#ffd0d0"/>
<polygon points="90 330 110 330 110 350 90 350 " fill="#ffb0b0"/>
<polygon points="85 365 95 365 95 375 85 375 " fill="#ffd0d0"/>
<polygon points="85 385 95 385 95 395 85 395 " fill="#ffd0d0"/>
<polygon points="105 365 115 365 115 375 105 375 " fill="#ffd0d0"/>
<polygon points="105 385 115 385 115 395 105 395 " fill="#ffd0d0"/>
<polygon points="90 370 110 370 110 390 90 390 " fill="#ffb0b0"/>
<polygon points="125 325 135 325 135 335 125 335 " fill="#ffd0d0"/>
<polygon points="125 345 135 345 135 355 125 355 " fill="#ffd0d0"/>
<polygon points="145 325 155 325 155 335 145 335 " fill="#ffd0d0"/>
<polygon points="145 345 155 345 155 355 145 355 " fill="#ffd0d0"/>
<polygon points="130 330 150 330 150 350 130 350 " fill="#ffb0b0"/>
<polygon points="125 365 135 365 135 375 125 375 " fill="#ffd0d0"/>
<polygon points="125 385 135 385 135 395 125 395 " fill="#ffd0d0"/>
<polygon points="145 365 155 365 155 375 145 375 " fill="#ffd0d0"/>
<polygon points="145 385 155 385 155 395 145 395 " fill="#ffd0d0"/>
<polygon points="130 370 150 370 150 390 130 390 " fill="#ffb0b0"/>
<polygon points="100 340 140 340 140 380 100 380 " fill="#ff9090"/>
<polygon points="85 405 95 405 95 415 85 415 " fill="#ffd0d0"/>
<polygon points="85 425 95 425 95 435 85 435 " fill="#ffd0d0"/>
<polygon points="105 405 115 405 115 415 105 415 " fill="#ffd0d0"/>
<polygon points="105 425 115 425 115 435 105 435 " fill="#ffd0d0"/>
<polygon points="90 410 110 410 110 430 90 430 " fill="#ffb0b0"/>
<polygon points="85 445 95 445 95 455 85 455 " fill="#ffd0d0"/>
<polygon points="85 465 95 465 95 475 85 475 " fill="#ffd0d0"/>
<polygon points="105 445 115 445 115 455 105 455 " fill="#ffd0d0"/>
<polygon points="105 465 115 465 115 475 105 475 " fill="#ffd0d0"/>
<polygon points="90 450 110 450 110 470 90 470 " fill="#ffb0b0"/>
<polygon points="125 405 135 405 135 415 125 415 " fill="#ffd0d0"/>
<polygon points="125 425 135 425 135 435 125 435 " fill="#ffd0d0"/>
<polygon points="145 405 155 405 155 415 145 415 " fill="#ffd0d0"/>
<polygon points="145 425 155 425 155 435 145 435 " fill="#ffd0d0"/>
<polygon points="130 410 150 410 150 430 130 430 " fill="#ffb0b0"/>
<polygon points="125 445 135 445 135 455 125 455 " fill="#ffd0d0"/>
<polygon points="125 465 135 465 135 475 125 475 " fill="#ffd0d0"/>
<polygon points="145 445 155 445 155 455 145 455 " fill="#ffd0d0"/>
<polygon points="145 465 155 465 155 475 145 475 " fill="#ffd0d0"/>
<polygon points="130 450 150 450 150 470 130 470 " fill="#ffb0b0"/>
<polygon points="100 420 140 420 140 460 100 460 " fill="#ff9090"/>
<polygon points="40 360 120 360 120 440 40 440 " fill="#ff7070"/>
<polygon points="5 485 15 485 15 495 5 495 " fill="#ffd0d0"/>
<polygon points="5 505 15 505 15 515 5 515 " fill="#ffd0d0"/>
<polygon points="25 485 35 485 35 495 25 495 " fill="#ffd0d0"/>
<polygon points="25 505 35 505 35 515 25 515 " fill="#ffd0d0"/>
<polygon points="10 490 30 490 30 510 10 510 " fill="#ffb0b0"/>
<polygon points="5 525 15 525 15 535 5 535 " fill="#ffd0d0"/>
<polygon points="5 545 15 545 15 555 5 555 " fill="#ffd0d0"/>
<polygon points="25 525 35 525 35 535 25 535 " fill="#ffd0d0"/>
<polygon points="25 545 35 545 35 555 25 555 " fill="#ffd0d0"/>
<polygon points="10 530 30 530 30 550 10 550 " fill="#ffb0b0"/>
<polygon points="45 485 55 485 55 495 45 495 " fill="#ffd0d0"/>
<polygon points="45 505 55 505 55 515 45 515 " fill="#ffd0d0"/>
<polygon points="65 485 75 485 75 495 65 495 " fill="#ffd0d0"/>
<polygon points="65 505 75 505 75 515 65 515 " fill="#ffd0d0"/>
<polygon points="50 490 70 490 70 510 50 510 " fill="#ffb0b0"/>
<polygon points="45 525 55 525 55 535 45 535 " fill="#ffd0d0"/>
<polygon points="45 545 55 545 55 555 45 555 " fill="#ffd0d0"/>
<polygon points="65 525 75 525 75 535 65 535 " fill="#ffd0d0"/>
<polygon points="65 545 75 545 75 555 65 555 " fill="#ffd0d0"/>
<polygon points="50 530 70 530 70 550 50 550 " fill="#ffb0b0"/>
<polygon points="20 500 60 500 60 540 20 540 " fill="#ff9090"/>
<polygon points="5 565 15 565 15 575 5 575 " fill="#ffd0d0"/>
<polygon points="5 585 15 585 15 595 5 595 " fill="#ffd0d0"/>
<polygon points="25 565 35 565 35 575 25 575 " fill="#ffd0d0"/>
<polygon points="25 585 35 585 35 595 25 595 " fill="#ffd0d0"/>
<polygon points="10 570 30 570 30 590 10 590 " fill="#ffb0b0"/>
<polygon points="5 605 15 605 15 615 5 615 " fill="#ffd0d0"/>
<polygon points="5 625 15 625 15 635 5 635 " fill="#ffd0d0"/>
<polygon points="25 605 35 605 35 615 25 615 " fill="#ffd0d0"/>
<polygon points="25 625 35 625 35 635 25 635 " fill="#ffd0d0"/>
<polygon points="10 610 30 610 30 630 10 630 " fill="#ffb0b0"/>
<polygon points="45 565 55 565 55 575 45 575 " fill="#ffd0d0"/>
<polygon points="45 585 55 585 55 595 45 595 " fill="#ffd0d0"/>
<polygon points="65 565 75 565 75 575 65 575 " fill="#ffd0d0"/>
<polygon points="65 585 75 585 75 595 65 595 " fill="#ffd0d0"/>
<polygon points="50 570 70 570 70 590 50 590 " fill="#ffb0b0"/>
<polygon points="45 605 55 605 55 615 45 615 " fill="#ffd0d0"/>
<polygon points="45 625 55 625 55 635 45 635 " fill="#ffd0d0"/>
<polygon points="65 605 75 605 75 615 65 615 " fill="#ffd0d0"/>
<polygon points="65 625 75 625 75 635 65 635 " fill="#ffd0d0"/>
<polygon points="50 610 70 610 70 630 50 630 " fill="#ffb0b0"/>
<polygon points="20 580 60 580 60 620 20 620 " fill="#ff9090"/>
<polygon points="85 485 95 485 95 495 85 495 " fill="#ffd0d0"/>
<polygon points="85 505 95 505 95 515 85 515 " fill="#ffd0d0"/>
<polygon points="105 485 115 485 115 495 105 495 " fill="#ffd0d0"/>
<polygon points="105 505 115 505 115 515 105 515 " fill="#ffd0d0"/>
<polygon points="90 490 110 490 110 510 90 510 " fill="#ffb0b0"/>
<polygon points="85 525 95 525 95 535 85 535 " fill="#ffd0d0"/>
<polygon points="85 545 95 545 95 555 85 555 " fill="#ffd0d0"/>
<polygon points="105 525 115 525 115 535 105 535 " fill="#ffd0d0"/>
<polygon points="105 545 115 545 115 555 105 555 " fill="#ffd0d0"/>
<polygon points="90 530 110 530 110 550 90 550 " fill="#ffb0b0"/>
<polygon points="125 485 135 485 135 495 125 495 " fill="#ffd0d0"/>
<polygon points="125 505 135 505 135 515 125 515 " fill="#ffd0d0"/>
<polygon points="145 485 155 485 155 495 145 495 " fill="#ffd0d0"/>
<polygon points="145 505 155 505 155 515 145 515 " fill="#ffd0d0"/>
<polygon points="130 490 150 490 150 510 130 510 " fill="#ffb0b0"/>
<polygon points="125 525 135 525 135 535 125 535 " fill="#ffd0d0"/>
<polygon points="125 545 135 545 135 555 125 555 " fill="#ffd0d0"/>
<polygon points="145 525 155 525 155 535 145 535 " fill="#ffd0d0"/>
<polygon points="145 545 155 545 155 555 145 555 " fill="#ffd0d0"/>
<polygon points="130 530 150 530 150 550 130 550 " fill="#ffb0b0"/>
<polygon points="100 500 140 500 140 540 100 540 " fill="#ff9090"/>
<polygon points="85 565 95 565 95 575 85 575 " fill="#ffd0d0"/>
<polygon points="85 585 95 585 95 595 85 595 " fill="#ffd0d0"/>
<polygon points="105 565 115 565 115 575 105 575 " fill="#ffd0d0"/>
<polygon points="105 585 115 585 115 595 105 595 " fill="#ffd0d0"/>
<polygon points="90 570 110 570 110 590 90 590 " fill="#ffb0b0"/>
<polygon points="85 605 95 605 95 615 85 615 " fill="#ffd0d0"/>
<polygon points="85 625 95 625 95 635 85 635 " fill="#ffd0d0"/>
<polygon points="105 605 115 605 115 615 105 615 " fill="#ffd0d0"/>
<polygon points="105 625 115 625 115 635 105 635 " fill="#ffd0d0"/>
<polygon points="90 610 110 610 110 630 90 630 " fill="#ffb0b0"/>
<polygon points="125 565 135 565 135 575 125 575 " fill="#ffd0d0"/>
<polygon points="125 585 135 585 135 595 125 595 " fill="#ffd0d0"/>
<polygon points="145 565 155 565 155 575 145 575 " fill="#ffd0d0"/>
<polygon points="145 585 155 585 155 595 145 595 " fill="#ffd0d0"/>
<polygon points="130 570 150 570 150 590 130 590 " fill="#ffb0b0"/>
<polygon points="125 605 135 605 135 615 125 615 " fill="#ffd0d0"/>
<polygon points="125 625 135 625 135 635 125 635 " fill="#ffd0d0"/>
<polygon points="145 605 155 605 155 615 145 615 " fill="#ffd0d0"/>
<polygon points="145 625 155 625 155 635 145 635 " fill="#ffd0d0"/>
<polygon points="130 610 150 610 150 630 130 630 " fill="#ffb0b0"/>
<polygon points="100 580 140 580 140 620 100 620 " fill="#ff9090"/>
<polygon points="40 520 120 520 120 600 40 600 " fill="#ff7070"/>
<polygon points="165 325 175 325 175 335 165 335 " fill="#ffd0d0"/>
<polygon points="165 345 175 345 175 355 165 355 " fill="#ffd0d0"/>
<polygon points="185 325 195 325 195 335 185 335 " fill="#ffd0d0"/>
<polygon points="185 345 195 345 195 355 185 355 " fill="#ffd0d0"/>
<polygon points="170 330 190 330 190 350 170 350 " fill="#ffb0b0"/>
<polygon points="165 365 175 365 175 375 165 375 " fill="#ffd0d0"/>
<polygon points="165 385 175 385 175 395 165 395 " fill="#ffd0d0"/>
<polygon points="185 365 195 365 195 375 185 375 " fill="#ffd0d0"/>
<polygon points="185 385 195 385 195 395 185 395 " fill="#ffd0d0"/>
<polygon points="170 370 190 370 190 390 170 390 " fill="#ffb0b0"/>
<polygon points="205 325 215 325 215 335 205 335 " fill="#ffd0d0"/>
<polygon points="205 345 215 345 215 355 205 355 " fill="#ffd0d0"/>
<polygon points="225 325 235 325 235 335 225 335 " fill="#ffd0d0"/>
<polygon points="225 345 235 345 235 355 225 355 " fill="#ffd0d0"/>
<polygon points="210 330 230 330 230 350 210 350 " fill="#ffb0b0"/>
<polygon points="205 365 215 365 215 375 205 375 " fill="#ffd0d0"/>
<polygon points="205 385 215 385 215 395 205 395 " fill="#ffd0d0"/>
<polygon points="225 365 235 365 235 375 225 375 " fill="#ffd0d0"/>
<polygon points="225 385 235 385 235 395 225 395 " fill="#ffd0d0"/>
<polygon points="210 370 230 370 230 390 210 390 " fill="#ffb0b0"/>
<polygon points="180 340 220 340 220 380 180 380 " fill="#ff9090"/>
<polygon points="165 405 175 405 175 415 165 415 " fill="#ffd0d0"/>
<polygon points="165 425 175 425 175 435 165 435 " fill="#ffd0d0"/>
<polygon points="185 405 195 405 195 415 185 415 " fill="#ffd0d0"/>
<polygon points="185 425 195 425 195 435 185 435 " fill="#ffd0d0"/>
<polygon points="170 410 190 410 190 430 170 430 " fill="#ffb0b0"/>
<polygon points="165 445 175 445 175 455 165 455 " fill="#ffd0d0"/>
<polygon points="165 465 175 465 175 475 165 475 " fill="#ffd0d0"/>
<polygon points="185 445 195 445 195 455 185 455 " fill="#ffd0d0"/>
<polygon points="185 465 195 465 195 475 185 475 " fill="#ffd0d0"/>
<polygon points="170 450 190 450 190 470 170 470 " fill="#ffb0b0"/>
<polygon points="205 405 215 405 215 415 205 415 " fill="#ffd0d0"/>
<polygon points="205 425 215 425 215 435 205 435 " fill="#ffd0d0"/>
<polygon points="225 405 235 405 235 415 225 415 " fill="#ffd0d0"/>
<polygon points="225 425 235 425 235 435 225 435 " fill="#ffd0d0"/>
<polygon points="210 410 230 410 230 430 210 430 " fill="#ffb0b0"/>
<polygon points="205 445 215 445 215 455 205 455 " fill="#ffd0d0"/>
<polygon points="205 465 215 465 215 475 205 475 " fill="#ffd0d0"/>
<polygon points="225 445 235 445 235 455 225 455 " fill="#ffd0d0"/>
<polygon points="225 465 235 465 235 475 225 475 " fill="#ffd0d0"/>
<polygon points="210 450 230 450 230 470 210 470 " fill="#ffb0b0"/>
<polygon points="180 420 220 420 220 460 180 460 " fill="#ff9090"/>
<polygon points="245 325 255 325 255 335 245 335 " fill="#ffd0d0"/>
<polygon points="245 345 255 345 255 355 245 355 " fill="#ffd0d0"/>
<polygon points="265 325 275 325 275 335 265 335 " fill="#ffd0d0"/>
<polygon points="265 345 275 345 275 355 265 355 " fill="#ffd0d0"/>
<polygon points="250 330 270 330 270 350 250 350 " fill="#ffb0b0"/>
<polygon points="245 365 255 365 255 375 245 375 " fill="#ffd0d0"/>
<polygon points="245 385 255 385 255 395 245 395 " fill="#ffd0d0"/>
<polygon points="265 365 275 365 275 375 265 375 " fill="#ffd0d0"/>
<polygon points="265 385 275 385 275 395 265 395 " fill="#ffd0d0"/>
<polygon points="250 370 270 370 270 390 250 390 " fill="#ffb0b0"/>
<polygon points="285 325 295 325 295 335 285 335 " fill="#ffd0d0"/>
<polygon points="285 345 295 345 295 355 285 355 " fill="#ffd0d0"/>
<polygon points="305 325 315 325 315 335 305 335 " fill="#ffd0d0"/>
<polygon points="305 345 315 345 315 355 305 355 " fill="#ffd0d0"/>
<polygon points="290 330 310 330 310 350 290 350 " fill="#ffb0b0"/>
<polygon points="285 365 295 365 295 375 285 375 " fill="#ffd0d0"/>
<polygon points="285 385 295 385 295 395 285 395 " fill="#ffd0d0"/>
<polygon points="305 365 315 365 315 375 305 375 " fill="#ffd0d0"/>
<polygon points="305 385 315 385 315 395 305 395 " fill="#ffd0d0"/>
<polygon points="290 370 310 370 310 390 290 390 " fill="#ffb0b0"/>
<polygon points="260 340 300 340 300 380 260 380 " fill="#ff9090"/>
<polygon points="245 405 255 405 255 415 245 415 " fill="#ffd0d0"/>
<polygon points="245 425 255 425 255 435 245 435 " fill="#ffd0d0"/>
<polygon points="265 405 275 405 275 415 265 415 " fill="#ffd0d0"/>
<polygon points="265 425 275 425 275 435 265 435 " fill="#ffd0d0"/>
<polygon points="250 410 270 410 270 430 250 430 " fill="#ffb0b0"/>
<polygon points="245 445 255 445 255 455 245 455 " fill="#ffd0d0"/>
<polygon points="245 465 255 465 255 475 245 475 " fill="#ffd0d0"/>
<polygon points="265 445 275 445 275 455 265 455 " fill="#ffd0d0"/>
<polygon points="265 465 275 465 275 475 265 475 " fill="#ffd0d0"/>
<polygon points="250 450 270 450 270 470 250 470 " fill="#ffb0b0"/>
<polygon points="285 405 295 405 295 415 285 415 " fill="#ffd0d0"/>
<polygon points="285 425 295 425 295 435 285 435 " fill="#ffd0d0"/>
<polygon points="305 405 315 405 315 415 305 415 " fill="#ffd0d0"/>
<polygon points="305 425 315 425 315 435 305 435 " fill="#ffd0d0"/>
<polygon points="290 410 310 410 310 430 290 430 " fill="#ffb0b0"/>
<polygon points="285 445 295 445 295 455 285 455 " fill="#ffd0d0"/>
<polygon points="285 465 295 465 295 475 285 475 " fill="#ffd0d0"/>
<polygon points="305 445 315 445 315 455 305 455 " fill="#ffd0d0"/>
<polygon points="305 465 315 465 315 475 305 475 " fill="#ffd0d0"/>
<polygon points="290 450 310 450 310 470 290 470 " fill="#ffb0b0"/>
<polygon points="260 420 300 420 300 460 260 460 " fill="#ff9090"/>
<polygon points="200 360 280 360 280 440 200 440 " fill="#ff7070"/>
<polygon points="165 485 175 485 175 495 165 495 " fill="#ffd0d0"/>
<polygon points="165 505 175 505 175 515 165 515 " fill="#ffd0d0"/>
<polygon points="185 485 195 485 195 495 185 495 " fill="#ffd0d0"/>
<polygon points="185 505 195 505 195 515 185 515 " fill="#ffd0d0"/>
<polygon points="170 490 190 490 190 510 170 510 " fill="#ffb0b0"/>
<polygon points="165 525 175 525 175 535 165 535 " fill="#ffd0d0"/>
<polygon points="165 545 175 545 175 555 165 555 " fill="#ffd0d0"/>
<polygon points="185 525 195 525 195 535 185 535 " fill="#ffd0d0"/>
<polygon points="185 545 195 545 195 555 185 555 " fill="#ffd0d0"/>
<polygon points="170 530 190 530 190 550 170 550 " fill="#ffb0b0"/>
<polygon points="205 485 215 485 215 495 205 495 " fill="#ffd0d0"/>
<polygon points="205 505 215 505 215 515 205 515 " fill="#ffd0d0"/>
<polygon points="225 485 235 485 235 495 225 495 " fill="#ffd0d0"/>
<polygon points="225 505 235 505 235 515 225 515 " fill="#ffd0d0"/>
<polygon points="210 490 230 490 230 510 210 510 " fill="#ffb0b0"/>
<polygon points="205 525 215 525 215 535 205 535 " fill="#ffd0d0"/>
<polygon points="205 545 215 545 215 555 205 555 " fill="#ffd0d0"/>
<polygon points="225 525 235 525 235 535 225 535 " fill="#ffd0d0"/>
<polygon points="225 545 235 545 235 555 225 555 " fill="#ffd0d0"/>
<polygon points="210 530 230 530 230 550 210 550 " fill="#ffb0b0"/>
<polygon points="180 500 220 500 220 540 180 540 " fill="#ff9090"/>
<polygon points="165 565 175 565 175 575 165 575 " fill="#ffd0d0"/>
<polygon points="165 585 175 585 175 595 165 595 " fill="#ffd0d0"/>
<polygon points="185 565 195 565 195 575 185 575 " fill="#ffd0d0"/>
<polygon points="185 585 195 585 195 595 185 595 " fill="#ffd0d0"/>
<polygon points="170 570 190 570 190 590 170 590 " fill="#ffb0b0"/>
<polygon points="165 605 175 605 175 615 165 615 " fill="#ffd0d0"/>
<polygon points="165 625 175 625 175 635 165 635 " fill="#ffd0d0"/>
<polygon points="185 605 195 605 195 615 185 615 " fill="#ffd0d0"/>
<polygon points="185 625 195 625 195 635 185 635 " fill="#ffd0d0"/>
<polygon points="170 610 190 610 190 630 170 630 " fill="#ffb0b0"/>
<polygon points="205 565 215 565 215 575 205 575 " fill="#ffd0d0"/>
<polygon points="205 585 215 585 215 595 205 595 " fill="#ffd0d0"/>
<polygon points="225 565 235 565 235 575 225 575 " fill="#ffd0d0"/>
<polygon points="225 585 235 585 235 595 225 595 " fill="#ffd0d0"/>
<polygon points="210 570 230 570 230 590 210 590 " fill="#ffb0b0"/>
<polygon points="205 605 215 605 215 615 205 615 " fill="#ffd0d0"/>
<polygon points="205 625 215 625 215 635 205 635 " fill="#ffd0d0"/>
<polygon points="225 605 235 605 235 615 225 615 " fill="#ffd0d0"/>
<polygon points="225 625 235 625 235 635 225 635 " fill="#ffd0d0"/>
<polygon points="210 610 230 610 230 630 210 630 " fill="#ffb0b0"/>
<polygon points="180 580 220 580 220 620 180 620 " fill="#ff9090"/>
<polygon points="245 485 255 485 255 495 245 495 " fill="#ffd0d0"/>
<polygon points="245 505 255 505 255 515 245 515 " fill="#ffd0d0"/>
<polygon points="265 485 275 485 275 495 265 495 " fill="#ffd0d0"/>
<polygon points="265 505 275 505 275 515 265 515 " fill="#ffd0d0"/>
<polygon points="250 490 270 490 270 510 250 510 " fill="#ffb0b0"/>
<polygon points="245 525 255 525 255 535 245 535 " fill="#ffd0d0"/>
<polygon points="245 545 255 545 255 555 245 555 " fill="#ffd0d0"/>
<polygon points="265 525 275 525 275 535 265 535 " fill="#ffd0d0"/>
<polygon points="265 545 275 545 275 555 265 555 " fill="#ffd0d0"/>
<polygon points="250 530 270 530 270 550 250 550 " fill="#ffb0b0"/>
<polygon points="285 485 295 485 295 495 285 495 " fill="#ffd0d0"/>
<polygon points="285 505 295 505 295 515 285 515 " fill="#ffd0d0"/>
<polygon points="305 485 315 485 315 495 305 495 " fill="#ffd0d0"/>
<polygon points="305 505 315 505 315 515 305 515 " fill="#ffd0d0"/>
<polygon points="290 490 310 490 310 510 290 510 " fill="#ffb0b0"/>
<polygon points="285 525 295 525 295 535 285 535 " fill="#ffd0d0"/>
<polygon points="285 545 295 545 295 555 285 555 " fill="#ffd0d0"/>
<polygon points="305 525 315 525 315 535 305 535 " fill="#ffd0d0"/>
<polygon points="305 545 315 545 315 555 305 555 " fill="#ffd0d0"/>
<polygon points="290 530 310 530 310 550 290 550 " fill="#ffb0b0"/>
<polygon points="260 500 300 500 300 540 260 540 " fill="#ff9090"/>
<polygon points="245 565 255 565 255 575 245 575 " fill="#ffd0d0"/>
<polygon points="245 585 255 585 255 595 245 595 " fill="#ffd0d0"/>
<polygon points="265 565 275 565 275 575 265 575 " fill="#ffd0d0"/>
<polygon points="265 585 275 585 275 595 265 595 " fill="#ffd0d0"/>
<polygon points="250 570 270 570 270 590 250 590 " fill="#ffb0b0"/>
<polygon points="245 605 255 605 255 615 245 615 " fill="#ffd0d0"/>
<polygon points="245 625 255 625 255 635 245 635 " fill="#ffd0d0"/>
<polygon points="265 605 275 605 275 615 265 615 " fill="#ffd0d0"/>
<polygon points="265 625 275 625 275 635 265 635 " fill="#ffd0d0"/>
<polygon points="250 610 270 610 270 630 250 630 " fill="#ffb0b0"/>
<polygon points="285 565 295 565 295 575 285 575 " fill="#ffd0d0"/>
<polygon points="285 585 295 585 295 595 285 595 " fill="#ffd0d0"/>
<polygon points="305 565 315 565 315 575 305 575 " fill="#ffd0d0"/>
<polygon points="305 585 315 585 315 595 305 595 " fill="#ffd0d0"/>
<polygon points="290 570 310 570 310 590 290 590 " fill="#ffb0b0"/>
<polygon points="285 605 295 605 295 615 285 615 " fill="#ffd0d0"/>
<polygon points="285 625 295 625 295 635 285 635 " fill="#ffd0d0"/>
<polygon points="305 605 315 605 315 615 305 615 " fill="#ffd0d0"/>
<polygon points="305 625 315 625 315 635 305 635 " fill="#ffd0d0"/>
<polygon points="290 610 310 610 310 630 290 630 " fill="#ffb0b0"/>
<polygon points="260 580 300 580 300 620 260 620 " fill="#ff9090"/>
<polygon points="200 520 280 520 280 600 200 600 " fill="#ff7070"/>
<polygon points="80 400 240 400 240 560 80 560 " fill="#ff5050"/>
<polygon points="325 5 335 5 335 15 325 15 " fill="#ffd0d0"/>
<polygon points="325 25 335 25 335 35 325 35 " fill="#ffd0d0"/>
<polygon points="345 5 355 5 355 15 345 15 " fill="#ffd0d0"/>
<polygon points="345 25 355 25 355 35 345 35 " fill="#ffd0d0"/>
<polygon points="330 10 350 10 350 30 330 30 " fill="#ffb0b0"/>
<polygon points="325 45 335 45 335 55 325 55 " fill="#ffd0d0"/>
<polygon points="325 65 335 65 335 75 325 75 " fill="#ffd0d0"/>
<polygon points="345 45 355 45 355 55 345 55 " fill="#ffd0d0"/>
<polygon points="345 65 355 65 355 75 345 75 " fill="#ffd0d0"/>
<polygon points="330 50 350 50 350 70 330 70 " fill="#ffb0b0"/>
<polygon points="365 5 375 5 375 15 365 15 " fill="#ffd0d0"/>
<polygon points="365 25 375 25 375 35 365 35 " fill="#ffd0d0"/>
<polygon points="385 5 395 5 395 15 385 15 " fill="#ffd0d0"/>
<polygon points="385 25 395 25 395 35 385 35 " fill="#ffd0d0"/>
<polygon points="370 10 390 10 390 30 370 30 " fill="#ffb0b0"/>
<polygon points="365 45 375 45 375 55 365 55 " fill="#ffd0d0"/>
<polygon points="365 65 375 65 375 75 365 75 " fill="#ffd0d0"/>
<polygon points="385 45 395 45 395 55 385 55 " fill="#ffd0d0"/>
<polygon points="385 65 395 65 395 75 385 75 " fill="#ffd0d0"/>
<polygon points="370 50 390 50 390 70 370 70 " fill="#ffb0b0"/>
<polygon points="340 20 380 20 380 60 340 60 " fill="#ff9090"/>
<polygon points="325 85 335 85 335 95 325 95 " fill="#ffd0d0"/>
<polygon points="325 105 335 105 335 115 325 115 " fill="#ffd0d0"/>
<polygon points="345 85 355 85 355 95 345 95 " fill="#ffd0d0"/>
<polygon points="345 105 355 105 355 115 345 115 " fill="#ffd0d0"/>
<polygon points="330 90 350 90 350 110 330 110 " fill="#ffb0b0"/>
<polygon points="325 125 335 125 335 135 325 135 " fill="#ffd0d0"/>
<polygon points="325 145 335 145 335 155 325 155 " fill="#ffd0d0"/>
<polygon points="345 125 355 125 355 135 345 135 " fill="#ffd0d0"/>
<polygon points="345 145 355 145 355 155 345 155 " fill="#ffd0d0"/>
<polygon points="330 130 350 130 350 150 330 150 " fill="#ffb0b0"/>
<polygon points="365 85 375 85 375 95 365 95 " fill="#ffd0d0"/>
<polygon points="365 105 375 105 375 115 365 115 " fill="#ffd0d0"/>
<polygon points="385 85 395 85 395 95 385 95 " fill="#ffd0d0"/>
<polygon points="385 105 395 105 395 115 385 115 " fill="#ffd0d0"/>
<polygon points="370 90 390 90 390 110 370 110 " fill="#ffb0b0"/>
<polygon points="365 125 375 125 375 135 365 135 " fill="#ffd0d0"/>
<polygon points="365 145 375 145 375 155 365 155 " fill="#ffd0d0"/>
<polygon points="385 125 395 125 395 135 385 135 " fill="#ffd0d0"/>
<polygon points="385 145 395 145 395 155 385 155 " fill="#ffd0d0"/>
<polygon points="370 130 390 130 390 150 370 150 " fill="#ffb0b0"/>
<polygon points="340 100 380 100 380 140 340 140 " fill="#ff9090"/>
<polygon points="405 5 415 5 415 15 405 15 " fill="#ffd0d0"/>
<polygon points="405 25 415 25 415 35 405 35 " fill="#ffd0d0"/>
<polygon points="425 5 435 5 435 15 425 15 " fill="#ffd0d0"/>
<polygon points="425 25 435 25 435 35 425 35 " fill="#ffd0d0"/>
<polygon points="410 10 430 10 430 30 410 30 " fill="#ffb0b0"/>
<polygon points="405 45 415 45 415 55 405 55 " fill="#ffd0d0"/>
<polygon points="405 65 415 65 415 75 405 75 " fill="#ffd0d0"/>
<polygon points="425 45 435 45 435 55 425 55 " fill="#ffd0d0"/>
<polygon points="425 65 435 65 435 75 425 75 " fill="#ffd0d0"/>
<polygon points="410 50 430 50 430 70 410 70 " fill="#ffb0b0"/>
<polygon points="445 5 455 5 455 15 445 15 " fill="#ffd0d0"/>
<polygon points="445 25 455 25 455 35 445 35 " fill="#ffd0d0"/>
<polygon points="465 5 475 5 475 15 465 15 " fill="#ffd0d0"/>
<polygon points="465 25 475 25 475 35 465 35 " fill="#ffd0d0"/>
<polygon points="450 10 470 10 470 30 450 30 " fill="#ffb0b0"/>
<polygon points="445 45 455 45 455 55 445 55 " fill="#ffd0d0"/>
<polygon points="445 65 455 65 455 75 445 75 " fill="#ffd0d0"/>
<polygon points="465 45 475 45 475 55 465 55 " fill="#ffd0d0"/>
<polygon points="465 65 475 65 475 75 465 75 " fill="#ffd0d0"/>
<polygon points="450 50 470 50 470 70 450 70 " fill="#ffb0b0"/>
<polygon points="420 20 460 20 460 60 420 60 " fill="#ff9090"/>
<polygon points="405 85 415 85 415 95 405 95 " fill="#ffd0d0"/>
<polygon points="405 105 415 105 415 115 405 115 " fill="#ffd0d0"/>
<polygon points="425 85 435 85 435 95 425 95 " fill="#ffd0d0"/>
<polygon points="425 105 435 105 435 115 425 115 " fill="#ffd0d0"/>
<polygon points="410 90 430 90 430 110 410 110 " fill="#ffb0b0"/>
<polygon points="405 125 415 125 415 135 405 135 " fill="#ffd0d0"/>
<polygon points="405 145 415 145 415 155 405 155 " fill="#ffd0d0"/>
<polygon points="425 125 435 125 435 135 425 135 " fill="#ffd0d0"/>
<polygon points="425 145 435 145 435 155 425 155 " fill="#ffd0d0"/>
<polygon points="410 130 430 130 430 150 410 150 " fill="#ffb0b0"/>
<polygon points="445 85 455 85 455 95 445 95 " fill="#ffd0d0"/>
<polygon points="445 105 455 105 455 115 445 115 " fill="#ffd0d0"/>
<polygon points="465 85 475 85 475 95 465 95 " fill="#ffd0d0"/>
<polygon points="465 105 475 105 475 115 465 115 " fill="#ffd0d0"/>
<polygon points="450 90 470 90 470 110 450 110 " fill="#ffb0b0"/>
<polygon points="445 125 455 125 455 135 445 135 " fill="#ffd0d0"/>
<polygon points="445 145 455 145 455 155 445 155 " fill="#ffd0d0"/>
<polygon points="465 125 475 125 475 135 465 135 " fill="#ffd0d0"/>
<polygon points="465 145 475 145 475 155 465 155 " fill="#ffd0d0"/>
<polygon points="450 130 470 130 470 150 450 150 " fill="#ffb0b0"/>
<polygon points="420 100 460 100 460 140 420 140 " fill="#ff9090"/>
<polygon points="360 40 440 40 440 120 360 120 " fill="#ff7070"/>
<polygon points="325 165 335 165 335 175 325 175 " fill="#ffd0d0"/>
<polygon points="325 185 335 185 335 195 325 195 " fill="#ffd0d0"/>
<polygon points="345 165 355 165 355 175 345 175 " fill="#ffd0d0"/>
<polygon points="345 185 355 185 355 195 345 195 " fill="#ffd0d0"/>
<polygon points="330 170 350 170 350 190 330 190 " fill="#ffb0b0"/>
<polygon points="325 205 335 205 335 215 325 215 " fill="#ffd0d0"/>
<polygon points="325 225 335 225 335 235 325 235 " fill="#ffd0d0"/>
<polygon points="345 205 355 205 355 215 345 215 " fill="#ffd0d0"/>
<polygon points="345 225 355 225 355 235 345 235 " fill="#ffd0d0"/>
<polygon points="330 210 350 210 350 230 330 230 " fill="#ffb0b0"/>
<polygon points="365 165 375 165 375 175 365 175 " fill="#ffd0d0"/>
<polygon points="365 185 375 185 375 195 365 195 " fill="#ffd0d0"/>
<polygon points="385 165 395 165 395 175 385 175 " fill="#ffd0d0"/>
<polygon points="385 185 395 185 395 195 385 195 " fill="#ffd0d0"/>
<polygon points="370 170 390 170 390 190 370 190 " fill="#ffb0b0"/>
<polygon points="365 205 375 205 375 215 365 215 " fill="#ffd0d0"/>
<polygon points="365 225 375 225 375 235 365 235 " fill="#ffd0d0"/>
<polygon points="385 205 395 205 395 215 385 215 " fill="#ffd0d0"/>
<polygon points="385 225 395 225 395 235 385 235 " fill="#ffd0d0"/>
<polygon points="370 210 390 210 390 230 370 230 " fill="#ffb0b0"/>
<polygon points="340 180 380 180 380 220 340 220 " fill="#ff9090"/>
<polygon points="325 245 335 245 335 255 325 255 " fill="#ffd0d0"/>
<polygon points="325 265 335 265 335 275 325 275 " fill="#ffd0d0"/>
<polygon points="345 245 355 245 355 255 345 255 " fill="#ffd0d0"/>
<polygon points="345 265 355 265 355 275 345 275 " fill="#ffd0d0"/>
<polygon points="330 250 350 250 350 270 330 270 " fill="#ffb0b0"/>
<polygon points="325 285 335 285 335 295 325 295 " fill="#ffd0d0"/>
<polygon points="325 305 335 305 335 315 325 315 " fill="#ffd0d0"/>
<polygon points="345 285 355 285 355 295 345 295 " fill="#ffd0d0"/>
<polygon points="345 305 355 305 355 315 345 315 " fill="#ffd0d0"/>
<polygon points="330 290 350 290 350 310 330 310 " fill="#ffb0b0"/>
<polygon points="365 245 375 245 375 255 365 255 " fill="#ffd0d0"/>
<polygon points="365 265 375 265 375 275 365 275 " fill="#ffd0d0"/>
<polygon points="385 245 395 245 395 255 385 255 " fill="#ffd0d0"/>
<polygon points="385 265 395 265 395 275 385 275 " fill="#ffd0d0"/>
<polygon points="370 250 390 250 390 270 370 270 " fill="#ffb0b0"/>
<polygon points="365 285 375 285 375 295 365 295 " fill="#ffd0d0"/>
<polygon points="365 305 375 305 375 315 365 315 " fill="#ffd0d0"/>
<polygon points="385 285 395 285 395 295 385 295 " fill="#ffd0d0"/>
<polygon points="385 305 395 305 395 315 385 315 " fill="#ffd0d0"/>
<polygon points="370 290 390 290 390 310 370 310 " fill="#ffb0b0"/>
<polygon points="340 260 380 260 380 300 340 300 " fill="#ff9090"/>
<polygon points="405 165 415 165 415 175 405 175 " fill="#ffd0d0"/>
<polygon points="405 185 415 185 415 195 405 195 " fill="#ffd0d0"/>
<polygon points="425 165 435 165 435 175 425 175 " fill="#ffd0d0"/>
<polygon points="425 185 435 185 435 195 425 195 " fill="#ffd0d0"/>
<polygon points="410 170 430 170 430 190 410 190 " fill="#ffb0b0"/>
<polygon points="405 205 415 205 415 215 405 215 " fill="#ffd0d0"/>
<polygon points="405 225 415 225 415 235 405 235 " fill="#ffd0d0"/>
<polygon points="425 205 435 205 435 215 425 215 " fill="#ffd0d0"/>
<polygon points="425 225 435 225 435 235 425 235 " fill="#ffd0d0"/>
<polygon points="410 210 430 210 430 230 410 230 " fill="#ffb0b0"/>
<polygon points="445 165 455 165 455 175 445 175 " fill="#ffd0d0"/>
<polygon points="445 185 455 185 455 195 445 195 " fill="#ffd0d0"/>
<polygon points="465 165 475 165 475 175 465 175 " fill="#ffd0d0"/>
<polygon points="465 185 475 185 475 195 465 195 " fill="#ffd0d0"/>
<polygon points="450 170 470 170 470 190 450 190 " fill="#ffb0b0"/>
<polygon points="445 205 455 205 455 215 445 215 " fill="#ffd0d0"/>
<polygon points="445 225 455 225 455 235 445 235 " fill="#ffd0d0"/>
<polygon points="465 205 475 205 475 215 465 215 " fill="#ffd0d0"/>
<polygon points="465 225 475 225 475 235 465 235 " fill="#ffd0d0"/>
<polygon points="450 210 470 210 470 230 450 230 " fill="#ffb0b0"/>
<polygon points="420 180 460 180 460 220 420 220 " fill="#ff9090"/>
<polygon points="405 245 415 245 415 255 405 255 " fill="#ffd0d0"/>
<polygon points="405 265 415 265 415 275 405 275 " fill="#ffd0d0"/>
<polygon points="425 245 435 245 435 255 425 255 " fill="#ffd0d0"/>
<polygon points="425 265 435 265 435 275 425 275 " fill="#ffd0d0"/>
<polygon points="410 250 430 250 430 270 410 270 " fill="#ffb0b0"/>
<polygon points="405 285 415 285 415 295 405 295 " fill="#ffd0d0"/>
<polygon points="405 305 415 305 415 315 405 315 " fill="#ffd0d0"/>
<polygon points="425 285 435 285 435 295 425 295 " fill="#ffd0d0"/>
<polygon points="425 305 435 305 435 315 425 315 " fill="#ffd0d0"/>
<polygon points="410 290 430 290 430 310 410 310 " fill="#ffb0b0"/>
<polygon points="445 245 455 245 455 255 445 255 " fill="#ffd0d0"/>
<polygon points="445 265 455 265 455 275 445 275 " fill="#ffd0d0"/>
<polygon points="465 245 475 245 475 255 465 255 " fill="#ffd0d0"/>
<polygon points="465 265 475 265 475 275 465 275 " fill="#ffd0d0"/>
<polygon points="450 250 470 250 470 270 450 270 " fill="#ffb0b0"/>
<polygon points="445 285 455 285 455 295 445 295 " fill="#ffd0d0"/>
<polygon points="445 305 455 305 455 315 445 315 " fill="#ffd0d0"/>
<polygon points="465 285 475 285 475 295 465 295 " fill="#ffd0d0"/>
<polygon points="465 305 475 305 475 315 465 315 " fill="#ffd0d0"/>
<polygon points="450 290 470 290 470 310 450 310 " fill="#ffb0b0"/>
<polygon points="420 260 460 260 460 300 420 300 " fill="#ff9090"/>
<polygon points="360 200 440 200 440 280 360 280 " fill="#ff7070"/>
<polygon points="485 5 495 5 495 15 485 15 " fill="#ffd0d0"/>
<polygon points="485 25 495 25 495 35 485 35 " fill="#ffd0d0"/>
<polygon points="505 5 515 5 515 15 505 15 " fill="#ffd0d0"/>
<polygon points="505 25 515 25 515 35 505 35 " fill="#ffd0d0"/>
<polygon points="490 10 510 10 510 30 490 30 " fill="#ffb0b0"/>
<polygon points="485 45 495 45 495 55 485 55 " fill="#ffd0d0"/>
<polygon points="485 65 495 65 495 75 485 75 " fill="#ffd0d0"/>
<polygon points="505 45 515 45 515 55 505 55 " fill="#ffd0d0"/>
<polygon points="505 65 515 65 515 75 505 75 " fill="#ffd0d0"/>
<polygon points="490 50 510 50 510 70 490 70 " fill="#ffb0b0"/>
<polygon points="525 5 535 5 535 15 525 15 " fill="#ffd0d0"/>
<polygon points="525 25 535 25 535 35 525 35 " fill="#ffd0d0"/>
<polygon points="545 5 555 5 555 15 545 15 " fill="#ffd0d0"/>
<polygon points="545 25 555 25 555 35 545 35 " fill="#ffd0d0"/>
<polygon points="530 10 550 10 550 30 530 30 " fill="#ffb0b0"/>
<polygon points="525 45 535 45 535 55 525 55 " fill="#ffd0d0"/>
<polygon points="525 65 535 65 535 75 525 75 " fill="#ffd0d0"/>
<polygon points="545 45 555 45 555 55 545 55 " fill="#ffd0d0"/>
<polygon points="545 65 555 65 555 75 545 75 " fill="#ffd0d0"/>
<polygon points="530 50 550 50 550 70 530 70 " fill="#ffb0b0"/>
<polygon points="500 20 540 20 540 60 500 60 " fill="#ff9090"/>
<polygon points="485 85 495 85 495 95 485 95 " fill="#ffd0d0"/>
<polygon points="485 105 495 105 495 115 485 115 " fill="#ffd0d0"/>
<polygon points="505 85 515 85 515 95 505 95 " fill="#ffd0d0"/>
<polygon points="505 105 515 105 515 115 505 115 " fill="#ffd0d0"/>
<polygon points="490 90 510 90 510 110 490 110 " fill="#ffb0b0"/>
<polygon points="485 125 495 125 495 135 485 135 " fill="#ffd0d0"/>
<polygon points="485 145 495 145 495 155 485 155 " fill="#ffd0d0"/>
<polygon points="505 125 515 125 515 135 505 135 " fill="#ffd0d0"/>
<polygon points="505 145 515 145 515 155 505 155 " fill="#ffd0d0"/>
<polygon points="490 130 510 130 510 150 490 150 " fill="#ffb0b0"/>
<polygon points="525 85 535 85 535 95 525 95 " fill="#ffd0d0"/>
<polygon points="525 105 535 105 535 115 525 115 " fill="#ffd0d0"/>
<polygon points="545 85 555 85 555 95 545 95 " fill="#ffd0d0"/>
<polygon points="545 105 555 105 555 115 545 115 " fill="#ffd0d0"/>
<polygon points="530 90 550 90 550 110 530 110 " fill="#ffb0b0"/>
<polygon points="525 125 535 125 535 135 525 135 " fill="#ffd0d0"/>
<polygon points="525 145 535 145 535 155 525 155 " fill="#ffd0d0"/>
<polygon points="545 125 555 125 555 135 545 135 " fill="#ffd0d0"/>
<polygon points="545 145 555 145 555 155 545 155 " fill="#ffd0d0"/>
<polygon points="530 130 550 130 550 150 530 150 " fill="#ffb0b0"/>
<polygon points="500 100 540 100 540 140 500 140 " fill="#ff9090"/>
<polygon points="565 5 575 5 575 15 565 15 " fill="#ffd0d0"/>
<polygon points="565 25 575 25 575 35 565 35 " fill="#ffd0d0"/>
<polygon points="585 5 595 5 595 15 585 15 " fill="#ffd0d0"/>
<polygon points="585 25 595 25 595 35 585 35 " fill="#ffd0d0"/>
<polygon points="570 10 590 10 590 30 570 30 " fill="#ffb0b0"/>
<polygon points="565 45 575 45 575 55 565 55 " fill="#ffd0d0"/>
<polygon points="565 65 575 65 575 75 565 75 " fill="#ffd0d0"/>
<polygon points="585 45 595 45 595 55 585 55 " fill="#ffd0d0"/>
<polygon points="585 65 595 65 595 75 585 75 " fill="#ffd0d0"/>
<polygon points="570 50 590 50 590 70 570 70 " fill="#ffb0b0"/>
<polygon points="605 5 615 5 615 15 605 15 " fill="#ffd0d0"/>
<polygon points="605 25 615 25 615 35 605 35 " fill="#ffd0d0"/>
<polygon points="625 5 635 5 635 15 625 15 " fill="#ffd0d0"/>
<polygon points="625 25 635 25 635 35 625 35 " fill="#ffd0d0"/>
<polygon points="610 10 630 10 630 30 610 30 " fill="#ffb0b0"/>
<polygon points="605 45 615 45 615 55 605 55 " fill="#ffd0d0"/>
<polygon points="605 65 615 65 615 75 605 75 " fill="#ffd0d0"/>
<polygon points="625 45 635 45 635 55 625 55 " fill="#ffd0d0"/>
<polygon points="625 65 635 65 635 75 625 75 " fill="#ffd0d0"/>
<polygon points="610 50 630 50 630 70 610 70 " fill="#ffb0b0"/>
<polygon points="580 20 620 20 620 60 580 60 " fill="#ff9090"/>
<polygon points="565 85 575 85 575 95 565 95 " fill="#ffd0d0"/>
<polygon points="565 105 575 105 575 115 565 115 " fill="#ffd0d0"/>
<polygon points="585 85 595 85 595 95 585 95 " fill="#ffd0d0"/>
<polygon points="585 105 595 105 595 115 585 115 " fill="#ffd0d0"/>
<polygon points="570 90 590 90 590 110 570 110 " fill="#ffb0b0"/>
<polygon points="565 125 575 125 575 135 565 135 " fill="#ffd0d0"/>
<polygon points="565 145 575 145 575 155 565 155 " fill="#ffd0d0"/>
<polygon points="585 125 595 125 595 135 585 135 " fill="#ffd0d0"/>
<polygon points="585 145 595 145 595 155 585 155 " fill="#ffd0d0"/>
<polygon points="570 130 590 130 590 150 570 150 " fill="#ffb0b0"/>
<polygon points="605 85 615 85 615 95 605 95 " fill="#ffd0d0"/>
<polygon points="605 105 615 105 615 115 605 115 " fill="#ffd0d0"/>
<polygon points="625 85 635 85 635 95 625 95 " fill="#ffd0d0"/>
<polygon points="625 105 635 105 635 115 625 115 " fill="#ffd0d0"/>
<polygon points="610 90 630 90 630 110 610 110 " fill="#ffb0b0"/>
<polygon points="605 125 615 125 615 135 605 135 " fill="#ffd0d0"/>
<polygon points="605 145 615 145 615 155 605 155 " fill="#ffd0d0"/>
<polygon points="625 125 635 125 635 135 625 135 " fill="#ffd0d0"/>
<polygon points="625 145 635 145 635 155 625 155 " fill="#ffd0d0"/>
<polygon points="610 130 630 130 630 150 610 150 " fill="#ffb0b0"/>
<polygon points="580 100 620 100 620 140 580 140 " fill="#ff9090"/>
<polygon points="520 40 600 40 600 120 520 120 " fill="#ff7070"/>
<polygon points="485 165 495 165 495 175 485 175 " fill="#ffd0d0"/>
<polygon points="485 185 495 185 495 195 485 195 " fill="#ffd0d0"/>
<polygon points="505 165 515 165 515 175 505 175 " fill="#ffd0d0"/>
<polygon points="505 185 515 185 515 195 505 195 " fill="#ffd0d0"/>
<polygon points="490 170 510 170 510 190 490 190 " fill="#ffb0b0"/>
<polygon points="485 205 495 205 495 215 485 215 " fill="#ffd0d0"/>
<polygon points="485 225 495 225 495 235 485 235 " fill="#ffd0d0"/>
<polygon points="505 205 515 205 515 215 505 215 " fill="#ffd0d0"/>
<polygon points="505 225 515 225 515 235 505 235 " fill="#ffd0d0"/>
<polygon points="490 210 510 210 510 230 490 230 " fill="#ffb0b0"/>
<polygon points="525 165 535 165 535 175 525 175 " fill="#ffd0d0"/>
<polygon points="525 185 535 185 535 195 525 195 " fill="#ffd0d0"/>
<polygon points="545 165 555 165 555 175 545 175 " fill="#ffd0d0"/>
<polygon points="545 185 555 185 555 195 545 195 " fill="#ffd0d0"/>
<polygon points="530 170 550 170 550 190 530 190 " fill="#ffb0b0"/>
<polygon points="525 205 535 205 535 215 525 215 " fill="#ffd0d0"/>
<polygon points="525 225 535 225 535 235 525 235 " fill="#ffd0d0"/>
<polygon points="545 205 555 205 555 215 545 215 " fill="#ffd0d0"/>
<polygon points="545 225 555 225 555 235 545 235 " fill="#ffd0d0"/>
<polygon points="530 210 550 210 550 230 530 230 " fill="#ffb0b0"/>
<polygon points="500 180 540 180 540 220 500 220 " fill="#ff9090"/>
<polygon points="485 245 495 245 495 255 485 255 " fill="#ffd0d0"/>
<polygon points="485 265 495 265 495 275 485 275 " fill="#ffd0d0"/>
<polygon points="505 245 515 245 515 255 505 255 " fill="#ffd0d0"/>
<polygon points="505 265 515 265 515 275 505 275 " fill="#ffd0d0"/>
<polygon points="490 250 510 250 510 270 490 270 " fill="#ffb0b0"/>
<polygon points="485 285 495 285 495 295 485 295 " fill="#ffd0d0"/>
<polygon points="485 305 495 305 495 315 485 315 " fill="#ffd0d0"/>
<polygon points="505 285 515 285 515 295 505 295 " fill="#ffd0d0"/>
<polygon points="505 305 515 305 515 315 505 315 " fill="#ffd0d0"/>
<polygon points="490 290 510 290 510 310 490 310 " fill="#ffb0b0"/>
<polygon points="525 245 535 245 535 255 525 255 " fill="#ffd0d0"/>
<polygon points="525 265 535 265 535 275 525 275 " fill="#ffd0d0"/>
<polygon points="545 245 555 245 555 255 545 255 " fill="#ffd0d0"/>
<polygon points="545 265 555 265 555 275 545 275 " fill="#ffd0d0"/>
<polygon points="530 250 550 250 550 270 530 270 " fill="#ffb0b0"/>
<polygon points="525 285 535 285 535 295 525 295 " fill="#ffd0d0"/>
<polygon points="525 305 535 305 535 315 525 315 " fill="#ffd0d0"/>
<polygon points="545 285 555 285 555 295 545 295 " fill="#ffd0d0"/>
<polygon points="545 305 555 305 555 315 545 315 " fill="#ffd0d0"/>
<polygon points="530 290 550 290 550 310 530 310 " fill="#ffb0b0"/>
<polygon points="500 260 540 260 540 300 500 300 " fill="#ff9090"/>
<polygon points="565 165 575 165 575 175 565 175 " fill="#ffd0d0"/>
<polygon points="565 185 575 185 575 195 565 195 " fill="#ffd0d0"/>
<polygon points="585 165 595 165 595 175 585 175 " fill="#ffd0d0"/>
<polygon points="585 185 595 185 595 195 585 195 " fill="#ffd0d0"/>
<polygon points="570 170 590 170 590 190 570 190 " fill="#ffb0b0"/>
<polygon points="565 205 575 205 575 215 565 215 " fill="#ffd0d0"/>
<polygon points="565 225 575 225 575 235 565 235 " fill="#ffd0d0"/>
<polygon points="585 205 595 205 595 215 585 215 " fill="#ffd0d0"/>
<polygon points="585 225 595 225 595 235 585 235 " fill="#ffd0d0"/>
<polygon points="570 210 590 210 590 230 570 230 " fill="#ffb0b0"/>
<polygon points="605 165 615 165 615 175 605 175 " fill="#ffd0d0"/>
<polygon points="605 185 615 185 615 195 605 195 " fill="#ffd0d0"/>
<polygon points="625 165 635 165 635 175 625 175 " fill="#ffd0d0"/>
<polygon points="625 185 635 185 635 195 625 195 " fill="#ffd0d0"/>
<polygon points="610 170 630 170 630 190 610 190 " fill="#ffb0b0"/>
<polygon points="605 205 615 205 615 215 605 215 " fill="#ffd0d0"/>
<polygon points="605 225 615 225 615 235 605 235 " fill="#ffd0d0"/>
<polygon points="625 205 635 205 635 215 625 215 " fill="#ffd0d0"/>
<polygon points="625 225 635 225 635 235 625 235 " fill="#ffd0d0"/>
<polygon points="610 210 630 210 630 230 610 230 " fill="#ffb0b0"/>
<polygon points="580 180 620 180 620 220 580 220 " fill="#ff9090"/>
<polygon points="565 245 575 245 575 255 565 255 " fill="#ffd0d0"/>
<polygon points="565 265 575 265 575 275 565 275 " fill="#ffd0d0"/>
<polygon points="585 245 595 245 595 255 585 255 " fill="#ffd0d0"/>
<polygon points="585 265 595 265 595 275 585 275 " fill="#ffd0d0"/>
<polygon points="570 250 590 250 590 270 570 270 " fill="#ffb0b0"/>
<polygon points="565 285 575 285 575 295 565 295 " fill="#ffd0d0"/>
<polygon points="565 305 575 305 575 315 565 315 " fill="#ffd0d0"/>
<polygon points="585 285 595 285 595 295 585 295 " fill="#ffd0d0"/>
<polygon points="585 305 595 305 595 315 585 315 " fill="#ffd0d0"/>
<polygon points="570 290 590 290 590 310 570 310 " fill="#ffb0b0"/>
<polygon points="605 245 615 245 615 255 605 255 " fill="#ffd0d0"/>
<polygon points="605 265 615 265 615 275 605 275 " fill="#ffd0d0"/>
<polygon points="625 245 635 245 635 255 625 255 " fill="#ffd0d0"/>
<polygon points="625 265 635 265 635 275 625 275 " fill="#ffd0d0"/>
<polygon points="610 250 630 250 630 270 610 270 " fill="#ffb0b0"/>
<polygon points="605 285 615 285 615 295 605 295 " fill="#ffd0d0"/>
<polygon points="605 305 615 305 615 315 605 315 " fill="#ffd0d0"/>
<polygon points="625 285 635 285 635 295 625 295 " fill="#ffd0d0"/>
<polygon points="625 305 635 305 635 315 625 315 " fill="#ffd0d0"/>
<polygon points="610 290 630 290 630 310 610 310 " fill="#ffb0b0"/>
<polygon points="580 260 620 260 620 300 580 300 " fill="#ff9090"/>
<polygon points="520 200 600 200 600 280 520 280 " fill="#ff7070"/>
<polygon points="400 80 560 80 560 240 400 240 " fill="#ff5050"/>
<polygon points="325 325 335 325 335 335 325 335 " fill="#ffd0d0"/>
<polygon points="325 345 335 345 335 355 325 355 " fill="#ffd0d0"/>
<polygon points="345 325 355 325 355 335 345 335 " fill="#ffd0d0"/>
<polygon points="345 345 355 345 355 355 345 355 " fill="#ffd0d0"/>
<polygon points="330 330 350 330 350 350 330 350 " fill="#ffb0b0"/>
<polygon points="325 365 335 365 335 375 325 375 " fill="#ffd0d0"/>
<polygon points="325 385 335 385 335 395 325 395 " fill="#ffd0d0"/>
<polygon points="345 365 355 365 355 375 345 375 " fill="#ffd0d0"/>
<polygon points="345 385 355 385 355 395 345 395 " fill="#ffd0d0"/>
<polygon points="330 370 350 370 350 390 330 390 " fill="#ffb0b0"/>
<polygon points="365 325 375 325 375 335 365 335 " fill="#ffd0d0"/>
<polygon points="365 345 375 345 375 355 365 355 " fill="#ffd0d0"/>
<polygon points="385 325 395 325 395 335 385 335 " fill="#ffd0d0"/>
<polygon points="385 345 395 345 395 355 385 355 " fill="#ffd0d0"/>
<polygon points="370 330 390 330 390 350 370 350 " fill="#ffb0b0"/>
<polygon points="365 365 375 365 375 375 365 375 " fill="#ffd0d0"/>
<polygon points="365 385 375 385 375 395 365 395 " fill="#ffd0d0"/>
<polygon points="385 365 395 365 395 375 385 375 " fill="#ffd0d0"/>
<polygon points="385 385 395 385 395 395 385 395 " fill="#ffd0d0"/>
<polygon points="370 370 390 370 390 390 370 390 " fill="#ffb0b0"/>
<polygon points="340 340 380 340 380 380 340 380 " fill="#ff9090"/>
<polygon points="325 405 335 405 335 415 325 415 " fill="#ffd0d0"/>
<polygon points="325 425 335 425 335 435 325 435 " fill="#ffd0d0"/>
<polygon points="345 405 355 405 355 415 345 415 " fill="#ffd0d0"/>
<polygon points="345 425 355 425 355 435 345 435 " fill="#ffd0d0"/>
<polygon points="330 410 350 410 350 430 330 430 " fill="#ffb0b0"/>
<polygon points="325 445 335 445 335 455 325 455 " fill="#ffd0d0"/>
<polygon points="325 465 335 465 335 475 325 475 " fill="#ffd0d0"/>
<polygon points="345 445 355 445 355 455 345 455 " fill="#ffd0d0"/>
<polygon points="345 465 355 465 355 475 345 475 " fill="#ffd0d0"/>
<polygon points="330 450 350 450 350 470 330 470 " fill="#ffb0b0"/>
<polygon points="365 405 375 405 375 415 365 415 " fill="#ffd0d0"/>
<polygon points="365 425 375 425 375 435 365 435 " fill="#ffd0d0"/>
<polygon points="385 405 395 405 395 415 385 415 " fill="#ffd0d0"/>
<polygon points="385 425 395 425 395 435 385 435 " fill="#ffd0d0"/>
<polygon points="370 410 390 410 390 430 370 430 " fill="#ffb0b0"/>
<polygon points="365 445 375 445 375 455 365 455 " fill="#ffd0d0"/>
<polygon points="365 465 375 465 375 475 365 475 " fill="#ffd0d0"/>
<polygon points="385 445 395 445 395 455 385 455 " fill="#ffd0d0"/>
<polygon points="385 465 395 465 395 475 385 475 " fill="#ffd0d0"/>
<polygon points="370 450 390 450 390 470 370 470 " fill="#ffb0b0"/>
<polygon points="340 420 380 420 380 460 340 460 " fill="#ff9090"/>
<polygon points="405 325 415 325 415 335 405 335 " fill="#ffd0d0"/>
<polygon points="405 345 415 345 415 355 405 355 " fill="#ffd0d0"/>
<polygon points="425 325 435 325 435 335 425 335 " fill="#ffd0d0"/>
<polygon points="425 345 435 345 435 355 425 355 " fill="#ffd0d0"/>
<polygon points="410 330 430 330 430 350 410 350 " fill="#ffb0b0"/>
<polygon points="405 365 415 365 415 375 405 375 " fill="#ffd0d0"/>
<polygon points="405 385 415 385 415 395 405 395 " fill="#ffd0d0"/>
<polygon points="425 365 435 365 435 375 425 375 " fill="#ffd0d0"/>
<polygon points="425 385 435 385 435 395 425 395 " fill="#ffd0d0"/>
<polygon points="410 370 430 370 430 390 410 390 " fill="#ffb0b0"/>
<polygon points="445 325 455 325 455 335 445 335 " fill="#ffd0d0"/>
<polygon points="445 345 455 345 455 355 445 355 " fill="#ffd0d0"/>
<polygon points="465 325 475 325 475 335 465 335 " fill="#ffd0d0"/>
<polygon points="465 345 475 345 475 355 465 355 " fill="#ffd0d0"/>
<polygon points="450 330 470 330 470 350 450 350 " fill="#ffb0b0"/>
<polygon points="445 365 455 365 455 375 445 375 " fill="#ffd0d0"/>
<polygon points="445 385 455 385 455 395 445 395 " fill="#ffd0d0"/>
<polygon points="465 365 475 365 475 375 465 375 " fill="#ffd0d0"/>
<polygon points="465 385 475 385 475 395 465 395 " fill="#ffd0d0"/>
<polygon points="450 370 470 370 470 390 450 390 " fill="#ffb0b0"/>
<polygon points="420 340 460 340 460 380 420 380 " fill="#ff9090"/>
<polygon points="405 405 415 405 415 415 405 415 " fill="#ffd0d0"/>
<polygon points="405 425 415 425 415 435 405 435 " fill="#ffd0d0"/>
<polygon points="425 405 435 405 435 415 425 415 " fill="#ffd0d0"/>
<polygon points="425 425 435 425 435 435 425 435 " fill="#ffd0d0"/>
<polygon points="410 410 430 410 430 430 410 430 " fill="#ffb0b0"/>
<polygon points="405 445 415 445 415 455 405 455 " fill="#ffd0d0"/>
<polygon points="405 465 415 465 415 475 405 475 " fill="#ffd0d0"/>
<polygon points="425 445 435 445 435 455 425 455 " fill="#ffd0d0"/>
<polygon points="425 465 435 465 435 475 425 475 " fill="#ffd0d0"/>
<polygon points="410 450 430 450 430 470 410 470 " fill="#ffb0b0"/>
<polygon points="445 405 455 405 455 415 445 415 " fill="#ffd0d0"/>
<polygon points="445 425 455 425 455 435 445 435 " fill="#ffd0d0"/>
<polygon points="465 405 475 405 475 415 465 415 " fill="#ffd0d0"/>
<polygon points="465 425 475 425 475 435 465 435 " fill="#ffd0d0"/>
<polygon points="450 410 470 410 470 430 450 430 " fill="#ffb0b0"/>
<polygon points="445 445 455 445 455 455 445 455 " fill="#ffd0d0"/>
<polygon points="445 465 455 465 455 475 445 475 " fill="#ffd0d0"/>
<polygon points="465 445 475 445 475 455 465 455 " fill="#ffd0d0"/>
<polygon points="465 465 475 465 475 475 465 475 " fill="#ffd0d0"/>
<polygon points="450 450 470 450 470 470 450 470 " fill="#ffb0b0"/>
<polygon points="420 420 460 420 460 460 420 460 " fill="#ff9090"/>
<polygon points="360 360 440 360 440 440 360 440 " fill="#ff7070"/>
<polygon points="325 485 335 485 335 495 325 495 " fill="#ffd0d0"/>
<polygon points="325 505 335 505 335 515 325 515 " fill="#ffd0d0"/>
<polygon points="345 485 355 485 355 495 345 495 " fill="#ffd0d0"/>
<polygon points="345 505 355 505 355 515 345 515 " fill="#ffd0d0"/>
<polygon points="330 490 350 490 350 510 330 510 " fill="#ffb0b0"/>
<polygon points="325 525 335 525 335 535 325 535 " fill="#ffd0d0"/>
<polygon points="325 545 335 545 335 555 325 555 " fill="#ffd0d0"/>
<polygon points="345 525 355 525 355 535 345 535 " fill="#ffd0d0"/>
<polygon points="345 545 355 545 355 555 345 555 " fill="#ffd0d0"/>
<polygon points="330 530 350 530 350 550 330 550 " fill="#ffb0b0"/>
<polygon points="365 485 375 485 375 495 365 495 " fill="#ffd0d0"/>
<polygon points="365 505 375 505 375 515 365 515 " fill="#ffd0d0"/>
<polygon points="385 485 395 485 395 495 385 495 " fill="#ffd0d0"/>
<polygon points="385 505 395 505 395 515 385 515 " fill="#ffd0d0"/>
<polygon points="370 490 390 490 390 510 370 510 " fill="#ffb0b0"/>
<polygon points="365 525 375 525 375 535 365 535 " fill="#ffd0d0"/>
<polygon points="365 545 375 545 375 555 365 555 " fill="#ffd0d0"/>
<polygon points="385 525 395 525 395 535 385 535 " fill="#ffd0d0"/>
<polygon points="385 545 395 545 395 555 385 555 " fill="#ffd0d0"/>
<polygon points="370 530 390 530 390 550 370 550 " fill="#ffb0b0"/>
<polygon points="340 500 380 500 380 540 340 540 " fill="#ff9090"/>
<polygon points="325 565 335 565 335 575 325 575 " fill="#ffd0d0"/>
<polygon points="325 585 335 585 335 595 325 595 " fill="#ffd0d0"/>
<polygon points="345 565 355 565 355 575 345 575 " fill="#ffd0d0"/>
<polygon points="345 585 355 585 355 595 345 595 " fill="#ffd0d0"/>
<polygon points="330 570 350 570 350 590 330 590 " fill="#ffb0b0"/>
<polygon points="325 605 335 605 335 615 325 615 " fill="#ffd0d0"/>
<polygon points="325 625 335 625 335 635 325 635 " fill="#ffd0d0"/>
<polygon points="345 605 355 605 355 615 345 615 " fill="#ffd0d0"/>
<polygon points="345 625 355 625 355 635 345 635 " fill="#ffd0d0"/>
<polygon points="330 610 350 610 350 630 330 630 " fill="#ffb0b0"/>
<polygon points="365 565 375 565 375 575 365 575 " fill="#ffd0d0"/>
<polygon points="365 585 375 585 375 595 365 595 " fill="#ffd0d0"/>
<polygon points="385 565 395 565 395 575 385 575 " fill="#ffd0d0"/>
<polygon points="385 585 395 585 395 595 385 595 " fill="#ffd0d0"/>
<polygon points="370 570 390 570 390 590 370 590 " fill="#ffb0b0"/>
<polygon points="365 605 375 605 375 615 365 615 " fill="#ffd0d0"/>
<polygon points="365 625 375 625 375 635 365 635 " fill="#ffd0d0"/>
<polygon points="385 605 395 605 395 615 385 615 " fill="#ffd0d0"/>
<polygon points="385 625 395 625 395 635 385 635 " fill="#ffd0d0"/>
<polygon points="370 610 390 610 390 630 370 630 " fill="#ffb0b0"/>
<polygon points="340 580 380 580 380 620 340 620 " fill="#ff9090"/>
<polygon points="405 485 415 485 415 495 405 495 " fill="#ffd0d0"/>
<polygon points="405 505 415 505 415 515 405 515 " fill="#ffd0d0"/>
<polygon points="425 485 435 485 435 495 425 495 " fill="#ffd0d0"/>
<polygon points="425 505 435 505 435 515 425 515 " fill="#ffd0d0"/>
<polygon points="410 490 430 490 430 510 410 510 " fill="#ffb0b0"/>
<polygon points="405 525 415 525 415 535 405 535 " fill="#ffd0d0"/>
<polygon points="405 545 415 545 415 555 405 555 " fill="#ffd0d0"/>
<polygon points="425 525 435 525 435 535 425 535 " fill="#ffd0d0"/>
<polygon points="425 545 435 545 435 555 425 555 " fill="#ffd0d0"/>
<polygon points="410 530 430 530 430 550 410 550 " fill="#ffb0b0"/>
<polygon points="445 485 455 485 455 495 445 495 " fill="#ffd0d0"/>
<polygon points="445 505 455 505 455 515 445 515 " fill="#ffd0d0"/>
<polygon points="465 485 475 485 475 495 465 495 " fill="#ffd0d0"/>
<polygon points="465 505 475 505 475 515 465 515 " fill="#ffd0d0"/>
<polygon points="450 490 470 490 470 510 450 510 " fill="#ffb0b0"/>
<polygon points="445 525 455 525 455 535 445 535 " fill="#ffd0d0"/>
<polygon points="445 545 455 545 455 555 445 555 " fill="#ffd0d0"/>
<polygon points="465 525 475 525 475 535 465 535 " fill="#ffd0d0"/>
<polygon points="465 545 475 545 475 555 465 555 " fill="#ffd0d0"/>
<polygon points="450 530 470 530 470 550 450 550 " fill="#ffb0b0"/>
<polygon points="420 500 460 500 460 540 420 540 " fill="#ff9090"/>
<polygon points="405 565 415 565 415 575 405 575 " fill="#ffd0d0"/>
<polygon points="405 585 415 585 415 595 405 595 " fill="#ffd0d0"/>
<polygon points="425 565 435 565 435 575 425 575 " fill="#ffd0d0"/>
<polygon points="425 585 435 585 435 595 425 595 " fill="#ffd0d0"/>
<polygon points="410 570 430 570 430 590 410 590 " fill="#ffb0b0"/>
<polygon points="405 605 415 605 415 615 405 615 " fill="#ffd0d0"/>
<polygon points="405 625 415 625 415 635 405 635 " fill="#ffd0d0"/>
<polygon points="425 605 435 605 435 615 425 615 " fill="#ffd0d0"/>
<polygon points="425 625 435 625 435 635 425 635 " fill="#ffd0d0"/>
<polygon points="410 610 430 610 430 630 410 630 " fill="#ffb0b0"/>
<polygon points="445 565 455 565 455 575 445 575 " fill="#ffd0d0"/>
<polygon points="445 585 455 585 455 595 445 595 " fill="#ffd0d0"/>
<polygon points="465 565 475 565 475 575 465 575 " fill="#ffd0d0"/>
<polygon points="465 585 475 585 475 595 465 595 " fill="#ffd0d0"/>
<polygon points="450 570 470 570 470 590 450 590 " fill="#ffb0b0"/>
<polygon points="445 605 455 605 455 615 445 615 " fill="#ffd0d0"/>
<polygon points="445 625 455 625 455 635 445 635 " fill="#ffd0d0"/>
<polygon points="465 605 475 605 475 615 465 615 " fill="#ffd0d0"/>
<polygon points="465 625 475 625 475 635 465 635 " fill="#ffd0d0"/>
<polygon points="450 610 470 610 470 630 450 630 " fill="#ffb0b0"/>
<polygon points="420 580 460 580 460 620 420 620 " fill="#ff9090"/>
<polygon points="360 520 440 520 440 600 360 600 " fill="#ff7070"/>
<polygon points="485 325 495 325 495 335 485 335 " fill="#ffd0d0"/>
<polygon points="485 345 495 345 495 355 485 355 " fill="#ffd0d0"/>
<polygon points="505 325 515 325 515 335 505 335 " fill="#ffd0d0"/>
<polygon points="505 345 515 345 515 355 505 355 " fill="#ffd0d0"/>
<polygon points="490 330 510 330 510 350 490 350 " fill="#ffb0b0"/>
<polygon points="485 365 495 365 495 375 485 375 " fill="#ffd0d0"/>
<polygon points="485 385 495 385 495 395 485 395 " fill="#ffd0d0"/>
<polygon points="505 365 515 365 515 375 505 375 " fill="#ffd0d0"/>
<polygon points="505 385 515 385 515 395 505 395 " fill="#ffd0d0"/>
<polygon points="490 370 510 370 510 390 490 390 " fill="#ffb0b0"/>
<polygon points="525 325 535 325 535 335 525 335 " fill="#ffd0d0"/>
<polygon points="525 345 535 345 535 355 525 355 " fill="#ffd0d0"/>
<polygon points="545 325 555 325 555 335 545 335 " fill="#ffd0d0"/>
<polygon points="545 345 555 345 555 355 545 355 " fill="#ffd0d0"/>
<polygon points="530 330 550 330 550 350 530 350 " fill="#ffb0b0"/>
<polygon points="525 365 535 365 535 375 525 375 " fill="#ffd0d0"/>
<polygon points="525 385 535 385 535 395 525 395 " fill="#ffd0d0"/>
<polygon points="545 365 555 365 555 375 545 375 " fill="#ffd0d0"/>
<polygon points="545 385 555 385 555 395 545 395 " fill="#ffd0d0"/>
<polygon points="530 370 550 370 550 390 530 390 " fill="#ffb0b0"/>
<polygon points="500 340 540 340 540 380 500 380 " fill="#ff9090"/>
<polygon points="485 405 495 405 495 415 485 415 " fill="#ffd0d0"/>
<polygon points="485 425 495 425 495 435 485 435 " fill="#ffd0d0"/>
<polygon points="505 405 515 405 515 415 505 415 " fill="#ffd0d0"/>
<polygon points="505 425 515 425 515 435 505 435 " fill="#ffd0d0"/>
<polygon points="490 410 510 410 510 430 490 430 " fill="#ffb0b0"/>
<polygon points="485 445 495 445 495 455 485 455 " fill="#ffd0d0"/>
<polygon points="485 465 495 465 495 475 485 475 " fill="#ffd0d0"/>
<polygon points="505 445 515 445 515 455 505 455 " fill="#ffd0d0"/>
<polygon points="505 465 515 465 515 475 505 475 " fill="#ffd0d0"/>
<polygon points="490 450 510 450 510 470 490 470 " fill="#ffb0b0"/>
<polygon points="525 405 535 405 535 415 525 415 " fill="#ffd0d0"/>
<polygon points="525 425 535 425 535 435 525 435 " fill="#ffd0d0"/>
<polygon points="545 405 555 405 555 415 545 415 " fill="#ffd0d0"/>
<polygon points="545 425 555 425 555 435 545 435 " fill="#ffd0d0"/>
<polygon points="530 410 550 410 550 430 530 430 " fill="#ffb0b0"/>
<polygon points="525 445 535 445 535 455 525 455 " fill="#ffd0d0"/>
<polygon points="525 465 535 465 535 475 525 475 " fill="#ffd0d0"/>
<polygon points="545 445 555 445 555 455 545 455 " fill="#ffd0d0"/>
<polygon points="545 465 555 465 555 475 545 475 " fill="#ffd0d0"/>
<polygon points="530 450 550 450 550 470 530 470 " fill="#ffb0b0"/>
<polygon points="500 420 540 420 540 460 500 460 " fill="#ff9090"/>
<polygon points="565 325 575 325 575 335 565 335 " fill="#ffd0d0"/>
<polygon points="565 345 575 345 575 355 565 355 " fill="#ffd0d0"/>
<polygon points="585 325 595 325 595 335 585 335 " fill="#ffd0d0"/>
<polygon points="585 345 595 345 595 355 585 355 " fill="#ffd0d0"/>
<polygon points="570 330 590 330 590 350 570 350 " fill="#ffb0b0"/>
<polygon points="565 365 575 365 575 375 565 375 " fill="#ffd0d0"/>
<polygon points="565 385 575 385 575 395 565 395 " fill="#ffd0d0"/>
<polygon points="585 365 595 365 595 375 585 375 " fill="#ffd0d0"/>
<polygon points="585 385 595 385 595 395 585 395 " fill="#ffd0d0"/>
<polygon points="570 370 590 370 590 390 570 390 " fill="#ffb0b0"/>
<polygon points="605 325 615 325 615 335 605 335 " fill="#ffd0d0"/>
<polygon points="605 345 615 345 615 355 605 355 " fill="#ffd0d0"/>
<polygon points="625 325 635 325 635 335 625 335 " fill="#ffd0d0"/>
<polygon points="625 345 635 345 635 355 625 355 " fill="#ffd0d0"/>
<polygon points="610 330 630 330 630 350 610 350 " fill="#ffb0b0"/>
<polygon points="605 365 615 365 615 375 605 375 " fill="#ffd0d0"/>
<polygon points="605 385 615 385 615 395 605 395 " fill="#ffd0d0"/>
<polygon points="625 365 635 365 635 375 625 375 " fill="#ffd0d0"/>
<polygon points="625 385 635 385 635 395 625 395 " fill="#ffd0d0"/>
<polygon points="610 370 630 370 630 390 610 390 " fill="#ffb0b0"/>
<polygon points="580 340 620 340 620 380 580 380 " fill="#ff9090"/>
<polygon points="565 405 575 405 575 415 565 415 " fill="#ffd0d0"/>
<polygon points="565 425 575 425 575 435 565 435 " fill="#ffd0d0"/>
<polygon points="585 405 595 405 595 415 585 415 " fill="#ffd0d0"/>
<polygon points="585 425 595 425 595 435 585 435 " fill="#ffd0d0"/>
<polygon points="570 410 590 410 590 430 570 430 " fill="#ffb0b0"/>
<polygon points="565 445 575 445 575 455 565 455 " fill="#ffd0d0"/>
<polygon points="565 465 575 465 575 475 565 475 " fill="#ffd0d0"/>
<polygon points="585 445 595 445 595 455 585 455 " fill="#ffd0d0"/>
<polygon points="585 465 595 465 595 475 585 475 " fill="#ffd0d0"/>
<polygon points="570 450 590 450 590 470 570 470 " fill="#ffb0b0"/>
<polygon points="605 405 615 405 615 415 605 415 " fill="#ffd0d0"/>
<polygon points="605 425 615 425 615 435 605 435 " fill="#ffd0d0"/>
<polygon points="625 405 635 405 635 415 625 415 " fill="#ffd0d0"/>
<polygon points="625 425 635 425 635 435 625 435 " fill="#ffd0d0"/>
<polygon points="610 410 630 410 630 430 610 430 " fill="#ffb0b0"/>
<polygon points="605 445 615 445 615 455 605 455 " fill="#ffd0d0"/>
<polygon points="605 465 615 465 615 475 605 475 " fill="#ffd0d0"/>
<polygon points="625 445 635 445 635 455 625 455 " fill="#ffd0d0"/>
<polygon points="625 465 635 465 635 475 625 475 " fill="#ffd0d0"/>
<polygon points="610 450 630 450 630 470 610 470 " fill="#ffb0b0"/>
<polygon points="580 420 620 420 620 460 580 460 " fill="#ff9090"/>
<polygon points="520 360 600 360 600 440 520 440 " fill="#ff7070"/>
<polygon points="485 485 495 485 495 495 485 495 " fill="#ffd0d0"/>
<polygon points="485 505 495 505 495 515 485 515 " fill="#ffd0d0"/>
<polygon points="505 485 515 485 515 495 505 495 " fill="#ffd0d0"/>
<polygon points="505 505 515 505 515 515 505 515 " fill="#ffd0d0"/>
<polygon points="490 490 510 490 510 510 490 510 " fill="#ffb0b0"/>
<polygon points="485 525 495 525 495 535 485 535 " fill="#ffd0d0"/>
<polygon points="485 545 495 545 495 555 485 555 " fill="#ffd0d0"/>
<polygon points="505 525 515 525 515 535 505 535 " fill="#ffd0d0"/>
<polygon points="505 545 515 545 515 555 505 555 " fill="#ffd0d0"/>
<polygon points="490 530 510 530 510 550 490 550 " fill="#ffb0b0"/>
<polygon points="525 485 535 485 535 495 525 495 " fill="#ffd0d0"/>
<polygon points="525 505 535 505 535 515 525 515 " fill="#ffd0d0"/>
<polygon points="545 485 555 485 555 495 545 495 " fill="#ffd0d0"/>
<polygon points="545 505 555 505 555 515 545 515 " fill="#ffd0d0"/>
<polygon points="530 490 550 490 550 510 530 510 " fill="#ffb0b0"/>
<polygon points="525 525 535 525 535 535 525 535 " fill="#ffd0d0"/>
<polygon points="525 545 535 545 535 555 525 555 " fill="#ffd0d0"/>
<polygon points="545 525 555 525 555 535 545 535 " fill="#ffd0d0"/>
<polygon points="545 545 555 545 555 555 545 555 " fill="#ffd0d0"/>
<polygon points="530 530 550 530 550 550 530 550 " fill="#ffb0b0"/>
<polygon points="500 500 540 500 540 540 500 540 " fill="#ff9090"/>
<polygon points="485 565 495 565 495 575 485 575 " fill="#ffd0d0"/>
<polygon points="485 585 495 585 495 595 485 595 " fill="#ffd0d0"/>
<polygon points="505 565 515 565 515 575 505 575 " fill="#ffd0d0"/>
<polygon points="505 585 515 585 515 595 505 595 " fill="#ffd0d0"/>
<polygon points="490 570 510 570 510 590 490 590 " fill="#ffb0b0"/>
<polygon points="485 605 495 605 495 615 485 615 " fill="#ffd0d0"/>
<polygon points="485 625 495 625 495 635 485 635 " fill="#ffd0d0"/>
<polygon points="505 605 515 605 515 615 505 615 " fill="#ffd0d0"/>
<polygon points="505 625 515 625 515 635 505 635 " fill="#ffd0d0"/>
<polygon points="490 610 510 610 510 630 490 630 " fill="#ffb0b0"/>
<polygon points="525 565 535 565 535 575 525 575 " fill="#ffd0d0"/>
<polygon points="525 585 535 585 535 595 525 595 " fill="#ffd0d0"/>
<polygon points="545 565 555 565 555 575 545 575 " fill="#ffd0d0"/>
<polygon points="545 585 555 585 555 595 545 595 " fill="#ffd0d0"/>
<polygon points="530 570 550 570 550 590 530 590 " fill="#ffb0b0"/>
<polygon points="525 605 535 605 535 615 525 615 " fill="#ffd0d0"/>
<polygon points="525 625 535 625 535 635 525 635 " fill="#ffd0d0"/>
<polygon points="545 605 555 605 555 615 545 615 " fill="#ffd0d0"/>
<polygon points="545 625 555 625 555 635 545 635 " fill="#ffd0d0"/>
<polygon points="530 610 550 610 550 630 530 630 " fill="#ffb0b0"/>
<polygon points="500 580 540 580 540 620 500 620 " fill="#ff9090"/>
<polygon points="565 485 575 485 575 495 565 495 " fill="#ffd0d0"/>
<polygon points="565 505 575 505 575 515 565 515 " fill="#ffd0d0"/>
<polygon points="585 485 595 485 595 495 585 495 " fill="#ffd0d0"/>
<polygon points="585 505 595 505 595 515 585 515 " fill="#ffd0d0"/>
<polygon points="570 490 590 490 590 510 570 510 " fill="#ffb0b0"/>
<polygon points="565 525 575 525 575 535 565 535 " fill="#ffd0d0"/>
<polygon points="565 545 575 545 575 555 565 555 " fill="#ffd0d0"/>
<polygon points="585 525 595 525 595 535 585 535 " fill="#ffd0d0"/>
<polygon points="585 545 595 545 595 555 585 555 " fill="#ffd0d0"/>
<polygon points="570 530 590 530 590 550 570 550 " fill="#ffb0b0"/>
<polygon points="605 485 615 485 615 495 605 495 " fill="#ffd0d0"/>
<polygon points="605 505 615 505 615 515 605 515 " fill="#ffd0d0"/>
<polygon points="625 485 635 485 635 495 625 495 " fill="#ffd0d0"/>
<polygon points="625 505 635 505 635 515 625 515 " fill="#ffd0d0"/>
<polygon points="610 490 630 490 630 510 610 510 " fill="#ffb0b0"/>
<polygon points="605 525 615 525 615 535 605 535 " fill="#ffd0d0"/>
<polygon points="605 545 615 545 615 555 605 555 " fill="#ffd0d0"/>
<polygon points="625 525 635 525 635 535 625 535 " fill="#ffd0d0"/>
<polygon points="625 545 635 545 635 555 625 555 " fill="#ffd0d0"/>
<polygon points="610 530 630 530 630 550 610 550 " fill="#ffb0b0"/>
<polygon points="580 500 620 500 620 540 580 540 " fill="#ff9090"/>
<polygon points="565 565 575 565 575 575 565 575 " fill="#ffd0d0"/>
<polygon points="565 585 575 585 575 595 565 595 " fill="#ffd0d0"/>
<polygon points="585 565 595 565 595 575 585 575 " fill="#ffd0d0"/>
<polygon points="585 585 595 585 595 595 585 595 " fill="#ffd0d0"/>
<polygon points="570 570 590 570 590 590 570 590 " fill="#ffb0b0"/>
<polygon points="565 605 575 605 575 615 565 615 " fill="#ffd0d0"/>
<polygon points="565 625 575 625 575 635 565 635 " fill="#ffd0d0"/>
<polygon points="585 605 595 605 595 615 585 615 " fill="#ffd0d0"/>
<polygon points="585 625 595 625 595 635 585 635 " fill="#ffd0d0"/>
<polygon points="570 610 590 610 590 630 570 630 " fill="#ffb0b0"/>
<polygon points="605 565 615 565 615 575 605 575 " fill="#ffd0d0"/>
<polygon points="605 585 615 585 615 595 605 595 " fill="#ffd0d0"/>
<polygon points="625 565 635 565 635 575 625 575 " fill="#ffd0d0"/>
<polygon points="625 585 635 585 635 595 625 595 " fill="#ffd0d0"/>
<polygon points="610 570 630 570 630 590 610 590 " fill="#ffb0b0"/>
<polygon points="605 605 615 605 615 615 605 615 " fill="#ffd0d0"/>
<polygon points="605 625 615 625 615 635 605 635 " fill="#ffd0d0"/>
<polygon points="625 605 635 605 635 615 625 615 " fill="#ffd0d0"/>
<polygon points="625 625 635 625 635 635 625 635 " fill="#ffd0d0"/>
<polygon points="610 610 630 610 630 630 610 630 " fill="#ffb0b0"/>
<polygon points="580 580 620 580 620 620 580 620 " fill="#ff9090"/>
<polygon points="520 520 600 520 600 600 520 600 " fill="#ff7070"/>
<polygon points="400 400 560 400 560 560 400 560 " fill="#ff5050"/>
<polygon points="160 160 480 160 480 480 160 480 " fill="#ff3030"/>
</svg>