<?xml version="1.0" encoding="UTF-8"?>
<svg xmlns="http://www.w3.org/2000/svg" viewBox="0 0 50 50" enable-background="new 0 0 50 50">
    <path d="M 24.5 2 C 15.8 2 14 6.49375 14 9.09375 L 14 14 L 24 14 L 24 15 L 9.09375 15 C 5.79375 15 2 17.6 2 25 C 2 32.4 5.79375 35 9.09375 35 L 15 35 L 15 29 C 15 26.8 16.8 25 19 25 L 31 25 C 32.7 25 34 23.7 34 22 L 34 9.09375 C 34 5.59375 30.7 2 24.5 2 z M 20 7 C 21.1 7 22 7.9 22 9 C 22 10.1 21.1 11 20 11 C 18.9 11 18 10.1 18 9 C 18 7.9 18.9 7 20 7 z M 35 15 L 35 22 C 35 24.2 33.2 26 31 26 L 19 26 C 17.3 26 16 27.3 16 29 L 16 40.90625 C 16 44.40625 19.3 48 25.5 48 C 34.2 48 36 43.50625 36 40.90625 L 36 36 L 26 36 L 26 35 L 40.90625 35 C 44.20625 35 48 32.4 48 25 C 48 17.6 44.20625 15 40.90625 15 L 35 15 z M 30 39 C 31.1 39 32 39.9 32 41 C 32 42.1 31.1 43 30 43 C 28.9 43 28 42.1 28 41 C 28 39.9 28.9 39 30 39 z"/>
</svg>