<?xml version="1.0" standalone="no"?>
<!DOCTYPE svg PUBLIC "-//W3C//DTD SVG 20010904//EN"
 "http://www.w3.org/TR/2001/REC-SVG-20010904/DTD/svg10.dtd">
<svg version="1.0" xmlns="http://www.w3.org/2000/svg"
 width="700.000000pt" height="700.000000pt" viewBox="0 0 700.000000 700.000000"
 preserveAspectRatio="xMidYMid meet">
<metadata>
Created by potrace 1.14, written by Peter Selinger 2001-2017
</metadata>
<g transform="translate(0.000000,700.000000) scale(0.100000,-0.100000)"
fill="#000000" stroke="none">
<path d="M810 6413 c-84 -11 -229 -67 -281 -111 -111 -91 -164 -167 -216 -307
-17 -48 -18 -143 -20 -2470 -2 -2375 -2 -2421 18 -2495 10 -41 27 -91 36 -110
77 -166 256 -301 433 -328 25 -4 1260 -7 2745 -6 l2700 0 78 27 c193 68 334
217 388 412 12 42 14 437 14 2480 l0 2430 -23 70 c-62 185 -193 317 -379 382
l-78 27 -2695 1 c-1482 0 -2706 -1 -2720 -2z m5312 -1175 c4 -11 3 -4054 -1
-4068 0 -3 -1181 -5 -2623 -4 l-2623 1 -1 2034 c0 1119 1 2037 3 2042 2 4
1182 7 2623 7 2085 0 2619 -3 2622 -12z"/>
<path d="M2040 4553 c-58 -60 -121 -128 -140 -152 -67 -83 -160 -216 -160
-228 0 -7 -4 -13 -10 -13 -5 0 -10 -4 -10 -9 0 -4 -18 -41 -41 -82 -142 -257
-217 -555 -217 -859 0 -533 213 -999 650 -1418 l45 -43 231 87 232 87 -94 91
c-204 196 -341 435 -425 736 -68 248 -75 576 -16 850 71 335 262 662 504 863
18 15 32 29 30 31 -2 1 -74 28 -159 60 -85 32 -183 69 -217 82 -34 13 -70 24
-79 24 -10 0 -66 -48 -124 -107z"/>
<path d="M4600 4577 c-118 -44 -217 -82 -219 -84 -2 -1 12 -15 30 -30 296
-246 494 -642 536 -1073 13 -126 7 -357 -12 -460 -9 -52 -19 -107 -21 -122 -3
-14 -13 -55 -24 -90 -66 -223 -150 -389 -285 -563 -61 -79 -198 -215 -216
-215 -5 0 -9 -4 -9 -9 0 -4 28 -18 63 -31 34 -12 76 -28 92 -35 17 -7 82 -32
145 -55 63 -22 125 -46 138 -52 25 -13 29 -10 163 127 194 199 337 421 438
678 37 97 83 258 95 340 3 20 8 52 11 71 20 119 20 364 1 471 -3 17 -8 48 -12
70 -32 222 -136 478 -292 720 -100 155 -347 426 -388 424 -11 0 -116 -37 -234
-82z"/>
<path d="M2929 4080 c-5 -3 70 -181 166 -394 96 -214 180 -403 186 -421 13
-35 63 36 -471 -683 -99 -133 -180 -244 -180 -246 0 -2 104 -3 231 -2 l230 1
87 122 c48 68 138 197 201 287 63 91 117 163 121 161 4 -2 57 -132 119 -288
l113 -284 189 0 c104 0 189 2 189 3 0 2 -38 90 -84 196 -46 106 -112 258 -146
338 -34 80 -70 163 -80 185 -70 158 -70 158 -42 189 10 12 117 156 238 321
232 319 307 421 327 445 26 32 47 70 40 71 -31 4 -417 3 -423 -1 -4 -3 -96
-131 -204 -285 -108 -154 -200 -281 -204 -282 -4 -2 -15 18 -26 45 -10 26 -24
61 -31 77 -7 17 -50 122 -95 235 -45 113 -84 207 -86 209 -6 7 -354 7 -365 1z"/>
</g>
</svg>
