<?xml version="1.0" encoding="UTF-8"?><svg baseProfile="tiny" height="758" stroke-linecap="round" stroke-linejoin="round" version="1.2" viewBox="0 0 800 758" width="800" xmlns="http://www.w3.org/2000/svg"><g id="carte_vigilance">
		<path d="M 534.2475 325.4831 535.6419 320.0371 541.0737 317.1845 545.8574 306.1853 547.6888 299.3678 551.6721 302.8242 557.5132 302.1491 558.7923 305.6809 564.5865 311.6619 561.7759 315.8758 563.0788 321.2902 572.9097 324.1446 576.2336 334.1707 583.3214 336.3777 586.5373 340.6932 579.294 346.9747 578.3832 353.4981 583.4238 357.2693 579.8106 368.6261 571.7236 379.4431 568.7002 381.3315 561.687 381.6374 557.3322 375.473 551.5867 381.2529 538.3798 369.9951 538.4817 367.6108 544.2765 365.1243 540.923 361.7692 541.3996 356.9464 545.1781 352.3256 538.5583 338.4657 545.5176 335.8141 538.3928 331.8713 534.2475 325.4831 Z" data-anchor-x="560.3924" data-anchor-y="340.50260000000003" data-fill-id="39" data-name="Jura" id="39" fill="#ff5e13" stroke="black" stroke-width="1"/>
		<path d="M 329.1395 81.572 332.8802 83.878 345.8394 96.0939 349.3603 106.3599 345.6291 108.4595 344.5917 118.877 348.6384 128.9962 345.321 134.0085 342.4839 134.7841 337.4354 131.3273 328.2795 129.9954 324.4853 132.0966 322.3297 138.576 318.5639 138.1103 312.1997 141.3569 308.302 145.8376 304.4647 140.7181 304.0392 135.0301 297.8378 132.3313 290.9537 133.3737 283.811 126.9851 274.1793 129.3632 262.9629 127.5448 260.3002 123.2247 268.0971 107.8063 274.1584 105.8177 287.2805 97.6858 298.5148 95.967 307.4695 92.6762 310.4768 93.0522 319.8574 88.8484 329.1395 81.572 Z" data-anchor-x="304.83025" data-anchor-y="113.7048" data-fill-id="76" data-name="Seine-Maritime" id="76" fill="#008000" stroke="black" stroke-width="1"/>
		<path d="M 408.5704 233.3988 414.3401 224.8914 414.3713 217.9734 425.3835 217.3864 433.8411 215.3611 438.23 216.9706 444.9975 226.0472 443.7349 230.217 447.383 235.1669 451.5287 232.9261 455.8206 242.7898 466.0856 251.6118 474.0178 249.075 480.8248 251.6746 479.4181 257.8391 482.3445 258.6738 483.1653 265.0659 480.8957 266.945 472.6647 288.5446 469.6082 292.5312 471.5269 298.3266 464.3975 299.0409 464.2101 295.3154 451.7911 294.0198 447.774 290.1211 432.8855 285.231 430.4913 287.6604 420.8015 284.6064 418.2331 279.5877 410.6739 280.4943 409.4617 274.4575 404.4854 269.3333 413.432 262.1281 412.4285 253.8513 418.7707 248.652 413.4886 235.7896 408.5704 233.3988 Z" data-anchor-x="443.82535" data-anchor-y="257.201" data-fill-id="89" data-name="Yonne" id="89" fill="#ffff00" stroke="black" stroke-width="1"/>
		<path d="M 461.3586 382.7324 460.8972 387.6069 468.5 391.0865 472.6694 388.721 484.3413 390.7542 488.2375 386.7753 491.1502 390.8538 484.7916 393.9076 483.4931 408.0214 488.4853 416.5937 489.1581 424.8276 487.946 430.1552 496.8205 437.895 503.6173 439.2166 504.5463 444.5652 509.9217 446.9275 509.9887 454.0204 501.3176 460.2767 501.8489 463.0642 494.9698 464.5958 486.4477 458.2307 486.5179 454.3336 477.7444 452.5302 468.6776 457.3568 466.3795 453.9893 462.0723 455.5479 465.6689 449.2627 463.9667 437.9653 457.7093 433.7565 451.3741 420.5856 450.3072 410.1997 451.508 406.7539 457.6562 404.9007 455.7736 395.7642 455.4411 387.9856 457.0849 384.0558 461.3586 382.7324 Z" data-anchor-x="480.14795000000004" data-anchor-y="423.66409999999996" data-fill-id="42" data-name="Loire" id="42" fill="#ff0000" stroke="black" stroke-width="1"/>
		<path d="M 633.9435 215.8511 638.0128 216.0278 641.0112 220.7346 649.1218 223.4858 648.9665 226.9376 654.8406 229.7756 654.7722 236.5217 657.841 240.9463 654.8633 248.9629 653.8028 265.6558 658.0307 270.7225 653.6301 275.5862 654.1452 279.3168 647.7013 284.8543 640.7178 285.8302 636.0688 284.5417 633.6931 279.9675 630.9567 272.9683 627.4958 273.085 627.6939 262.6813 617.202 255.4043 622.6291 241.0642 624.6221 239.2963 630.7645 220.9938 633.9435 215.8511 Z" data-anchor-x="637.61635" data-anchor-y="250.84064999999998" data-fill-id="68" data-name="Haut-Rhin" id="68" fill="#008000" stroke="black" stroke-width="1"/>
		<path d="M 297.1296 191.6217 300.2544 188.2889 308.8154 187.2524 315.606 184.2394 324.2152 185.1233 326.0711 179.3929 331.3822 176.3497 333.6028 170.9758 337.8168 177.4561 337.2553 182.9595 339.888 186.4005 337.3189 190.0059 343.615 199.4008 347.5808 202.0349 347.8957 206.9991 351.0406 210.448 355.0628 209.675 358.217 217.4255 358.6755 223.2806 356.9853 232.2461 352.6741 238.1972 345.2378 240.764 339.3409 240.3615 333.1563 247.0289 325.1021 249.1268 316.6747 247.7614 312.1114 242.3377 311.307 238.652 306.1873 238.3859 305.5044 234.9166 297.2782 236.6315 298.6331 234.1662 295.1871 229.2889 296.9464 227.7991 293.5786 220.2961 300.0703 216.588 304.6644 210.7298 304.8459 203.4382 298.7691 198.4791 297.1296 191.6217 Z" data-anchor-x="326.12705" data-anchor-y="210.0513" data-fill-id="28" data-name="Eure-et-Loir" id="28" fill="#008000" stroke="black" stroke-width="1"/>
		<path d="M 433.8411 215.3611 432.6755 207.9117 441.1488 197.0688 445.3412 203.3313 456.8048 204.605 457.3042 200.7323 461.8725 198.2215 463.8022 194.0565 468.5642 190.3374 480.1501 189.1121 481.2262 196.8851 485.9681 201.2798 492.5989 203.5847 499.9101 203.2452 499.0415 207.4693 501.9042 213.3193 508.327 217.9935 510.4337 229.7419 508.5541 237.0662 503.8234 235.9593 502.5913 243.7741 495.8751 243.2348 494.6889 248.1117 481.6418 248.8627 480.8248 251.6746 474.0178 249.075 466.0856 251.6118 455.8206 242.7898 451.5287 232.9261 447.383 235.1669 443.7349 230.217 444.9975 226.0472 438.23 216.9706 433.8411 215.3611 Z" data-anchor-x="471.5546" data-anchor-y="220.39335" data-fill-id="10" data-name="Aube" id="10" fill="#008000" stroke="black" stroke-width="1"/>
		<path d="M 513.3153 146.98 517.2088 143.8913 517.0319 139.2647 520.3258 136.1461 521.1349 129.2022 519.8073 122.3654 523.8948 120.8227 531.3568 120.888 535.4414 116.2044 539.6684 125.5671 541.6978 132.7497 548.279 130.022 551.3521 131.7218 555.5974 141.3862 553.3458 143.6161 555.4998 148.5288 555.8245 155.9458 559.6861 159.4284 556.666 172.7062 557.6216 177.7901 554.6008 185.7725 557.0932 188.1844 557.3735 194.7299 554.7683 199.0917 557.6778 204.4264 549.9585 209.2016 542.3172 210.9436 533.4399 203.6522 517.8172 196.6164 516.3733 190.764 513.453 182.483 511.9709 173.8766 518.4607 167.7009 515.9921 157.3786 512.8385 151.1102 513.3153 146.98 Z" data-anchor-x="535.8285" data-anchor-y="163.574" data-fill-id="55" data-name="Meuse" id="55" fill="#008000" stroke="black" stroke-width="1"/>
		<path d="M 210.4983 181.7871 214.0053 179.1734 230.4212 173.4228 236.7049 177.4563 240.7781 175.0661 251.5137 176.3226 257.9765 171.9632 259.3808 169.1099 269.7166 167.3109 276.7394 168.7589 278.6496 174.4816 286.2144 174.2502 286.6345 178.4094 292.9618 182.2871 297.1296 191.6217 298.7691 198.4791 304.8459 203.4382 304.6644 210.7298 300.0703 216.588 293.5786 220.2961 296.9464 227.7991 295.1871 229.2889 291.258 228.8967 289.2196 224.3303 282.7501 224.8612 273.5423 217.5816 272.8365 208.1718 265.2301 206.1994 254.6207 213.2436 250.5714 212.9367 250.9122 207.2546 245.8421 206.683 246.3086 201.2112 243.0645 198.1831 239.5511 202.5493 234.1969 203.2207 227.0104 201.8813 219.3297 206.7011 213.607 207.0511 208.5254 201.6156 214.5644 194.0994 210.4983 181.7871 Z" data-anchor-x="256.68565" data-anchor-y="198.2999" data-fill-id="61" data-name="Orne" id="61" fill="#008000" stroke="black" stroke-width="1"/>
		<path d="M 654.8406 229.7756 648.9665 226.9376 649.1218 223.4858 641.0112 220.7346 638.0128 216.0278 633.9435 215.8511 627.4463 212.9541 629.1314 199.9545 626.7446 198.2537 631.4104 198.733 635.7959 193.6398 635.0027 186.2252 637.9276 179.6689 631.5512 173.8805 628.1247 177.1597 619.2323 169.3978 622.5363 165.1507 623.3244 159.3471 636.0886 163.044 637.9772 165.3334 643.9812 163.3624 649.7111 165.3524 653.5684 155.6559 665.7695 156.5794 668.9658 154.4105 683.3698 161.448 678.0716 174.5394 672.6906 177.9279 672.3141 180.9177 666.4335 187.3821 664.4401 192.2537 659.1433 221.3119 654.8406 229.7756 Z" data-anchor-x="651.30105" data-anchor-y="192.09305" data-fill-id="67" data-name="Bas-Rhin" id="67" fill="#008000" stroke="black" stroke-width="1"/>
		<path d="M 170.6047 519.8266 179.034 517.4968 186.1387 519.424 184.4386 523.0025 193.7449 524.8977 197.9838 523.4025 205.9967 523.5483 205.608 526.9595 219.3332 536.5585 218.7105 542.6342 225.3713 544.1528 232.9458 541.8804 233.3862 547.7694 240.533 548.2492 248.1032 550.7679 244.5699 561.6437 244.2204 566.7069 232.9623 564.2599 228.7334 569.1032 227.769 581.1457 223.0162 587.776 225.0573 592.4739 219.5525 594.9578 213.1492 591.1059 206.7683 594.9883 200.3524 592.7877 186.6679 593.4661 181.5418 596.8646 172.6689 595.8843 171.6661 593.1989 164.4963 596.3989 156.9961 596.1424 151.1945 593.2861 156.0777 584.197 156.7298 579.4016 166.1378 544.0213 170.6047 519.8266 Z" data-anchor-x="199.64884999999998" data-anchor-y="557.1807" data-fill-id="40" data-name="Landes" id="40" fill="#ff0000" stroke="black" stroke-width="1"/>
		<path d="M 302.8957 516.2944 299.8188 518.7515 299.5563 526.6895 301.8914 532.0252 290.9517 536.1478 295.2374 540.0664 292.4442 546.2347 289.4429 547.8529 282.862 556.3738 279.6158 557.7846 273.6265 555.1966 257.5755 561.4694 252.5919 558.7514 244.5699 561.6437 248.1032 550.7679 240.533 548.2492 233.3862 547.7694 232.9458 541.8804 237.2064 540.4598 239.1909 536.5464 236.8631 531.9364 242.2326 531.1142 240.9161 520.0512 249.7551 512.2543 252.599 508.1208 251.4063 502.5268 259.3352 500.344 262.0275 503.6194 261.9625 508.28 265.8212 509.7776 274.6052 507.7223 283.5292 507.9521 287.4398 506.0223 291.4688 514.1856 297.6274 510.8547 302.8957 516.2944 Z" data-anchor-x="267.92075" data-anchor-y="530.99385" data-fill-id="47" data-name="Lot-et-Garonne" id="47" fill="#ff0000" stroke="black" stroke-width="1"/>
		<path d="M 271.9917 130.5206 272.5326 139.0656 276.0476 143.6806 276.9715 154.6214 275.322 159.0883 277.7366 162.2918 276.7394 168.7589 269.7166 167.3109 259.3808 169.1099 257.9765 171.9632 251.5137 176.3226 240.7781 175.0661 236.7049 177.4563 230.4212 173.4228 214.0053 179.1734 210.4983 181.7871 204.8755 178.5854 199.1013 179.4352 194.1198 175.0044 206.0287 164.4338 210.2478 156.7303 209.5994 151.8343 205.3339 146.5404 197.227 139.9802 197.1417 136.9026 201.0997 130.6137 208.6924 130.8513 213.0625 133.696 236.4461 137.0981 244.3378 140.9099 251.6684 140.4167 262.2669 133.0332 271.9917 130.5206 Z" data-anchor-x="235.9282" data-anchor-y="156.15385" data-fill-id="14" data-name="Calvados" id="14" fill="#008000" stroke="black" stroke-width="1"/>
		<path d="M 388.6222 166.1694 390.6863 171.1552 389.0553 175.728 390.5393 182.2791 386.042 178.2891 381.3703 178.8903 376.3547 174.7855 374.878 170.7647 378.8003 168.9679 383.5443 170.4553 388.6222 166.1694 Z" data-anchor-x="382.78215" data-anchor-y="174.22424999999998" data-fill-id="93" data-name="Seine-Saint-Denis" id="93" fill="#008000" stroke="black" stroke-width="1"/>
		<path d="M 366.2207 7.6633 368.4973 10.7305 374.3001 24.828 386.0146 37.3201 393.2491 38.5118 402.4023 34.5033 403.1147 45.8761 406.3949 45.5355 412.9836 49.1029 413.8969 54.0217 411.6774 56.8498 419.5292 66.7787 418.8941 76.2771 416.5506 83.367 405.7594 85.2191 403.9302 81.7394 398.2375 77.6587 396.1258 80.2209 387.1758 76.3682 380.0179 78.8293 384.0137 69.5208 365.7496 71.0077 363.8592 67.1293 358.2508 64.4073 351.0559 58.5855 343.0934 59.3724 338.5879 55.4251 340.056 44.6558 339.2543 31.3932 341.689 23.8203 340.3471 19.2009 347.9055 12.6702 357.0523 9.2309 366.2207 7.6633 Z" data-anchor-x="379.05854999999997" data-anchor-y="46.441199999999995" data-fill-id="62" data-name="Pas-de-Calais" id="62" fill="#008000" stroke="black" stroke-width="1"/>
		<path d="M 384.5274 446.1309 394.546 449.4082 395.9909 453.8617 401.2928 452.4543 407.5032 455.1626 411.8192 460.8274 417.7273 456.0553 418.1596 461.6019 424.3839 462.2581 428.12 474.543 428.8152 481.6176 432.261 486.343 422.4765 495.0882 419.957 491.8091 414.5153 500.0555 410.8959 512.2853 403.5197 494.2781 396.6807 489.0914 391.113 494.1392 387.2233 501.6758 386.4286 506.5357 382.733 511.7075 368.6134 511.2182 367.0836 514.3516 364.0575 507.6542 364.9963 498.8798 360.3037 492.8352 359.2193 485.6637 363.5708 483.2583 361.1094 479.3908 365.5923 477.3822 366.8352 466.3945 373.7433 458.3847 376.7471 451.0016 380.951 453.6466 384.5274 446.1309 Z" data-anchor-x="395.74014999999997" data-anchor-y="480.24125" data-fill-id="15" data-name="Cantal" id="15" fill="#ff0000" stroke="black" stroke-width="1"/>
		<path d="M 408.5704 233.3988 413.4886 235.7896 418.7707 248.652 412.4285 253.8513 413.432 262.1281 404.4854 269.3333 409.4617 274.4575 410.6739 280.4943 405.1931 284.3838 401.5816 286.4379 393.5246 286.9774 390.098 281.3376 378.2981 279.0756 371.1253 276.2458 369.4256 271.8051 351.4356 271.7612 344.8961 273.1175 343.0823 267.8337 333.2929 259.7257 336.7616 255.2987 333.3705 251.2362 333.1563 247.0289 339.3409 240.3615 345.2378 240.764 352.6741 238.1972 356.9853 232.2461 358.6755 223.2806 368.5806 221.4153 380.353 220.8149 386.6407 230.8333 386.5339 236.168 398.9636 234.7733 403.2443 235.7224 408.5704 233.3988 Z" data-anchor-x="375.96349999999995" data-anchor-y="253.89614999999998" data-fill-id="45" data-name="Loiret" id="45" fill="#ffff00" stroke="black" stroke-width="1"/>
		<path d="M 388.0442 393.4704 392.9294 394.9866 394.0304 391.1959 401.9015 388.7508 404.1312 384.5708 408.5195 385.6924 407.1055 390.8442 413.185 396.8153 419.1802 399.3795 431.9544 400.6506 437.2324 399.8942 439.5731 403.7343 444.6429 402.9057 450.3072 410.1997 451.3741 420.5856 457.7093 433.7565 463.9667 437.9653 465.6689 449.2627 462.0723 455.5479 449.0167 455.3175 439.7728 450.1565 437.0462 452.0935 431.7962 450.5855 421.376 456.1603 417.7273 456.0553 411.8192 460.8274 407.5032 455.1626 401.2928 452.4543 395.9909 453.8617 394.546 449.4082 384.5274 446.1309 385.2291 442.6872 382.2269 436.9949 385.0809 433.3926 383.7541 425.5604 378.1054 418.7032 386.7006 412.1376 389.9962 402.1737 387.5167 399.3609 388.0442 393.4704 Z" data-anchor-x="421.88715" data-anchor-y="422.69910000000004" data-fill-id="63" data-name="Puy-de-Dôme" id="63" fill="#ff0000" stroke="black" stroke-width="1"/>
		<path d="M 148.4952 193.1459 142.5583 189.674 146.2609 187.0826 148.4952 193.1459 Z M 151.5646 195.364 147.7388 186.6229 153.0214 183.2082 157.5151 189.8607 161.358 190.9571 171.6943 189.7396 175.3677 200.2846 180.8953 203.7269 186.9911 197.9053 197.5098 200.4819 196.6466 205.8127 198.0902 214.8875 194.8151 219.876 197.9273 241.3677 190.4504 243.8892 188.5499 250.9634 185.692 255.3679 185.1268 257.9646 173.4777 254.694 164.8056 258.1054 163.025 261.8262 146.1228 262.5923 139.0052 266.7529 137.9442 262.6621 141.3447 252.5763 139.2377 247.0269 141.4493 244.1376 138.2708 238.7078 131.3076 234.9001 133.8547 231.1477 131.4617 226.3582 134.7555 224.0984 137.3863 217.7032 149.8567 213.7916 152.0989 202.3158 151.5646 195.364 Z" data-anchor-x="164.6989" data-anchor-y="224.98055" data-fill-id="35" data-name="Ille-et-Vilaine" id="35" fill="#ffff00" stroke="black" stroke-width="1"/>
		<path d="M 420.7649 86.6889 429.8627 84.8562 443.3643 85.531 448.5077 81.9562 467.4344 89.6643 470.4318 88.887 475.129 90.5061 476.3529 94.8193 474.0318 104.5569 475.1749 107.2962 470.0076 112.811 466.1122 123.3917 466.2345 134.4842 459.8611 134.4093 445.3517 142.0846 447.221 150.4717 444.3273 154.9206 445.8373 163.5044 442.0726 173.0202 437.3289 178.718 429.2085 174.2482 427.8424 171.0739 420.7321 165.6821 420.5434 159.106 415.6815 157.6932 417.2739 151.3456 413.8546 149.4021 410.092 141.5162 415.7683 139.412 418.3663 128.9253 419.0351 121.4302 416.761 117.6241 418.0264 110.9932 414.7755 100.9811 418.0963 96.8335 420.7649 86.6889 Z" data-anchor-x="443.22245" data-anchor-y="130.3371" data-fill-id="02" data-name="Aisne" id="02" fill="#008000" stroke="black" stroke-width="1"/>
		<path d="M 534.2475 325.4831 538.3928 331.8713 545.5176 335.8141 538.5583 338.4657 545.1781 352.3256 541.3996 356.9464 540.923 361.7692 544.2765 365.1243 538.4817 367.6108 530.8999 362.6573 524.4841 365.081 517.8213 362.8241 509.9329 389.7553 506.5853 388.4642 505.8889 381.8018 494.6049 382.8743 489.4213 380.7772 488.2375 386.7753 484.3413 390.7542 472.6694 388.721 468.5 391.0865 460.8972 387.6069 461.3586 382.7324 465.9586 379.2868 467.0109 369.3782 464.3716 365.685 459.0464 365.5799 452.5015 361.9679 451.8437 356.7582 446.2173 345.3424 452.0335 345.0405 455.2531 348.6234 469.7856 341.9596 471.7868 336.3739 468.1875 331.4895 467.8602 325.4008 472.3246 315.4403 475.8354 313.2262 477.332 312.8121 481.2297 316.5342 487.6734 318.4293 499.6681 329.3778 505.7706 330.9961 523.0736 325.6505 526.2061 327.4788 534.2475 325.4831 Z" data-anchor-x="495.86745" data-anchor-y="351.9493" data-fill-id="71" data-name="Saône-et-Loire" id="71" fill="#ff0000" stroke="black" stroke-width="1"/>
		<path d="M 405.1931 284.3838 410.6739 280.4943 418.2331 279.5877 420.8015 284.6064 430.4913 287.6604 432.8855 285.231 447.774 290.1211 451.7911 294.0198 464.2101 295.3154 464.3975 299.0409 471.5269 298.3266 472.703 304.6789 477.895 307.7058 477.332 312.8121 475.8354 313.2262 472.3246 315.4403 467.8602 325.4008 468.1875 331.4895 471.7868 336.3739 469.7856 341.9596 455.2531 348.6234 452.0335 345.0405 446.2173 345.3424 437.9739 352.9849 434.7427 348.5039 423.0799 351.0697 414.5952 344.7834 413.6778 341.8867 415.7063 337.2479 414.6649 333.0717 416.0382 324.1136 413.3527 320.8718 413.4625 315.4537 411.0198 304.9623 404.9037 298.6867 408.2092 290.609 405.1931 284.3838 Z" data-anchor-x="441.39935" data-anchor-y="316.2863" data-fill-id="58" data-name="Nièvre" id="58" fill="#ff5e13" stroke="black" stroke-width="1"/>
		<path d="M 335.9156 620.3692 337.2613 627.3656 350.8777 632.6823 352.8096 644.9441 352.8028 652.5642 346.3126 653.9328 348.4217 661.4714 353.8823 663.4429 356.7824 661.711 362.7291 666.0691 363.0856 669.1137 355.0463 669.9206 340.7245 675.9869 336.5252 672.6701 322.8104 669.5053 320.3461 673.3126 316.9354 665.9659 308.3317 663.1391 304.6027 664.5521 301.3482 659.4742 291.1543 657.8119 286.8346 654.8338 285.1554 647.7508 294.2034 643.224 294.7908 636.1476 299.4166 630.2906 303.6924 629.6171 307.8154 632.0781 309.1329 626.7209 318.156 623.5146 313.0333 619.061 316.878 616.9499 323.0279 625.2642 327.6781 619.9161 335.9156 620.3692 Z" data-anchor-x="324.1205" data-anchor-y="646.4684" data-fill-id="09" data-name="Ariège" id="09" fill="#ff0000" stroke="black" stroke-width="1"/>
		<path d="M 187.2298 317.3949 195.25 318.5049 200.8865 322.3263 203.8435 329.6012 210.2158 335.0377 209.0871 339.4602 212.6616 344.7679 214.6247 351.0017 214.138 367.5714 217.9571 369.9547 211.2417 375.2625 206.0427 375.8673 201.2462 372.7761 196.0694 374.8882 191.8211 371.106 186.6602 374.0652 181.2651 373.9143 179.5994 376.6626 172.892 370.7021 166.9563 370.8044 164.511 365.7464 160.5585 365.1943 148.6915 357.7043 146.8136 348.3401 142.3645 341.116 132.3454 330.7071 131.9357 325.4359 142.4762 314.8553 146.6955 320.7562 153.9393 323.421 157.336 326.7363 164.2906 329.4025 167.4099 327.0698 165.1345 317.3385 169.1103 315.5677 170.1029 324.6317 174.724 322.8574 174.7727 316.5974 181.3395 313.3721 187.2298 317.3949 Z" data-anchor-x="174.94639999999998" data-anchor-y="345.01734999999996" data-fill-id="85" data-name="Vendée" id="85" fill="#ff0000" stroke="black" stroke-width="1"/>
		<path d="M 370.1209 174.0748 367.489 181.33 371.3758 184.607 365.7385 187.2284 360.8618 193.9226 360.1718 201.8102 355.8114 202.4696 355.0628 209.675 351.0406 210.448 347.8957 206.9991 347.5808 202.0349 343.615 199.4008 337.3189 190.0059 339.888 186.4005 337.2553 182.9595 337.8168 177.4561 333.6028 170.9758 330.8877 162.5661 339.4043 160.2341 345.314 162.9521 350.8569 160.5342 356.502 164.93 364.1655 165.6085 370.4297 170.81 370.1209 174.0748 Z" data-anchor-x="351.13175" data-anchor-y="185.34105" data-fill-id="78" data-name="Yvelines" id="78" fill="#008000" stroke="black" stroke-width="1"/>
		<path d="M 225.0573 592.4739 233.4285 593.0186 236.2731 597.6455 234.5501 604.9077 239.0951 605.9367 235.4918 615.4578 237.1076 617.8106 226.0548 630.867 220.1765 639.2817 218.0178 646.2046 218.536 650.5935 213.8542 654.2965 201.6119 651.2674 194.2874 645.8011 193.4043 640.0955 182.0902 640.6535 177.9391 637.2422 164.8688 632.6725 159.3531 628.5713 158.6297 633.4717 152.0238 628.9309 155.5046 625.4347 157.9538 615.5726 149.4336 611.8627 144.8519 614.9214 141.6949 609.7341 138.0346 611.0319 135.7257 604.7584 142.1465 603.9298 146.2101 600.656 151.1945 593.2861 156.9961 596.1424 164.4963 596.3989 171.6661 593.1989 172.6689 595.8843 181.5418 596.8646 186.6679 593.4661 200.3524 592.7877 206.7683 594.9883 213.1492 591.1059 219.5525 594.9578 225.0573 592.4739 Z" data-anchor-x="187.41039999999998" data-anchor-y="622.7012" data-fill-id="64" data-name="Pyrénées-Atlantiques" id="64" fill="#ff0000" stroke="black" stroke-width="1"/>
		<path d="M 241.3275 472.7064 244.1034 465.7497 246.9809 463.0418 251.2054 464.7069 259.2919 457.3091 259.6657 448.1336 273.1367 438.0385 272.9273 433.065 280.3496 425.5064 288.4013 429.4551 286.9591 433.4763 290.1346 436.7966 297.3785 434.1615 302.0057 434.4009 303.228 438.6447 309.8695 441.3452 309.4904 445.0186 314.502 447.8426 318.3993 453.011 313.6014 459.1469 313.0079 465.4042 316.6419 472.205 321.3453 472.4255 322.0474 478.3637 324.7159 481.7283 322.7286 483.2886 324.162 492.8622 315.1731 505.6732 307.1201 509.0204 302.8957 516.2944 297.6274 510.8547 291.4688 514.1856 287.4398 506.0223 283.5292 507.9521 274.6052 507.7223 265.8212 509.7776 261.9625 508.28 262.0275 503.6194 259.3352 500.344 260.2767 493.3616 257.2775 491.9227 252.6268 495.002 245.3099 494.8608 242.3755 491.474 243.312 485.0987 247.6129 475.5206 246.1414 471.8759 241.3275 472.7064 Z" data-anchor-x="283.0217" data-anchor-y="470.9004" data-fill-id="24" data-name="Dordogne" id="24" fill="#ff0000" stroke="black" stroke-width="1"/>
		<path d="M 488.2375 386.7753 489.4213 380.7772 494.6049 382.8743 505.8889 381.8018 506.5853 388.4642 509.9329 389.7553 508.2479 397.0152 510.3449 408.8028 517.5856 413.5606 518.2362 418.8836 528.3661 418.1033 528.121 423.9927 530.2312 426.4386 524.7502 433.7658 517.6475 434.8114 514.1136 439.7281 514.5591 443.2545 509.9217 446.9275 504.5463 444.5652 503.6173 439.2166 496.8205 437.895 487.946 430.1552 489.1581 424.8276 488.4853 416.5937 483.4931 408.0214 484.7916 393.9076 491.1502 390.8538 488.2375 386.7753 Z" data-anchor-x="506.86215" data-anchor-y="413.85235" data-fill-id="69" data-name="Rhône" id="69" fill="#ff0000" stroke="black" stroke-width="1"/>
		<path d="M 374.878 170.7647 376.3547 174.7855 371.3137 178.4639 376.927 181.4118 376.2948 186.8217 371.3758 184.607 367.489 181.33 370.1209 174.0748 374.878 170.7647 Z" data-anchor-x="372.20799999999997" data-anchor-y="178.7932" data-fill-id="92" data-name="Hauts-de-Seine" id="92" fill="#008000" stroke="black" stroke-width="1"/>
		<path d="M 263.4564 274.7996 271.3407 278.1872 275.7081 272.7594 284.2932 268.684 290.9263 268.7197 300.4635 274.0318 306.4836 276.1189 306.9761 282.1809 309.5277 287.1907 310.8387 296.3958 309.9159 300.7419 316.1513 301.2497 321.5168 309.9023 320.8971 316.4067 317.2684 322.8608 313.2746 321.2056 308.082 322.7025 302.1096 342.9165 295.7765 344.0207 292.7853 337.7543 287.3055 331.5611 286.7074 325.8019 276.3912 326.8911 272.8964 328.9666 266.0043 328.0651 265.6207 318.8472 252.7136 309.6899 254.3835 300.2945 257.7501 296.2035 263.0241 281.2792 263.4564 274.7996 Z" data-anchor-x="287.1152" data-anchor-y="306.35235" data-fill-id="37" data-name="Indre-et-Loire" id="37" fill="#ff5e13" stroke="black" stroke-width="1"/>
		<path d="M 432.261 486.343 438.9294 499.1185 444.3434 497.0981 453.9506 496.8519 460.6564 504.15 462.5263 514.4669 465.6757 517.6464 468.6093 526.592 463.3744 533.249 465.9323 543.6947 461.8341 552.8195 448.727 548.9589 448.0736 553.6346 437.6578 553.2755 433.2739 549.7851 422.7587 543.8457 418.7216 534.528 419.5424 527.0715 415.7879 523.5365 416.6853 518.9618 410.8959 512.2853 414.5153 500.0555 419.957 491.8091 422.4765 495.0882 432.261 486.343 Z" data-anchor-x="439.75260000000003" data-anchor-y="519.9888" data-fill-id="48" data-name="Lozère" id="48" fill="#ff0000" stroke="black" stroke-width="1"/>
		<path d="M 542.3172 210.9436 549.9585 209.2016 557.6778 204.4264 564.7652 204.4103 563.787 211.5987 570.6435 214.541 576.6451 215.0344 584.064 210.5788 596.7061 209.415 602.7454 204.5477 604.4188 207.5474 610.8295 209.9578 616.9477 208.2453 621.7389 203.1253 629.1314 199.9545 627.4463 212.9541 633.9435 215.8511 630.7645 220.9938 624.6221 239.2963 622.6291 241.0642 617.202 255.4043 616.0511 256.223 613.7203 253.3194 606.1208 249.4103 603.8654 246.3567 597.376 251.3598 590.901 245.6173 584.4188 248.1498 580.2244 246.2667 578.4522 241.1457 568.3871 245.0775 565.6302 249.4068 558.9202 241.0313 553.1015 237.1441 554.0257 229.7333 551.8048 224.804 543.9418 216.0591 542.3172 210.9436 Z" data-anchor-x="588.1303499999999" data-anchor-y="228.08875" data-fill-id="88" data-name="Vosges" id="88" fill="#008000" stroke="black" stroke-width="1"/>
		<path d="M 564.5316 545.6219 571.255 543.6284 579.7068 529.0069 588.6794 522.169 595.2682 529.3087 600.5689 522.6627 602.2449 517.9109 610.4975 523.4138 618.1141 523.2178 620.6958 516.4102 625.223 511.73 635.22 505.8988 634.6643 512.4126 630.4429 515.8817 632.9773 524.6566 632.9187 529.3073 628.5505 532.0023 624.0514 538.5737 622.256 545.2305 626.4827 551.9744 626.1138 555.0187 632.2435 561.6514 628.7217 567.4308 624.2649 569.8319 620.7422 575.3176 614.2846 574.2259 608.5244 575.7853 606.4106 580.2764 596.4888 575.5578 592.5038 580.5826 586.5172 584.3069 580.9992 581.8683 570.4578 582.078 564.2914 574.6915 559.7043 574.4392 559.8656 567.7295 555.525 564.4861 557.4145 558.9906 554.6342 551.9309 558.8633 546.0827 564.5316 545.6219 Z" data-anchor-x="594.9271" data-anchor-y="545.10285" data-fill-id="04" data-name="Alpes-de-Haute-Provence" id="04" fill="#ff5e13" stroke="black" stroke-width="1"/>
		<path d="M 475.129 90.5061 479.0167 89.4994 486.0451 91.9559 498.2004 86.0861 498.9219 79.1143 505.075 73.8263 507.6628 74.2659 504.0061 89.9221 508.8881 93.7154 507.3705 103.0343 519.639 104.9746 523.4133 110.4678 528.7743 110.0655 535.4414 116.2044 531.3568 120.888 523.8948 120.8227 519.8073 122.3654 521.1349 129.2022 520.3258 136.1461 517.0319 139.2647 517.2088 143.8913 513.3153 146.98 499.5314 145.7204 496.0879 147.3155 493.7203 142.7066 487.0963 144.7235 479.8023 140.5337 472.8029 134.6423 466.2345 134.4842 466.1122 123.3917 470.0076 112.811 475.1749 107.2962 474.0318 104.5569 476.3529 94.8193 475.129 90.5061 Z" data-anchor-x="500.7768" data-anchor-y="110.5709" data-fill-id="08" data-name="Ardennes" id="08" fill="#008000" stroke="black" stroke-width="1"/>
		<path d="M 354.2913 551.1701 360.9691 547.6807 370.6401 551.6699 381.056 559.2091 383.2313 567.6486 386.5231 569.773 386.9095 575.8852 393.6596 583.6843 401.2701 582.2399 406.3649 583.827 408.2172 587.6081 407.3154 590.1587 398.4134 593.8242 391.9125 591.1762 389.7734 597.6973 392.7549 605.3765 386.8327 609.0987 378.9004 608.0171 377.0592 609.5248 369.2977 606.0522 366.929 608.6638 358.331 611.0553 355.8184 607.7109 355.2136 605.0663 347.4623 601.1214 344.9309 596.3205 337.296 593.0765 338.8695 589.9593 334.3671 578.9337 330.9907 577.3729 329.1642 569.1071 337.8433 559.261 335.3212 553.4758 341.3553 554.2798 347.0309 551.5054 354.2913 551.1701 Z" data-anchor-x="368.6907" data-anchor-y="579.3679999999999" data-fill-id="81" data-name="Tarn" id="81" fill="#ff0000" stroke="black" stroke-width="1"/>
		<path d="M 376.927 181.4118 371.3137 178.4639 376.3547 174.7855 381.3703 178.8903 376.927 181.4118 Z" data-anchor-x="376.342" data-anchor-y="178.09865000000002" data-fill-id="75" data-name="Paris" id="75" fill="#008000" stroke="black" stroke-width="1"/>
		<path d="M 301.8914 532.0252 305.08 537.0932 318.366 545.9185 330.514 538.8123 335.1623 539.9914 340.1395 536.8692 348.3298 535.9723 349.3574 547.6583 354.2913 551.1701 347.0309 551.5054 341.3553 554.2798 335.3212 553.4758 337.8433 559.261 329.1642 569.1071 321.2009 572.7034 317.78 576.8967 309.7426 580.3063 306.0992 576.4598 294.395 578.7232 291.0157 569.4621 283.5933 566.0856 287.6036 561.9524 287.2802 557.1925 282.862 556.3738 289.4429 547.8529 292.4442 546.2347 295.2374 540.0664 290.9517 536.1478 301.8914 532.0252 Z" data-anchor-x="318.57665" data-anchor-y="556.16575" data-fill-id="82" data-name="Tarn-et-Garonne" id="82" fill="#ff0000" stroke="black" stroke-width="1"/>
		<path d="M 186.6602 374.0652 191.8211 371.106 196.0694 374.8882 201.2462 372.7761 206.0427 375.8673 205.736 380.5378 209.1085 382.9421 212.154 388.9606 226.5294 394.9437 231.1252 394.8766 240.5139 403.9145 237.9667 407.3814 237.0948 417.4206 233.3224 418.9039 223.4012 417.7267 221.5843 429.9719 227.5899 434.3826 230.6441 439.0845 230.359 452.0603 235.3945 456.3814 237.5803 461.0257 241.3626 461.1099 244.1034 465.7497 241.3275 472.7064 235.0115 473.559 220.3563 463.4448 219.4114 457.3321 212.3914 453.539 202.2174 453.6399 197.4847 444.0424 187.9917 432.8715 189.7597 431.0979 176.7819 421.6173 176.7625 416.001 182.9095 414.5265 186.2538 407.073 188.2434 398.104 185.9483 391.5434 179.1034 385.5049 186.6602 374.0652 Z" data-anchor-x="210.43295" data-anchor-y="422.3325" data-fill-id="17" data-name="Charente-Maritime" id="17" fill="#ff0000" stroke="black" stroke-width="1"/>
		<path d="M 570.2491 582.4646 570.4578 582.078 580.9992 581.8683 586.5172 584.3069 592.5038 580.5826 596.4888 575.5578 606.4106 580.2764 608.5244 575.7853 614.2846 574.2259 620.7422 575.3176 622.2982 578.501 627.6538 578.898 628.3665 584.7032 630.9556 587.7038 637.0715 589.6079 635.6384 594.9491 639.0115 598.9438 635.0115 604.2852 627.8671 605.1881 626.7306 610.2948 619.9173 615.5506 624.3658 618.6349 622.2009 624.8201 618.6433 623.0337 614.797 626.203 597.9332 629.7232 593.6834 632.9138 589.3034 632.9886 582.4352 630.1168 578.1387 635.9042 575.1877 630.7438 567.025 625.8355 567.6114 621.3137 571.6409 617.3901 567.1439 614.6379 567.0594 608.405 570.8953 605.4679 567.791 601.4853 569.0454 596.4308 566.3919 591.6309 572.9769 587.4384 570.2491 582.4646 Z" data-anchor-x="602.7017" data-anchor-y="605.0650499999999" data-fill-id="83" data-name="Var" id="83" fill="#ff5e13" stroke="black" stroke-width="1"/>
		<path d="M 292.0145 393.0374 293.6147 385.1397 296.6611 380.8305 301.5608 380.8866 305.0059 375.1829 311.9964 373.3023 324.9932 376.5178 322.431 386.7396 326.7627 389.7897 331.5993 398.1574 330.0826 407.9617 336.1542 409.6344 337.7478 417.3682 343.0413 415.7699 349.8987 420.4652 350.7918 428.346 340.1715 432.6763 331.6066 439.8542 325.768 439.4258 319.924 446.1451 314.502 447.8426 309.4904 445.0186 309.8695 441.3452 303.228 438.6447 302.0057 434.4009 297.3785 434.1615 290.1346 436.7966 286.9591 433.4763 288.4013 429.4551 280.3496 425.5064 285.5397 418.4214 288.5588 419.9682 291.6978 412.5142 298.246 406.7594 297.3913 402.5012 291.5458 399.4222 292.0145 393.0374 Z" data-anchor-x="315.5707" data-anchor-y="410.57245" data-fill-id="87" data-name="Haute-Vienne" id="87" fill="#ff0000" stroke="black" stroke-width="1"/>
		<path d="M 350.7918 428.346 359.0614 423.2657 374.2785 430.5369 380.6033 428.6025 383.7541 425.5604 385.0809 433.3926 382.2269 436.9949 385.2291 442.6872 384.5274 446.1309 380.951 453.6466 376.7471 451.0016 373.7433 458.3847 366.8352 466.3945 365.5923 477.3822 361.1094 479.3908 363.5708 483.2583 359.2193 485.6637 350.5222 485.4312 345.6873 489.3962 341.7265 488.5784 335.9348 481.2997 329.2446 479.7576 324.7159 481.7283 322.0474 478.3637 321.3453 472.4255 316.6419 472.205 313.0079 465.4042 313.6014 459.1469 318.3993 453.011 314.502 447.8426 319.924 446.1451 325.768 439.4258 331.6066 439.8542 340.1715 432.6763 350.7918 428.346 Z" data-anchor-x="349.11850000000004" data-anchor-y="456.33095000000003" data-fill-id="19" data-name="Corrèze" id="19" fill="#ff0000" stroke="black" stroke-width="1"/>
		<path d="M 349.3603 106.3599 354.9806 111.1363 362.1441 110.2814 363.7767 112.5279 373.1545 111.1503 379.5015 114.8022 383.3408 115.1004 394.6384 121.1879 395.9278 117.6039 406.3681 111.5663 418.0264 110.9932 416.761 117.6241 419.0351 121.4302 418.3663 128.9253 415.7683 139.412 410.092 141.5162 413.8546 149.4021 417.2739 151.3456 415.6815 157.6932 414.5398 160.2093 399.0928 162.1968 392.935 158.9027 390.5742 160.6436 376.2022 152.1363 371.3392 152.5869 363.6784 150.5395 354.4089 153.456 347.1419 152.6733 344.5893 148.0406 347.9621 141.4698 345.321 134.0085 348.6384 128.9962 344.5917 118.877 345.6291 108.4595 349.3603 106.3599 Z" data-anchor-x="381.81219999999996" data-anchor-y="134.27835" data-fill-id="60" data-name="Oise" id="60" fill="#008000" stroke="black" stroke-width="1"/>
		<path d="M 594.8016 470.2951 599.1561 470.6042 602.6362 475.1832 612.5169 469.8248 615.566 470.7748 618.3289 477.7665 622.2392 477.8223 622.9164 485.3159 629.6617 490.6396 637.7641 491.0891 639.4937 499.717 635.22 505.8988 625.223 511.73 620.6958 516.4102 618.1141 523.2178 610.4975 523.4138 602.2449 517.9109 600.5689 522.6627 595.2682 529.3087 588.6794 522.169 579.7068 529.0069 571.255 543.6284 564.5316 545.6219 564.2928 538.9364 560.8533 534.5765 553.7185 534.3925 549.2874 527.6018 552.6139 522.2307 559.7008 524.0511 559.124 517.8922 561.9137 508.9317 566.8791 509.9061 570.2456 504.5543 576.7538 500.7772 578.3189 496.5207 588.4698 491.3597 600.9557 491.7211 600.9353 484.7568 597.7753 479.8556 592.0497 479.4798 594.8016 470.2951 Z" data-anchor-x="594.3905500000001" data-anchor-y="507.72335" data-fill-id="05" data-name="Hautes-Alpes" id="05" fill="#ffff00" stroke="black" stroke-width="1"/>
		<path d="M 494.9698 464.5958 501.8489 463.0642 501.3176 460.2767 509.9887 454.0204 512.6166 459.3313 513.1674 473.2917 516.2359 478.0063 515.2063 482.4519 518.1072 487.9694 514.7314 497.4088 511.3302 501.1209 512.5914 510.3432 507.8816 517.9541 508.0577 527.2748 505.8472 536.2621 505.8798 540.9766 497.4586 535.6326 487.3986 535.9212 483.5464 541.836 478.7568 537.6843 474.1267 536.446 472.6449 530.8686 468.6093 526.592 465.6757 517.6464 462.5263 514.4669 460.6564 504.15 468.2212 498.0304 470.4944 493.7796 477.1086 493.6955 484.4959 483.8225 489.4178 480.58 489.2424 473.7231 494.4609 469.1361 494.9698 464.5958 Z" data-anchor-x="489.3818" data-anchor-y="497.9282" data-fill-id="07" data-name="Ardèche" id="07" fill="#ff5e13" stroke="black" stroke-width="1"/>
		<path d="M 271.9917 130.5206 274.1793 129.3632 283.811 126.9851 290.9537 133.3737 297.8378 132.3313 304.0392 135.0301 304.4647 140.7181 308.302 145.8376 312.1997 141.3569 318.5639 138.1103 322.3297 138.576 324.4853 132.0966 328.2795 129.9954 337.4354 131.3273 342.4839 134.7841 345.321 134.0085 347.9621 141.4698 344.5893 148.0406 339.4043 160.2341 330.8877 162.5661 333.6028 170.9758 331.3822 176.3497 326.0711 179.3929 324.2152 185.1233 315.606 184.2394 308.8154 187.2524 300.2544 188.2889 297.1296 191.6217 292.9618 182.2871 286.6345 178.4094 286.2144 174.2502 278.6496 174.4816 276.7394 168.7589 277.7366 162.2918 275.322 159.0883 276.9715 154.6214 276.0476 143.6806 272.5326 139.0656 271.9917 130.5206 Z" data-anchor-x="309.9769" data-anchor-y="159.3034" data-fill-id="27" data-name="Eure" id="27" fill="#008000" stroke="black" stroke-width="1"/>
		<path d="M 142.5583 189.674 148.4952 193.1459 151.5646 195.364 152.0989 202.3158 149.8567 213.7916 137.3863 217.7032 134.7555 224.0984 131.4617 226.3582 124.3468 222.6668 119.4791 225.5645 117.3839 229.9447 113.0119 232.9157 112.0749 226.644 106.7444 226.0425 99.6573 221.6307 93.4247 220.6906 88.018 217.4538 86.5599 220.6932 78.8282 221.8904 75.7809 219.2946 64.1973 217.1622 66.862 211.6537 65.9153 201.914 63.647 200.6074 64.2062 192.4237 67.3392 189.8389 62.5241 183.1722 62.333 179.5713 68.6582 172.7322 71.2659 166.6248 76.9547 169.2835 86.6793 164.802 97.3344 170.6053 100.0007 177.021 105.9226 183.1934 105.8906 187.9356 113.0965 194.8921 120.0255 189.088 131.9916 183.7387 134.2222 184.1305 138.3527 191.022 142.5583 189.674 Z" data-anchor-x="107.21594999999999" data-anchor-y="198.85885" data-fill-id="22" data-name="Côtes-d'Armor" id="22" fill="#ffff00" stroke="black" stroke-width="1"/>
		<path d="M 363.0856 669.1137 374.2233 664.1969 373.1921 655.1514 382.8463 654.3858 396.6072 655.7103 399.6158 650.9323 404.0739 649.1594 414.493 655.5448 413.9428 669.6361 414.9003 678.6313 419.0839 680.6507 422.1621 687.5014 416.9829 688.2886 408.7085 683.9906 404.3206 684.9614 398.43 689.378 392.7727 689.8855 392.8209 694.8537 381.36 694.9016 377.4534 690.8829 368.2313 687.0398 361.8624 688.3935 353.9875 694.1598 350.6826 687.9999 341.6899 682.6134 337.3518 682.3869 340.7245 675.9869 355.0463 669.9206 363.0856 669.1137 Z" data-anchor-x="379.75695" data-anchor-y="672.0305000000001" data-fill-id="66" data-name="Pyrénées-Orientales" id="66" fill="#ff0000" stroke="black" stroke-width="1"/>
		<path d="M 739.6944 680.2148 754.9987 684.1068 758.5278 687.6999 768.4706 691.9476 776.4255 705.8757 779.9337 705.4004 781.3745 718.9854 786.8436 720.3954 791.6756 717.8341 792.6801 730.8979 791.3064 739.3639 787.4526 743.5756 786.234 752.6295 783.9743 757.0422 776.0954 755.5704 772.5925 750.4604 765.7384 749.3384 758.4137 744.5479 757.1362 738.6247 763.7976 733.4538 751.3391 731.9061 751.7339 725.8112 754.5043 724.6446 756.0523 718.0732 754.4185 715.4583 746.3886 717.2641 746.6999 709.333 751.7909 706.0393 748.711 701.0002 741.6344 698.345 740.4861 691.5477 747.2319 689.0394 739.6944 680.2148 Z" data-anchor-x="766.18725" data-anchor-y="718.6285" data-fill-id="2A" data-name="Corse-du-Sud" id="2A" fill="#ff0000" stroke="black" stroke-width="1"/>
		<path d="M 376.927 181.4118 381.3703 178.8903 386.042 178.2891 390.5393 182.2791 389.4408 191.4167 376.2948 186.8217 376.927 181.4118 Z" data-anchor-x="383.41705" data-anchor-y="184.85289999999998" data-fill-id="94" data-name="Val-de-Marne" id="94" fill="#008000" stroke="black" stroke-width="1"/>
		<path d="M 433.2739 549.7851 437.6578 553.2755 448.0736 553.6346 448.727 548.9589 461.8341 552.8195 465.9323 543.6947 463.3744 533.249 468.6093 526.592 472.6449 530.8686 474.1267 536.446 478.7568 537.6843 483.5464 541.836 487.3986 535.9212 497.4586 535.6326 505.8798 540.9766 510.1815 547.4676 509.486 554.1421 517.426 561.4742 511.5999 568.3076 506.2027 575.8651 506.8093 579.6438 504.1443 587.3679 497.3987 586.4829 493.0158 597.5924 483.5063 602.5406 483.004 605.6193 478.206 604.329 475.4515 598.2587 480.7038 590.2811 477.6143 583.7375 469.4445 577.9323 464.6699 572.4939 456.0171 565.6383 447.6727 569.8392 444.079 574.69 440.9369 571.4537 432.4652 570.1841 432.0493 568.2337 437.6122 561.4489 428.7377 558.0058 431.0303 550.758 433.2739 549.7851 Z" data-anchor-x="473.08185000000003" data-anchor-y="566.10565" data-fill-id="30" data-name="Gard" id="30" fill="#ff5e13" stroke="black" stroke-width="1"/>
		<path d="M 389.4408 191.4167 390.5393 182.2791 389.0553 175.728 390.6863 171.1552 388.6222 166.1694 390.5742 160.6436 392.935 158.9027 399.0928 162.1968 414.5398 160.2093 415.6815 157.6932 420.5434 159.106 420.7321 165.6821 427.8424 171.0739 429.2085 174.2482 437.3289 178.718 432.7007 186.0876 436.5814 187.7645 436.1409 194.4978 441.1488 197.0688 432.6755 207.9117 433.8411 215.3611 425.3835 217.3864 414.3713 217.9734 414.3401 224.8914 408.5704 233.3988 403.2443 235.7224 398.9636 234.7733 386.5339 236.168 386.6407 230.8333 380.353 220.8149 384.1473 215.3068 386.3789 206.2346 385.5708 203.2224 389.4408 191.4167 Z" data-anchor-x="410.7509" data-anchor-y="196.9306" data-fill-id="77" data-name="Seine-et-Marne" id="77" fill="#008000" stroke="black" stroke-width="1"/>
		<path d="M 335.9156 620.3692 342.7287 613.7849 346.906 607.6629 353.4147 610.0055 355.8184 607.7109 358.331 611.0553 366.929 608.6638 369.2977 606.0522 377.0592 609.5248 378.9004 608.0171 386.8327 609.0987 385.4938 615.0573 389.8129 619.8608 398.7304 622.2359 405.3709 616.5313 418.3716 622.6049 422.8128 622.7697 425.8616 625.8002 418.8089 634.4945 414.3077 646.7859 414.493 655.5448 404.0739 649.1594 399.6158 650.9323 396.6072 655.7103 382.8463 654.3858 373.1921 655.1514 374.2233 664.1969 363.0856 669.1137 362.7291 666.0691 356.7824 661.711 353.8823 663.4429 348.4217 661.4714 346.3126 653.9328 352.8028 652.5642 352.8096 644.9441 350.8777 632.6823 337.2613 627.3656 335.9156 620.3692 Z" data-anchor-x="380.8886" data-anchor-y="637.58295" data-fill-id="11" data-name="Aude" id="11" fill="#ff0000" stroke="black" stroke-width="1"/>
		<path d="M 622.6795 417.35 625.4908 424.2619 633.6088 428.8695 634.7136 438.456 645.4034 445.6562 641.9378 452.0723 643.4075 457.7043 634.0048 462.0455 627.8554 468.7601 623.1914 466.4208 615.566 470.7748 612.5169 469.8248 602.6362 475.1832 599.1561 470.6042 594.8016 470.2951 587.6368 463.699 587.0844 457.8033 590.0358 455.1965 589.2996 449.3804 586.0721 445.8821 579.6843 444.9835 573.7928 448.0005 569.2573 447.9378 564.4609 444.0937 557.8193 433.1004 561.139 430.8119 562.9937 425.421 566.3302 422.402 566.4042 415.8839 568.3151 406.9686 571.5303 415.6837 580.7372 422.2976 585.9118 420.3346 588.9342 425.2048 596.7332 425.2952 606.0018 407.7576 611.0171 416.5984 614.7862 416.0918 617.8754 421.9956 622.6795 417.35 Z" data-anchor-x="601.61135" data-anchor-y="441.0759" data-fill-id="73" data-name="Savoie" id="73" fill="#ff5e13" stroke="black" stroke-width="1"/>
		<path d="M 632.9187 529.3073 634.9205 529.9744 640.2996 538.9452 649.2196 540.6256 660.6981 547.3113 675.4925 543.8241 681.0428 548.3487 680.7382 551.9412 673.39 563.608 669.7859 566.2279 672.0295 573.0379 651.1054 584.631 648.5138 591.3253 639.7648 594.7048 639.0115 598.9438 635.6384 594.9491 637.0715 589.6079 630.9556 587.7038 628.3665 584.7032 627.6538 578.898 622.2982 578.501 620.7422 575.3176 624.2649 569.8319 628.7217 567.4308 632.2435 561.6514 626.1138 555.0187 626.4827 551.9744 622.256 545.2305 624.0514 538.5737 628.5505 532.0023 632.9187 529.3073 Z" data-anchor-x="650.8925" data-anchor-y="564.12555" data-fill-id="06" data-name="Alpes-Maritimes" id="06" fill="#ff5e13" stroke="black" stroke-width="1"/>
		<path d="M 233.4285 593.0186 238.1785 591.4206 241.7871 598.3418 245.2992 598.6051 248.8948 610.3421 254.4817 609.3559 257.503 612.8631 270.1723 614.3487 273.3492 615.9419 270.3869 623.7562 263.308 629.9038 269.9276 635.2072 274.6992 643.6157 269.1714 651.5835 264.7341 650.0103 263.0003 661.8494 264.3109 664.1517 257.4976 662.0076 253.5576 665.9201 246.9538 660.6582 239.1483 663.6069 232.7255 663.4324 227.5796 656.3849 218.536 650.5935 218.0178 646.2046 220.1765 639.2817 226.0548 630.867 237.1076 617.8106 235.4918 615.4578 239.0951 605.9367 234.5501 604.9077 236.2731 597.6455 233.4285 593.0186 Z" data-anchor-x="246.3585" data-anchor-y="628.6703500000001" data-fill-id="65" data-name="Hautes-Pyrénées" id="65" fill="#ff0000" stroke="black" stroke-width="1"/>
		<path d="M 622.6795 417.35 617.8754 421.9956 614.7862 416.0918 611.0171 416.5984 606.0018 407.7576 596.7332 425.2952 588.9342 425.2048 585.9118 420.3346 580.7372 422.2976 571.5303 415.6837 568.3151 406.9686 566.9777 395.8119 571.315 394.97 574.7406 391.3434 584.6504 390.2287 593.0809 383.2595 589.8054 378.9128 592.2123 372.8815 597.9441 373.9087 606.4243 369.217 615.9277 367.7438 619.6595 368.7474 619.6906 373.5814 624.1582 377.2517 621.1116 383.7319 620.9861 388.8633 626.5913 390.1502 628.3205 394.3305 633.3362 399.4797 635.4605 405.2432 633.0795 409.4142 623.3308 412.77 622.6795 417.35 Z" data-anchor-x="601.2191" data-anchor-y="396.5195" data-fill-id="74" data-name="Haute-Savoie" id="74" fill="#ff5e13" stroke="black" stroke-width="1"/>
		<path d="M 187.9917 432.8715 197.4847 444.0424 202.2174 453.6399 212.3914 453.539 219.4114 457.3321 220.3563 463.4448 235.0115 473.559 241.3275 472.7064 246.1414 471.8759 247.6129 475.5206 243.312 485.0987 242.3755 491.474 245.3099 494.8608 252.6268 495.002 257.2775 491.9227 260.2767 493.3616 259.3352 500.344 251.4063 502.5268 252.599 508.1208 249.7551 512.2543 240.9161 520.0512 242.2326 531.1142 236.8631 531.9364 239.1909 536.5464 237.2064 540.4598 232.9458 541.8804 225.3713 544.1528 218.7105 542.6342 219.3332 536.5585 205.608 526.9595 205.9967 523.5483 197.9838 523.4025 193.7449 524.8977 184.4386 523.0025 186.1387 519.424 179.034 517.4968 170.6047 519.8266 170.7509 514.5087 174.7497 504.8535 180.9755 506.642 182.9228 501.4717 177.2339 496.0204 171.7573 500.5142 175.5253 479.6614 179.3576 453.8218 180.3652 440.803 184.2108 433.4574 187.9917 432.8715 Z" data-anchor-x="215.4407" data-anchor-y="488.51215" data-fill-id="33" data-name="Gironde" id="33" fill="#ff0000" stroke="black" stroke-width="1"/>
		<path d="M 413.6778 341.8867 414.5952 344.7834 423.0799 351.0697 434.7427 348.5039 437.9739 352.9849 446.2173 345.3424 451.8437 356.7582 452.5015 361.9679 459.0464 365.5799 464.3716 365.685 467.0109 369.3782 465.9586 379.2868 461.3586 382.7324 457.0849 384.0558 455.4411 387.9856 455.7736 395.7642 457.6562 404.9007 451.508 406.7539 450.3072 410.1997 444.6429 402.9057 439.5731 403.7343 437.2324 399.8942 431.9544 400.6506 419.1802 399.3795 413.185 396.8153 407.1055 390.8442 408.5195 385.6924 404.1312 384.5708 401.9015 388.7508 394.0304 391.1959 392.9294 394.9866 388.0442 393.4704 383.1657 382.53 378.5501 378.6019 375.4729 379.1073 372.5351 371.3806 377.3765 363.6588 390.601 361.2262 388.8725 356.6527 390.5091 351.7536 395.6414 347.7056 402.5349 346.5979 409.7861 341.1901 413.6778 341.8867 Z" data-anchor-x="419.773" data-anchor-y="375.69489999999996" data-fill-id="03" data-name="Allier" id="03" fill="#ff0000" stroke="black" stroke-width="1"/>
		<path d="M 243.9799 317.1685 252.7136 309.6899 265.6207 318.8472 266.0043 328.0651 272.8964 328.9666 276.3912 326.8911 286.7074 325.8019 287.3055 331.5611 292.7853 337.7543 295.7765 344.0207 298.9534 348.2431 298.1039 356.0962 310.5302 363.6331 311.9964 373.3023 305.0059 375.1829 301.5608 380.8866 296.6611 380.8305 293.6147 385.1397 292.0145 393.0374 287.8261 392.1433 284.4555 395.3065 279.2635 396.432 272.6869 392.3329 272.3592 397.7577 262.9357 397.6533 257.4637 394.5774 253.1824 385.1514 256.9993 376.1115 251.5129 377.7357 247.0344 370.9136 246.0961 360.8618 249.2975 353.4379 244.9202 352.2983 248.7047 344.9049 246.3363 336.5098 248.5461 329.82 244.5163 322.8418 243.9799 317.1685 Z" data-anchor-x="277.98815" data-anchor-y="353.7238" data-fill-id="86" data-name="Vienne" id="86" fill="#ff0000" stroke="black" stroke-width="1"/>
		<path d="M 616.1259 276.0793 621.2626 276.8669 623.7781 286.0008 623.2142 292.2308 629.9595 291.3938 625.3542 300.946 619.9913 308.1613 614.6339 312.0736 608.8862 321.2474 598.2436 327.235 600.1087 330.1939 599.1179 340.437 590.8531 346.4288 581.8641 355.853 583.4238 357.2693 578.3832 353.4981 579.294 346.9747 586.5373 340.6932 583.3214 336.3777 576.2336 334.1707 572.9097 324.1446 563.0788 321.2902 561.7759 315.8758 564.5865 311.6619 558.7923 305.6809 557.5132 302.1491 565.2767 298.9105 569.8064 295.433 577.1605 294.7312 587.3543 287.8865 591.0019 281.7235 595.0609 280.2618 603.8667 281.9786 608.8123 276.8261 616.1259 276.0793 Z" data-anchor-x="593.73635" data-anchor-y="316.6743" data-fill-id="25" data-name="Doubs" id="25" fill="#ff5e13" stroke="black" stroke-width="1"/>
		<path d="M 366.3485 371.0419 372.5351 371.3806 375.4729 379.1073 378.5501 378.6019 383.1657 382.53 388.0442 393.4704 387.5167 399.3609 389.9962 402.1737 386.7006 412.1376 378.1054 418.7032 383.7541 425.5604 380.6033 428.6025 374.2785 430.5369 359.0614 423.2657 350.7918 428.346 349.8987 420.4652 343.0413 415.7699 337.7478 417.3682 336.1542 409.6344 330.0826 407.9617 331.5993 398.1574 326.7627 389.7897 322.431 386.7396 324.9932 376.5178 330.3391 370.7782 342.1368 373.3864 347.2534 370.3194 366.3485 371.0419 Z" data-anchor-x="356.2136" data-anchor-y="400.42814999999996" data-fill-id="23" data-name="Creuse" id="23" fill="#ff0000" stroke="black" stroke-width="1"/>
		<path d="M 321.5168 309.9023 328.6799 305.8149 338.4548 303.2243 349.2384 307.7626 345.8095 314.8032 351.4608 317.1336 356.0227 315.3272 360.4615 316.8614 362.7904 324.104 361.4849 330.5672 365.1549 334.2093 360.309 339.0101 363.8269 342.7934 361.0517 345.7596 367.691 353.761 365.9349 360.4694 368.3794 366.2891 366.3485 371.0419 347.2534 370.3194 342.1368 373.3864 330.3391 370.7782 324.9932 376.5178 311.9964 373.3023 310.5302 363.6331 298.1039 356.0962 298.9534 348.2431 295.7765 344.0207 302.1096 342.9165 308.082 322.7025 313.2746 321.2056 317.2684 322.8608 320.8971 316.4067 321.5168 309.9023 Z" data-anchor-x="332.07795" data-anchor-y="339.87105" data-fill-id="36" data-name="Indre" id="36" fill="#ff0000" stroke="black" stroke-width="1"/>
		<path d="M 466.2345 134.4842 472.8029 134.6423 479.8023 140.5337 487.0963 144.7235 493.7203 142.7066 496.0879 147.3155 499.5314 145.7204 513.3153 146.98 512.8385 151.1102 515.9921 157.3786 518.4607 167.7009 511.9709 173.8766 513.453 182.483 516.3733 190.764 512.2985 190.5131 505.0835 198.7688 506.6927 203.2764 499.9101 203.2452 492.5989 203.5847 485.9681 201.2798 481.2262 196.8851 480.1501 189.1121 468.5642 190.3374 463.8022 194.0565 461.8725 198.2215 457.3042 200.7323 456.8048 204.605 445.3412 203.3313 441.1488 197.0688 436.1409 194.4978 436.5814 187.7645 432.7007 186.0876 437.3289 178.718 442.0726 173.0202 445.8373 163.5044 444.3273 154.9206 447.221 150.4717 445.3517 142.0846 459.8611 134.4093 466.2345 134.4842 Z" data-anchor-x="475.5807" data-anchor-y="169.50715" data-fill-id="51" data-name="Marne" id="51" fill="#008000" stroke="black" stroke-width="1"/>
		<path d="M 62.333 179.5713 62.5241 183.1722 67.3392 189.8389 64.2062 192.4237 63.647 200.6074 65.9153 201.914 66.862 211.6537 64.1973 217.1622 55.9952 219.8713 55.7065 223.3631 58.9042 232.7081 64.7052 233.0201 67.0982 236.0226 71.8661 236.0004 70.8337 242.5519 63.8455 248.0556 63.1318 250.3957 47.076 246.608 40.0672 241.5123 32.5408 239.9751 29.7674 243.7525 25.1394 245.1457 20.371 240.8392 18.5325 233.2077 15.8637 229.1672 6.6254 224.4443 7.0562 221.4358 21.5112 219.4901 26.5643 216.5885 25.2063 212.885 17.0828 208.694 12.621 213.7264 10.9445 207.2181 12.818 203.8811 18.6695 201.1936 19.6838 197.4761 9.2057 200.1181 2.4508 196.7445 1 193.162 2.6594 186.1389 7.8787 181.2819 11.812 181.626 15.7945 177.383 19.1632 178.2797 26.537 174.6978 32.901 176.7542 35.1014 174.6913 45.4128 172.7094 47.0654 177.6676 52.3235 180.7556 53.1365 174.782 59.3748 175.3356 62.333 179.5713 Z" data-anchor-x="36.43305" data-anchor-y="211.55255" data-fill-id="29" data-name="Finistère" id="29" fill="#ffff00" stroke="black" stroke-width="1"/>
		<path d="M 557.8193 433.1004 564.4609 444.0937 569.2573 447.9378 573.7928 448.0005 579.6843 444.9835 586.0721 445.8821 589.2996 449.3804 590.0358 455.1965 587.0844 457.8033 587.6368 463.699 594.8016 470.2951 592.0497 479.4798 597.7753 479.8556 600.9353 484.7568 600.9557 491.7211 588.4698 491.3597 578.3189 496.5207 576.7538 500.7772 570.2456 504.5543 560.8243 502.8117 550.9788 498.405 552.1147 482.2523 549.448 476.4008 545.2203 478.6357 536.8586 476.0563 533.3872 465.9154 526.7728 457.3453 522.9726 455.4976 512.6166 459.3313 509.9887 454.0204 509.9217 446.9275 514.5591 443.2545 514.1136 439.7281 517.6475 434.8114 524.7502 433.7658 530.2312 426.4386 528.121 423.9927 528.3661 418.1033 535.4594 421.3488 542.1094 412.1911 546.1939 418.0896 556.5487 430.0678 557.8193 433.1004 Z" data-anchor-x="555.4386999999999" data-anchor-y="458.3727" data-fill-id="38" data-name="Isère" id="38" fill="#ffff00" stroke="black" stroke-width="1"/>
		<path d="M 561.5281 124.8646 569.3432 128.4601 573.6057 124.9433 580.2682 123.1007 584.3946 126.336 589.2254 125.3318 594.8621 128.37 597.8052 132.4144 598.0994 137.2424 601.9968 140.236 604.9361 147.5537 611.4631 150.1906 615.5825 144.3179 628.0275 151.4352 635.759 151.641 638.9988 147.1014 642.6339 146.2798 647.8233 152.571 653.5684 155.6559 649.7111 165.3524 643.9812 163.3624 637.9772 165.3334 636.0886 163.044 623.3244 159.3471 622.5363 165.1507 619.2323 169.3978 628.1247 177.1597 631.5512 173.8805 637.9276 179.6689 635.0027 186.2252 635.7959 193.6398 631.4104 198.733 626.7446 198.2537 624.1739 194.8962 605.8551 188.4453 598.6222 182.2394 589.9316 181.0933 583.8643 175.5259 585.8907 170.7178 576.5551 169.0563 570.835 162.9303 566.2824 160.4387 567.9726 155.5292 566.9122 149.1378 569.3117 145.8565 565.0404 138.3071 561.5281 124.8646 Z" data-anchor-x="607.54825" data-anchor-y="160.91685" data-fill-id="57" data-name="Moselle" id="57" fill="#008000" stroke="black" stroke-width="1"/>
		<path d="M 519.7542 535.2865 520.9202 529.7435 524.902 528.4142 527.2173 533.1364 524.6455 538.3913 519.7542 535.2865 Z M 554.6342 551.9309 557.4145 558.9906 555.525 564.4861 559.8656 567.7295 559.7043 574.4392 564.2914 574.6915 570.4578 582.078 570.2491 582.4646 562.0086 587.9738 552.2872 586.5061 545.1132 582.3588 537.7091 582.654 529.6692 578.6138 525.2435 572.5347 518.1418 569.1757 511.5999 568.3076 517.426 561.4742 509.486 554.1421 510.1815 547.4676 505.8798 540.9766 505.8472 536.2621 512.2444 536.4633 515.329 543.7942 529.2107 537.4257 534.2647 539.5276 536.2848 544.3135 540.5294 543.3012 547.9106 545.3926 547.8808 548.6217 554.6342 551.9309 Z" data-anchor-x="538.1525" data-anchor-y="558.194" data-fill-id="84" data-name="Vaucluse" id="84" fill="#ffff00" stroke="black" stroke-width="1"/>
		<path d="M 480.8248 251.6746 481.6418 248.8627 494.6889 248.1117 495.8751 243.2348 502.5913 243.7741 507.1672 244.6971 516.175 255.6357 517.8179 260.9066 516.5285 268.7613 528.4066 272.3897 531.8344 274.7084 539.1852 275.8065 544.7351 275.3038 545.9144 279.5886 540.3523 287.7948 545.9314 294.2 547.6888 299.3678 545.8574 306.1853 541.0737 317.1845 535.6419 320.0371 534.2475 325.4831 526.2061 327.4788 523.0736 325.6505 505.7706 330.9961 499.6681 329.3778 487.6734 318.4293 481.2297 316.5342 477.332 312.8121 477.895 307.7058 472.703 304.6789 471.5269 298.3266 469.6082 292.5312 472.6647 288.5446 480.8957 266.945 483.1653 265.0659 482.3445 258.6738 479.4181 257.8391 480.8248 251.6746 Z" data-anchor-x="508.6485" data-anchor-y="287.11545" data-fill-id="21" data-name="Côte-d'Or" id="21" fill="#ffff00" stroke="black" stroke-width="1"/>
		<path d="M 499.9101 203.2452 506.6927 203.2764 505.0835 198.7688 512.2985 190.5131 516.3733 190.764 517.8172 196.6164 533.4399 203.6522 542.3172 210.9436 543.9418 216.0591 551.8048 224.804 554.0257 229.7333 553.1015 237.1441 558.9202 241.0313 565.6302 249.4068 562.1872 255.6635 555.1991 259.0104 556.623 262.3107 553.7029 269.7196 540.7565 270.4079 539.1852 275.8065 531.8344 274.7084 528.4066 272.3897 516.5285 268.7613 517.8179 260.9066 516.175 255.6357 507.1672 244.6971 502.5913 243.7741 503.8234 235.9593 508.5541 237.0662 510.4337 229.7419 508.327 217.9935 501.9042 213.3193 499.0415 207.4693 499.9101 203.2452 Z" data-anchor-x="532.3358499999999" data-anchor-y="233.15980000000002" data-fill-id="52" data-name="Haute-Marne" id="52" fill="#008000" stroke="black" stroke-width="1"/>
		<path d="M 244.5699 561.6437 252.5919 558.7514 257.5755 561.4694 273.6265 555.1966 279.6158 557.7846 282.862 556.3738 287.2802 557.1925 287.6036 561.9524 283.5933 566.0856 291.0157 569.4621 294.395 578.7232 300.4783 585.5188 308.1147 596.3694 300.6869 597.9984 295.9314 611.9758 290.9366 608.7248 283.0481 607.8136 275.5956 615.9315 273.3492 615.9419 270.1723 614.3487 257.503 612.8631 254.4817 609.3559 248.8948 610.3421 245.2992 598.6051 241.7871 598.3418 238.1785 591.4206 233.4285 593.0186 225.0573 592.4739 223.0162 587.776 227.769 581.1457 228.7334 569.1032 232.9623 564.2599 244.2204 566.7069 244.5699 561.6437 Z" data-anchor-x="265.56545" data-anchor-y="585.56925" data-fill-id="32" data-name="Gers" id="32" fill="#ff0000" stroke="black" stroke-width="1"/>
		<path d="M 240.5139 403.9145 243.8867 402.4095 245.1708 397.1909 250.9024 394.4099 257.4637 394.5774 262.9357 397.6533 272.3592 397.7577 272.6869 392.3329 279.2635 396.432 284.4555 395.3065 287.8261 392.1433 292.0145 393.0374 291.5458 399.4222 297.3913 402.5012 298.246 406.7594 291.6978 412.5142 288.5588 419.9682 285.5397 418.4214 280.3496 425.5064 272.9273 433.065 273.1367 438.0385 259.6657 448.1336 259.2919 457.3091 251.2054 464.7069 246.9809 463.0418 244.1034 465.7497 241.3626 461.1099 237.5803 461.0257 235.3945 456.3814 230.359 452.0603 230.6441 439.0845 227.5899 434.3826 221.5843 429.9719 223.4012 417.7267 233.3224 418.9039 237.0948 417.4206 237.9667 407.3814 240.5139 403.9145 Z" data-anchor-x="259.91515" data-anchor-y="428.9465" data-fill-id="16" data-name="Charente" id="16" fill="#ff0000" stroke="black" stroke-width="1"/>
		<path d="M 250.5714 212.9367 254.6207 213.2436 265.2301 206.1994 272.8365 208.1718 273.5423 217.5816 282.7501 224.8612 289.2196 224.3303 291.258 228.8967 295.1871 229.2889 298.6331 234.1662 297.2782 236.6315 295.8429 245.8654 297.3201 249.3869 292.3471 253.2697 293.1685 257.3949 282.4953 267.1763 284.2932 268.684 275.7081 272.7594 271.3407 278.1872 263.4564 274.7996 258.5533 276.5432 249.9899 271.4554 240.738 270.7272 238.9703 266.0215 232.4475 263.9054 231.2075 261.4622 227.9166 255.6483 232.2572 252.1576 230.957 248.3521 237.1719 246.0567 234.2983 239.1736 240.2342 238.1542 239.6095 230.4148 245.1611 226.7733 244.2972 222.2954 246.1999 214.1678 250.5714 212.9367 Z" data-anchor-x="263.27485" data-anchor-y="242.19330000000002" data-fill-id="72" data-name="Sarthe" id="72" fill="#ffff00" stroke="black" stroke-width="1"/>
		<path d="M 324.7159 481.7283 329.2446 479.7576 335.9348 481.2997 341.7265 488.5784 345.6873 489.3962 350.5222 485.4312 359.2193 485.6637 360.3037 492.8352 364.9963 498.8798 364.0575 507.6542 367.0836 514.3516 363.6858 517.9008 360.0313 516.5467 347.1925 524.2849 348.3298 535.9723 340.1395 536.8692 335.1623 539.9914 330.514 538.8123 318.366 545.9185 305.08 537.0932 301.8914 532.0252 299.5563 526.6895 299.8188 518.7515 302.8957 516.2944 307.1201 509.0204 315.1731 505.6732 324.162 492.8622 322.7286 483.2886 324.7159 481.7283 Z" data-anchor-x="333.31995" data-anchor-y="512.8380500000001" data-fill-id="46" data-name="Lot" id="46" fill="#ff0000" stroke="black" stroke-width="1"/>
		<path d="M 294.395 578.7232 306.0992 576.4598 309.7426 580.3063 317.78 576.8967 321.2009 572.7034 329.1642 569.1071 330.9907 577.3729 334.3671 578.9337 338.8695 589.9593 337.296 593.0765 344.9309 596.3205 347.4623 601.1214 355.2136 605.0663 355.8184 607.7109 353.4147 610.0055 346.906 607.6629 342.7287 613.7849 335.9156 620.3692 327.6781 619.9161 323.0279 625.2642 316.878 616.9499 313.0333 619.061 318.156 623.5146 309.1329 626.7209 307.8154 632.0781 303.6924 629.6171 299.4166 630.2906 294.7908 636.1476 294.2034 643.224 285.1554 647.7508 286.8346 654.8338 278.1772 651.7557 274.2824 657.8693 275.8847 665.2343 264.3109 664.1517 263.0003 661.8494 264.7341 650.0103 269.1714 651.5835 274.6992 643.6157 269.9276 635.2072 263.308 629.9038 270.3869 623.7562 273.3492 615.9419 275.5956 615.9315 283.0481 607.8136 290.9366 608.7248 295.9314 611.9758 300.6869 597.9984 308.1147 596.3694 300.4783 585.5188 294.395 578.7232 Z" data-anchor-x="309.40935" data-anchor-y="617.1706999999999" data-fill-id="31" data-name="Haute-Garonne" id="31" fill="#ff0000" stroke="black" stroke-width="1"/>
		<path d="M 483.004 605.6193 483.5063 602.5406 493.0158 597.5924 497.3987 586.4829 504.1443 587.3679 506.8093 579.6438 506.2027 575.8651 511.5999 568.3076 518.1418 569.1757 525.2435 572.5347 529.6692 578.6138 537.7091 582.654 545.1132 582.3588 552.2872 586.5061 562.0086 587.9738 570.2491 582.4646 572.9769 587.4384 566.3919 591.6309 569.0454 596.4308 567.791 601.4853 570.8953 605.4679 567.0594 608.405 567.1439 614.6379 571.6409 617.3901 567.6114 621.3137 567.025 625.8355 563.3292 627.4726 554.5738 623.7063 549.368 624.1813 548.88 615.8939 545.5135 612.0662 540.6687 614.8499 529.0717 614.3115 526.8016 610.1133 536.9691 608.2608 533.6369 599.3982 529.1673 597.9128 527.5949 603.8377 519.4798 609.5735 515.2352 614.0081 503.4445 613.0716 504.042 609.598 500.561 605.9881 483.004 605.6193 Z" data-anchor-x="527.99045" data-anchor-y="597.8901000000001" data-fill-id="13" data-name="Bouches-du-Rhône" id="13" fill="#ff5e13" stroke="black" stroke-width="1"/>
		<path d="M 367.0836 514.3516 368.6134 511.2182 382.733 511.7075 386.4286 506.5357 387.2233 501.6758 391.113 494.1392 396.6807 489.0914 403.5197 494.2781 410.8959 512.2853 416.6853 518.9618 415.7879 523.5365 419.5424 527.0715 418.7216 534.528 422.7587 543.8457 433.2739 549.7851 431.0303 550.758 428.7377 558.0058 437.6122 561.4489 432.0493 568.2337 432.4652 570.1841 427.7096 571.4266 423.8394 578.2518 416.8971 576.3997 414.739 579.2327 415.4336 587.7429 408.2172 587.6081 406.3649 583.827 401.2701 582.2399 393.6596 583.6843 386.9095 575.8852 386.5231 569.773 383.2313 567.6486 381.056 559.2091 370.6401 551.6699 360.9691 547.6807 354.2913 551.1701 349.3574 547.6583 348.3298 535.9723 347.1925 524.2849 360.0313 516.5467 363.6858 517.9008 367.0836 514.3516 Z" data-anchor-x="392.40234999999996" data-anchor-y="538.41715" data-fill-id="12" data-name="Aveyron" id="12" fill="#ff0000" stroke="black" stroke-width="1"/>
		<path d="M 197.1417 136.9026 197.227 139.9802 205.3339 146.5404 209.5994 151.8343 210.2478 156.7303 206.0287 164.4338 194.1198 175.0044 199.1013 179.4352 204.8755 178.5854 210.4983 181.7871 214.5644 194.0994 208.5254 201.6156 197.5098 200.4819 186.9911 197.9053 180.8953 203.7269 175.3677 200.2846 171.6943 189.7396 178.2794 190.0719 172.1133 179.4703 173.9275 160.3025 172.2833 158.1901 172.9353 149.4095 167.7695 134.4822 162.8258 129.9167 161.2705 118.8862 161.4668 107.7023 157.2008 105.2395 157.6781 101.4803 171.202 107.6731 178.8695 108.2564 183.5606 105.0755 191.1474 106.0611 193.9227 111.7462 189.5172 118.1659 196.1479 128.943 197.1417 136.9026 Z" data-anchor-x="185.8826" data-anchor-y="152.6036" data-fill-id="50" data-name="Manche" id="50" fill="#008000" stroke="black" stroke-width="1"/>
		<path d="M 185.1268 257.9646 185.692 255.3679 187.9801 257.3934 199.1841 259.8971 200.9303 257.228 206.7327 261.0108 218.8844 262.9031 224.7793 259.3026 231.2075 261.4622 232.4475 263.9054 238.9703 266.0215 240.738 270.7272 249.9899 271.4554 258.5533 276.5432 263.4564 274.7996 263.0241 281.2792 257.7501 296.2035 254.3835 300.2945 252.7136 309.6899 243.9799 317.1685 239.6178 313.5652 227.8148 316.0601 219.3327 316.2143 215.7524 321.7412 200.8865 322.3263 195.25 318.5049 187.2298 317.3949 186.5413 306.419 182.593 299.8865 180.8131 292.4223 187.4997 290.7528 199.4718 289.7648 198.9654 281.3208 194.7854 279.9985 195.5962 272.3564 190.2436 270.7099 185.1268 257.9646 Z" data-anchor-x="222.13475" data-anchor-y="288.8471" data-fill-id="49" data-name="Maine-et-Loire" id="49" fill="#ff5e13" stroke="black" stroke-width="1"/>
		<path d="M 791.6756 717.8341 786.8436 720.3954 781.3745 718.9854 779.9337 705.4004 776.4255 705.8757 768.4706 691.9476 758.5278 687.6999 754.9987 684.1068 739.6944 680.2148 744.0805 677.3101 744.3805 669.4702 747.4757 665.7329 752.1577 664.3399 756.2391 659.3118 764.3318 657.526 767.7517 651.5716 775.4882 649.3658 779.5838 653.762 782.7354 648.6965 780.3327 640.4578 782.125 634.4399 780.8198 628.3368 787.9987 628.3511 790.8756 642.4178 789.2274 653.9011 794.9667 662.9196 795.9658 675.6717 798.2556 683.5921 799 695.9155 791.7584 710.2555 791.6756 717.8341 Z" data-anchor-x="769.3471999999999" data-anchor-y="674.3661" data-fill-id="2B" data-name="Haute-Corse" id="2B" fill="#ff0000" stroke="black" stroke-width="1"/>
		<path d="M 462.0723 455.5479 466.3795 453.9893 468.6776 457.3568 477.7444 452.5302 486.5179 454.3336 486.4477 458.2307 494.9698 464.5958 494.4609 469.1361 489.2424 473.7231 489.4178 480.58 484.4959 483.8225 477.1086 493.6955 470.4944 493.7796 468.2212 498.0304 460.6564 504.15 453.9506 496.8519 444.3434 497.0981 438.9294 499.1185 432.261 486.343 428.8152 481.6176 428.12 474.543 424.3839 462.2581 418.1596 461.6019 417.7273 456.0553 421.376 456.1603 431.7962 450.5855 437.0462 452.0935 439.7728 450.1565 449.0167 455.3175 462.0723 455.5479 Z" data-anchor-x="456.34855000000005" data-anchor-y="477.15324999999996" data-fill-id="43" data-name="Haute-Loire" id="43" fill="#ff0000" stroke="black" stroke-width="1"/>
		<path d="M 366.2207 7.6633 378.3374 3.5474 382.1407 3.8723 389.1579 1 393.3478 12.616 392.0412 17.0399 393.5444 22.9854 397.7312 22.96 401.301 29.6976 406.8199 32.4851 408.8478 28.4111 419.4136 24.8264 425.3003 33.7525 426.0587 44.8201 428.6433 47.2401 442.7395 48.0118 445.5169 51.1511 445.7744 59.9255 455.3347 59.516 457.0967 61.2772 464.2042 58.8261 474.1504 66.6124 471.1184 71.1331 474.8708 81.3137 470.1035 85.5668 470.4318 88.887 467.4344 89.6643 448.5077 81.9562 443.3643 85.531 429.8627 84.8562 420.7649 86.6889 416.5506 83.367 418.8941 76.2771 419.5292 66.7787 411.6774 56.8498 413.8969 54.0217 412.9836 49.1029 406.3949 45.5355 403.1147 45.8761 402.4023 34.5033 393.2491 38.5118 386.0146 37.3201 374.3001 24.828 368.4973 10.7305 366.2207 7.6633 Z" data-anchor-x="420.54575" data-anchor-y="45.33215" data-fill-id="59" data-name="Nord" id="59" fill="#008000" stroke="black" stroke-width="1"/>
		<path d="M 329.1395 81.572 332.921 78.2016 336.3986 70.5848 341.7215 69.9937 337.5257 64.1845 338.2608 58.6729 343.0934 59.3724 351.0559 58.5855 358.2508 64.4073 363.8592 67.1293 365.7496 71.0077 384.0137 69.5208 380.0179 78.8293 387.1758 76.3682 396.1258 80.2209 398.2375 77.6587 403.9302 81.7394 405.7594 85.2191 416.5506 83.367 420.7649 86.6889 418.0963 96.8335 414.7755 100.9811 418.0264 110.9932 406.3681 111.5663 395.9278 117.6039 394.6384 121.1879 383.3408 115.1004 379.5015 114.8022 373.1545 111.1503 363.7767 112.5279 362.1441 110.2814 354.9806 111.1363 349.3603 106.3599 345.8394 96.0939 332.8802 83.878 329.1395 81.572 Z" data-anchor-x="374.9522" data-anchor-y="89.8867" data-fill-id="80" data-name="Somme" id="80" fill="#008000" stroke="black" stroke-width="1"/>
		<path d="M 432.4652 570.1841 440.9369 571.4537 444.079 574.69 447.6727 569.8392 456.0171 565.6383 464.6699 572.4939 469.4445 577.9323 477.6143 583.7375 480.7038 590.2811 475.4515 598.2587 470.4029 598.443 464.3055 601.3784 458.004 607.4699 450.4203 611.3239 441.9442 620.5565 432.2711 621.0774 425.8616 625.8002 422.8128 622.7697 418.3716 622.6049 405.3709 616.5313 398.7304 622.2359 389.8129 619.8608 385.4938 615.0573 386.8327 609.0987 392.7549 605.3765 389.7734 597.6973 391.9125 591.1762 398.4134 593.8242 407.3154 590.1587 408.2172 587.6081 415.4336 587.7429 414.739 579.2327 416.8971 576.3997 423.8394 578.2518 427.7096 571.4266 432.4652 570.1841 Z" data-anchor-x="433.0988" data-anchor-y="595.71925" data-fill-id="34" data-name="Hérault" id="34" fill="#ff0000" stroke="black" stroke-width="1"/>
		<path d="M 371.1253 276.2458 378.2981 279.0756 390.098 281.3376 393.5246 286.9774 401.5816 286.4379 405.1931 284.3838 408.2092 290.609 404.9037 298.6867 411.0198 304.9623 413.4625 315.4537 413.3527 320.8718 416.0382 324.1136 414.6649 333.0717 415.7063 337.2479 413.6778 341.8867 409.7861 341.1901 402.5349 346.5979 395.6414 347.7056 390.5091 351.7536 388.8725 356.6527 390.601 361.2262 377.3765 363.6588 372.5351 371.3806 366.3485 371.0419 368.3794 366.2891 365.9349 360.4694 367.691 353.761 361.0517 345.7596 363.8269 342.7934 360.309 339.0101 365.1549 334.2093 361.4849 330.5672 362.7904 324.104 360.4615 316.8614 356.0227 315.3272 351.4608 317.1336 345.8095 314.8032 349.2384 307.7626 354.7885 302.2893 357.8833 304.3656 366.5106 301.7456 363.6445 294.2413 371.5166 286.4651 366.5493 277.7567 371.1253 276.2458 Z" data-anchor-x="380.92385" data-anchor-y="323.8132" data-fill-id="18" data-name="Cher" id="18" fill="#ff5e13" stroke="black" stroke-width="1"/>
		<path d="M 512.6166 459.3313 522.9726 455.4976 526.7728 457.3453 533.3872 465.9154 536.8586 476.0563 545.2203 478.6357 549.448 476.4008 552.1147 482.2523 550.9788 498.405 560.8243 502.8117 570.2456 504.5543 566.8791 509.9061 561.9137 508.9317 559.124 517.8922 559.7008 524.0511 552.6139 522.2307 549.2874 527.6018 553.7185 534.3925 560.8533 534.5765 564.2928 538.9364 564.5316 545.6219 558.8633 546.0827 554.6342 551.9309 547.8808 548.6217 547.9106 545.3926 540.5294 543.3012 536.2848 544.3135 534.2647 539.5276 529.2107 537.4257 515.329 543.7942 512.2444 536.4633 505.8472 536.2621 508.0577 527.2748 507.8816 517.9541 512.5914 510.3432 511.3302 501.1209 514.7314 497.4088 518.1072 487.9694 515.2063 482.4519 516.2359 478.0063 513.1674 473.2917 512.6166 459.3313 Z M 519.7542 535.2865 524.6455 538.3913 527.2173 533.1364 524.902 528.4142 520.9202 529.7435 519.7542 535.2865 Z" data-anchor-x="538.0464" data-anchor-y="503.71425" data-fill-id="26" data-name="Drôme" id="26" fill="#ffff00" stroke="black" stroke-width="1"/>
		<path d="M 616.0511 256.223 612.7906 261.6078 616.1259 276.0793 608.8123 276.8261 603.8667 281.9786 595.0609 280.2618 591.0019 281.7235 587.3543 287.8865 577.1605 294.7312 569.8064 295.433 565.2767 298.9105 557.5132 302.1491 551.6721 302.8242 547.6888 299.3678 545.9314 294.2 540.3523 287.7948 545.9144 279.5886 544.7351 275.3038 539.1852 275.8065 540.7565 270.4079 553.7029 269.7196 556.623 262.3107 555.1991 259.0104 562.1872 255.6635 565.6302 249.4068 568.3871 245.0775 578.4522 241.1457 580.2244 246.2667 584.4188 248.1498 590.901 245.6173 597.376 251.3598 603.8654 246.3567 606.1208 249.4103 613.7203 253.3194 616.0511 256.223 Z" data-anchor-x="577.65555" data-anchor-y="271.98495" data-fill-id="70" data-name="Haute-Saône" id="70" fill="#ffff00" stroke="black" stroke-width="1"/>
		<path d="M 538.4817 367.6108 538.3798 369.9951 551.5867 381.2529 557.3322 375.473 561.687 381.6374 568.7002 381.3315 571.7236 379.4431 579.8106 368.6261 585.7794 372.38 582.3299 378.9522 583.6476 381.5716 575.768 384.5727 574.7406 391.3434 571.315 394.97 566.9777 395.8119 568.3151 406.9686 566.4042 415.8839 566.3302 422.402 562.9937 425.421 561.139 430.8119 557.8193 433.1004 556.5487 430.0678 546.1939 418.0896 542.1094 412.1911 535.4594 421.3488 528.3661 418.1033 518.2362 418.8836 517.5856 413.5606 510.3449 408.8028 508.2479 397.0152 509.9329 389.7553 517.8213 362.8241 524.4841 365.081 530.8999 362.6573 538.4817 367.6108 Z" data-anchor-x="547.01365" data-anchor-y="397.87885" data-fill-id="01" data-name="Ain" id="01" fill="#ff5e13" stroke="black" stroke-width="1"/>
		<path d="M 187.2298 317.3949 181.3395 313.3721 174.7727 316.5974 174.724 322.8574 170.1029 324.6317 169.1103 315.5677 165.1345 317.3385 167.4099 327.0698 164.2906 329.4025 157.336 326.7363 153.9393 323.421 146.6955 320.7562 142.4762 314.8553 137.5869 308.8157 130.0514 306.5128 133.4423 299.8782 132.351 294.1986 126.1142 297.4653 123.1272 294.211 119.0495 295.053 115.0104 291.4332 113.237 285.8922 118.6413 279.9774 126.2926 279.461 138.3894 274.5157 139.0052 266.7529 146.1228 262.5923 163.025 261.8262 164.8056 258.1054 173.4777 254.694 185.1268 257.9646 190.2436 270.7099 195.5962 272.3564 194.7854 279.9985 198.9654 281.3208 199.4718 289.7648 187.4997 290.7528 180.8131 292.4223 182.593 299.8865 186.5413 306.419 187.2298 317.3949 Z" data-anchor-x="156.3544" data-anchor-y="292.04825" data-fill-id="44" data-name="Loire-Atlantique" id="44" fill="#ff5e13" stroke="black" stroke-width="1"/>
		<path d="M 371.3758 184.607 376.2948 186.8217 389.4408 191.4167 385.5708 203.2224 386.3789 206.2346 384.1473 215.3068 380.353 220.8149 368.5806 221.4153 358.6755 223.2806 358.217 217.4255 355.0628 209.675 355.8114 202.4696 360.1718 201.8102 360.8618 193.9226 365.7385 187.2284 371.3758 184.607 Z" data-anchor-x="372.2518" data-anchor-y="203.9438" data-fill-id="91" data-name="Essonne" id="91" fill="#008000" stroke="black" stroke-width="1"/>
		<path d="M 390.5742 160.6436 388.6222 166.1694 383.5443 170.4553 378.8003 168.9679 374.878 170.7647 370.1209 174.0748 370.4297 170.81 364.1655 165.6085 356.502 164.93 350.8569 160.5342 345.314 162.9521 339.4043 160.2341 344.5893 148.0406 347.1419 152.6733 354.4089 153.456 363.6784 150.5395 371.3392 152.5869 376.2022 152.1363 390.5742 160.6436 Z" data-anchor-x="364.98924999999997" data-anchor-y="161.0577" data-fill-id="95" data-name="Val-d'Oise" id="95" fill="#008000" stroke="black" stroke-width="1"/>
		<path d="M 63.8455 248.0556 70.8337 242.5519 71.8661 236.0004 67.0982 236.0226 64.7052 233.0201 58.9042 232.7081 55.7065 223.3631 55.9952 219.8713 64.1973 217.1622 75.7809 219.2946 78.8282 221.8904 86.5599 220.6932 88.018 217.4538 93.4247 220.6906 99.6573 221.6307 106.7444 226.0425 112.0749 226.644 113.0119 232.9157 117.3839 229.9447 119.4791 225.5645 124.3468 222.6668 131.4617 226.3582 133.8547 231.1477 131.3076 234.9001 138.2708 238.7078 141.4493 244.1376 139.2377 247.0269 141.3447 252.5763 137.9442 262.6621 139.0052 266.7529 138.3894 274.5157 126.2926 279.461 118.6413 279.9774 119.9515 276.0434 115.909 273.5166 108.0103 273.6138 99.766 275.5492 95.9384 270.8269 104.4679 271.4509 103.9862 265.1094 98.764 265.0519 93.1946 267.698 83.6289 268.0012 82.0292 264.6158 72.9834 255.8253 67.0646 256.4332 63.8455 248.0556 Z" data-anchor-x="98.5779" data-anchor-y="248.5698" data-fill-id="56" data-name="Morbihan" id="56" fill="#ffff00" stroke="black" stroke-width="1"/>
		<path d="M 616.0511 256.223 617.202 255.4043 627.6939 262.6813 627.4958 273.085 630.9567 272.9683 633.6931 279.9675 625.9942 281.1261 623.7781 286.0008 621.2626 276.8669 616.1259 276.0793 612.7906 261.6078 616.0511 256.223 Z" data-anchor-x="623.24185" data-anchor-y="270.70255000000003" data-fill-id="90" data-name="Territoire de Belfort" id="90" fill="#008000" stroke="black" stroke-width="1"/>
		<path d="M 197.5098 200.4819 208.5254 201.6156 213.607 207.0511 219.3297 206.7011 227.0104 201.8813 234.1969 203.2207 239.5511 202.5493 243.0645 198.1831 246.3086 201.2112 245.8421 206.683 250.9122 207.2546 250.5714 212.9367 246.1999 214.1678 244.2972 222.2954 245.1611 226.7733 239.6095 230.4148 240.2342 238.1542 234.2983 239.1736 237.1719 246.0567 230.957 248.3521 232.2572 252.1576 227.9166 255.6483 231.2075 261.4622 224.7793 259.3026 218.8844 262.9031 206.7327 261.0108 200.9303 257.228 199.1841 259.8971 187.9801 257.3934 185.692 255.3679 188.5499 250.9634 190.4504 243.8892 197.9273 241.3677 194.8151 219.876 198.0902 214.8875 196.6466 205.8127 197.5098 200.4819 Z" data-anchor-x="218.3021" data-anchor-y="230.54309999999998" data-fill-id="53" data-name="Mayenne" id="53" fill="#ffff00" stroke="black" stroke-width="1"/>
		<path d="M 243.9799 317.1685 244.5163 322.8418 248.5461 329.82 246.3363 336.5098 248.7047 344.9049 244.9202 352.2983 249.2975 353.4379 246.0961 360.8618 247.0344 370.9136 251.5129 377.7357 256.9993 376.1115 253.1824 385.1514 257.4637 394.5774 250.9024 394.4099 245.1708 397.1909 243.8867 402.4095 240.5139 403.9145 231.1252 394.8766 226.5294 394.9437 212.154 388.9606 209.1085 382.9421 205.736 380.5378 206.0427 375.8673 211.2417 375.2625 217.9571 369.9547 214.138 367.5714 214.6247 351.0017 212.6616 344.7679 209.0871 339.4602 210.2158 335.0377 203.8435 329.6012 200.8865 322.3263 215.7524 321.7412 219.3327 316.2143 227.8148 316.0601 239.6178 313.5652 243.9799 317.1685 Z" data-anchor-x="229.17510000000001" data-anchor-y="358.73985" data-fill-id="79" data-name="Deux-Sèvres" id="79" fill="#ff0000" stroke="black" stroke-width="1"/>
		<path d="M 539.6684 125.5671 556.142 120.7027 561.5281 124.8646 565.0404 138.3071 569.3117 145.8565 566.9122 149.1378 567.9726 155.5292 566.2824 160.4387 570.835 162.9303 576.5551 169.0563 585.8907 170.7178 583.8643 175.5259 589.9316 181.0933 598.6222 182.2394 605.8551 188.4453 624.1739 194.8962 626.7446 198.2537 629.1314 199.9545 621.7389 203.1253 616.9477 208.2453 610.8295 209.9578 604.4188 207.5474 602.7454 204.5477 596.7061 209.415 584.064 210.5788 576.6451 215.0344 570.6435 214.541 563.787 211.5987 564.7652 204.4103 557.6778 204.4264 554.7683 199.0917 557.3735 194.7299 557.0932 188.1844 554.6008 185.7725 557.6216 177.7901 556.666 172.7062 559.6861 159.4284 555.8245 155.9458 555.4998 148.5288 553.3458 143.6161 555.5974 141.3862 551.3521 131.7218 548.279 130.022 541.6978 132.7497 539.6684 125.5671 Z" data-anchor-x="584.3999" data-anchor-y="167.86855" data-fill-id="54" data-name="Meurthe-et-Moselle" id="54" fill="#008000" stroke="black" stroke-width="1"/>
		<path d="M 297.2782 236.6315 305.5044 234.9166 306.1873 238.3859 311.307 238.652 312.1114 242.3377 316.6747 247.7614 325.1021 249.1268 333.1563 247.0289 333.3705 251.2362 336.7616 255.2987 333.2929 259.7257 343.0823 267.8337 344.8961 273.1175 351.4356 271.7612 369.4256 271.8051 371.1253 276.2458 366.5493 277.7567 371.5166 286.4651 363.6445 294.2413 366.5106 301.7456 357.8833 304.3656 354.7885 302.2893 349.2384 307.7626 338.4548 303.2243 328.6799 305.8149 321.5168 309.9023 316.1513 301.2497 309.9159 300.7419 310.8387 296.3958 309.5277 287.1907 306.9761 282.1809 306.4836 276.1189 300.4635 274.0318 290.9263 268.7197 284.2932 268.684 282.4953 267.1763 293.1685 257.3949 292.3471 253.2697 297.3201 249.3869 295.8429 245.8654 297.2782 236.6315 Z" data-anchor-x="327.00595" data-anchor-y="272.40945" data-fill-id="41" data-name="Loir-et-Cher" id="41" fill="#ffff00" stroke="black" stroke-width="1"/></g></svg>